<?xml version="1.0" encoding="utf-8" standalone="no"?>
<!DOCTYPE svg PUBLIC "-//W3C//DTD SVG 1.1//EN"
  "http://www.w3.org/Graphics/SVG/1.1/DTD/svg11.dtd">
<svg xmlns:xlink="http://www.w3.org/1999/xlink" width="293.6pt" height="223.731955pt" viewBox="0 0 293.6 223.731955" xmlns="http://www.w3.org/2000/svg" version="1.1">
 <metadata>
  <rdf:RDF xmlns:dc="http://purl.org/dc/elements/1.1/" xmlns:cc="http://creativecommons.org/ns#" xmlns:rdf="http://www.w3.org/1999/02/22-rdf-syntax-ns#">
   <cc:Work>
    <dc:type rdf:resource="http://purl.org/dc/dcmitype/StillImage"/>
    <dc:date>2025-11-22T18:10:23.264330</dc:date>
    <dc:format>image/svg+xml</dc:format>
    <dc:creator>
     <cc:Agent>
      <dc:title>Matplotlib v3.10.3, https://matplotlib.org/</dc:title>
     </cc:Agent>
    </dc:creator>
   </cc:Work>
  </rdf:RDF>
 </metadata>
 <defs>
  <style type="text/css">*{stroke-linejoin: round; stroke-linecap: butt}</style>
 </defs>
 <g id="figure_1">
  <g id="patch_1">
   <path d="M 0 223.731955 
L 293.6 223.731955 
L 293.6 -0 
L 0 -0 
z
" style="fill: #ffffff"/>
  </g>
  <g id="axes_1">
   <g id="patch_2">
    <path d="M 19.830079 101.629397 
L 290 101.629397 
L 290 3.6 
L 19.830079 3.6 
z
" style="fill: #ffffff"/>
   </g>
   <g id="matplotlib.axis_1">
    <g id="xtick_1">
     <g id="line2d_1">
      <path d="M 31.605292 101.629397 
L 31.605292 3.6 
" clip-path="url(#p289d1ce5d8)" style="fill: none; stroke: #b0b0b0; stroke-width: 0.5; stroke-linecap: square"/>
     </g>
     <g id="line2d_2">
      <defs>
       <path id="m55a364b985" d="M 0 0 
L 0 -3 
" style="stroke: #000000; stroke-width: 0.5"/>
      </defs>
      <g>
       <use xlink:href="#m55a364b985" x="31.605292" y="101.629397" style="stroke: #000000; stroke-width: 0.5"/>
      </g>
     </g>
     <g id="line2d_3">
      <defs>
       <path id="m738e438890" d="M 0 0 
L 0 3 
" style="stroke: #000000; stroke-width: 0.5"/>
      </defs>
      <g>
       <use xlink:href="#m738e438890" x="31.605292" y="3.6" style="stroke: #000000; stroke-width: 0.5"/>
      </g>
     </g>
    </g>
    <g id="xtick_2">
     <g id="line2d_4">
      <path d="M 93.260166 101.629397 
L 93.260166 3.6 
" clip-path="url(#p289d1ce5d8)" style="fill: none; stroke: #b0b0b0; stroke-width: 0.5; stroke-linecap: square"/>
     </g>
     <g id="line2d_5">
      <g>
       <use xlink:href="#m55a364b985" x="93.260166" y="101.629397" style="stroke: #000000; stroke-width: 0.5"/>
      </g>
     </g>
     <g id="line2d_6">
      <g>
       <use xlink:href="#m738e438890" x="93.260166" y="3.6" style="stroke: #000000; stroke-width: 0.5"/>
      </g>
     </g>
    </g>
    <g id="xtick_3">
     <g id="line2d_7">
      <path d="M 154.915039 101.629397 
L 154.915039 3.6 
" clip-path="url(#p289d1ce5d8)" style="fill: none; stroke: #b0b0b0; stroke-width: 0.5; stroke-linecap: square"/>
     </g>
     <g id="line2d_8">
      <g>
       <use xlink:href="#m55a364b985" x="154.915039" y="101.629397" style="stroke: #000000; stroke-width: 0.5"/>
      </g>
     </g>
     <g id="line2d_9">
      <g>
       <use xlink:href="#m738e438890" x="154.915039" y="3.6" style="stroke: #000000; stroke-width: 0.5"/>
      </g>
     </g>
    </g>
    <g id="xtick_4">
     <g id="line2d_10">
      <path d="M 216.569913 101.629397 
L 216.569913 3.6 
" clip-path="url(#p289d1ce5d8)" style="fill: none; stroke: #b0b0b0; stroke-width: 0.5; stroke-linecap: square"/>
     </g>
     <g id="line2d_11">
      <g>
       <use xlink:href="#m55a364b985" x="216.569913" y="101.629397" style="stroke: #000000; stroke-width: 0.5"/>
      </g>
     </g>
     <g id="line2d_12">
      <g>
       <use xlink:href="#m738e438890" x="216.569913" y="3.6" style="stroke: #000000; stroke-width: 0.5"/>
      </g>
     </g>
    </g>
    <g id="xtick_5">
     <g id="line2d_13">
      <path d="M 278.224787 101.629397 
L 278.224787 3.6 
" clip-path="url(#p289d1ce5d8)" style="fill: none; stroke: #b0b0b0; stroke-width: 0.5; stroke-linecap: square"/>
     </g>
     <g id="line2d_14">
      <g>
       <use xlink:href="#m55a364b985" x="278.224787" y="101.629397" style="stroke: #000000; stroke-width: 0.5"/>
      </g>
     </g>
     <g id="line2d_15">
      <g>
       <use xlink:href="#m738e438890" x="278.224787" y="3.6" style="stroke: #000000; stroke-width: 0.5"/>
      </g>
     </g>
    </g>
    <g id="xtick_6">
     <g id="line2d_16">
      <defs>
       <path id="m9e2ef1f471" d="M 0 0 
L 0 -1.5 
" style="stroke: #000000; stroke-width: 0.5"/>
      </defs>
      <g>
       <use xlink:href="#m9e2ef1f471" x="47.019011" y="101.629397" style="stroke: #000000; stroke-width: 0.5"/>
      </g>
     </g>
     <g id="line2d_17">
      <defs>
       <path id="m54e56519cf" d="M 0 0 
L 0 1.5 
" style="stroke: #000000; stroke-width: 0.5"/>
      </defs>
      <g>
       <use xlink:href="#m54e56519cf" x="47.019011" y="3.6" style="stroke: #000000; stroke-width: 0.5"/>
      </g>
     </g>
    </g>
    <g id="xtick_7">
     <g id="line2d_18">
      <g>
       <use xlink:href="#m9e2ef1f471" x="62.432729" y="101.629397" style="stroke: #000000; stroke-width: 0.5"/>
      </g>
     </g>
     <g id="line2d_19">
      <g>
       <use xlink:href="#m54e56519cf" x="62.432729" y="3.6" style="stroke: #000000; stroke-width: 0.5"/>
      </g>
     </g>
    </g>
    <g id="xtick_8">
     <g id="line2d_20">
      <g>
       <use xlink:href="#m9e2ef1f471" x="77.846448" y="101.629397" style="stroke: #000000; stroke-width: 0.5"/>
      </g>
     </g>
     <g id="line2d_21">
      <g>
       <use xlink:href="#m54e56519cf" x="77.846448" y="3.6" style="stroke: #000000; stroke-width: 0.5"/>
      </g>
     </g>
    </g>
    <g id="xtick_9">
     <g id="line2d_22">
      <g>
       <use xlink:href="#m9e2ef1f471" x="108.673884" y="101.629397" style="stroke: #000000; stroke-width: 0.5"/>
      </g>
     </g>
     <g id="line2d_23">
      <g>
       <use xlink:href="#m54e56519cf" x="108.673884" y="3.6" style="stroke: #000000; stroke-width: 0.5"/>
      </g>
     </g>
    </g>
    <g id="xtick_10">
     <g id="line2d_24">
      <g>
       <use xlink:href="#m9e2ef1f471" x="124.087603" y="101.629397" style="stroke: #000000; stroke-width: 0.5"/>
      </g>
     </g>
     <g id="line2d_25">
      <g>
       <use xlink:href="#m54e56519cf" x="124.087603" y="3.6" style="stroke: #000000; stroke-width: 0.5"/>
      </g>
     </g>
    </g>
    <g id="xtick_11">
     <g id="line2d_26">
      <g>
       <use xlink:href="#m9e2ef1f471" x="139.501321" y="101.629397" style="stroke: #000000; stroke-width: 0.5"/>
      </g>
     </g>
     <g id="line2d_27">
      <g>
       <use xlink:href="#m54e56519cf" x="139.501321" y="3.6" style="stroke: #000000; stroke-width: 0.5"/>
      </g>
     </g>
    </g>
    <g id="xtick_12">
     <g id="line2d_28">
      <g>
       <use xlink:href="#m9e2ef1f471" x="170.328758" y="101.629397" style="stroke: #000000; stroke-width: 0.5"/>
      </g>
     </g>
     <g id="line2d_29">
      <g>
       <use xlink:href="#m54e56519cf" x="170.328758" y="3.6" style="stroke: #000000; stroke-width: 0.5"/>
      </g>
     </g>
    </g>
    <g id="xtick_13">
     <g id="line2d_30">
      <g>
       <use xlink:href="#m9e2ef1f471" x="185.742476" y="101.629397" style="stroke: #000000; stroke-width: 0.5"/>
      </g>
     </g>
     <g id="line2d_31">
      <g>
       <use xlink:href="#m54e56519cf" x="185.742476" y="3.6" style="stroke: #000000; stroke-width: 0.5"/>
      </g>
     </g>
    </g>
    <g id="xtick_14">
     <g id="line2d_32">
      <g>
       <use xlink:href="#m9e2ef1f471" x="201.156195" y="101.629397" style="stroke: #000000; stroke-width: 0.5"/>
      </g>
     </g>
     <g id="line2d_33">
      <g>
       <use xlink:href="#m54e56519cf" x="201.156195" y="3.6" style="stroke: #000000; stroke-width: 0.5"/>
      </g>
     </g>
    </g>
    <g id="xtick_15">
     <g id="line2d_34">
      <g>
       <use xlink:href="#m9e2ef1f471" x="231.983631" y="101.629397" style="stroke: #000000; stroke-width: 0.5"/>
      </g>
     </g>
     <g id="line2d_35">
      <g>
       <use xlink:href="#m54e56519cf" x="231.983631" y="3.6" style="stroke: #000000; stroke-width: 0.5"/>
      </g>
     </g>
    </g>
    <g id="xtick_16">
     <g id="line2d_36">
      <g>
       <use xlink:href="#m9e2ef1f471" x="247.39735" y="101.629397" style="stroke: #000000; stroke-width: 0.5"/>
      </g>
     </g>
     <g id="line2d_37">
      <g>
       <use xlink:href="#m54e56519cf" x="247.39735" y="3.6" style="stroke: #000000; stroke-width: 0.5"/>
      </g>
     </g>
    </g>
    <g id="xtick_17">
     <g id="line2d_38">
      <g>
       <use xlink:href="#m9e2ef1f471" x="262.811068" y="101.629397" style="stroke: #000000; stroke-width: 0.5"/>
      </g>
     </g>
     <g id="line2d_39">
      <g>
       <use xlink:href="#m54e56519cf" x="262.811068" y="3.6" style="stroke: #000000; stroke-width: 0.5"/>
      </g>
     </g>
    </g>
   </g>
   <g id="matplotlib.axis_2">
    <g id="ytick_1">
     <g id="line2d_40">
      <path d="M 19.830079 97.826784 
L 290 97.826784 
" clip-path="url(#p289d1ce5d8)" style="fill: none; stroke: #b0b0b0; stroke-width: 0.5; stroke-linecap: square"/>
     </g>
     <g id="line2d_41">
      <defs>
       <path id="m4d6623ace2" d="M 0 0 
L 3 0 
" style="stroke: #000000; stroke-width: 0.5"/>
      </defs>
      <g>
       <use xlink:href="#m4d6623ace2" x="19.830079" y="97.826784" style="stroke: #000000; stroke-width: 0.5"/>
      </g>
     </g>
     <g id="line2d_42">
      <defs>
       <path id="m962bec82ed" d="M 0 0 
L -3 0 
" style="stroke: #000000; stroke-width: 0.5"/>
      </defs>
      <g>
       <use xlink:href="#m962bec82ed" x="290" y="97.826784" style="stroke: #000000; stroke-width: 0.5"/>
      </g>
     </g>
     <g id="text_1">
      <!-- $\mathdefault{−1}$ -->
      <g transform="translate(3.6 101.286033) scale(0.1 -0.1)">
       <defs>
        <path id="CMSY10-0" d="M 4218 1472 
C 4326 1472 4442 1472 4442 1600 
C 4442 1728 4326 1728 4218 1728 
L 755 1728 
C 646 1728 531 1728 531 1600 
C 531 1472 646 1472 755 1472 
L 4218 1472 
z
" transform="scale(0.015625)"/>
        <path id="CMR17-31" d="M 1702 4058 
C 1702 4192 1696 4192 1606 4192 
C 1357 3916 979 3827 621 3827 
C 602 3827 570 3827 563 3808 
C 557 3795 557 3782 557 3648 
C 755 3648 1088 3686 1344 3839 
L 1344 461 
C 1344 236 1331 160 781 160 
L 589 160 
L 589 0 
C 896 0 1216 0 1523 0 
C 1830 0 2150 0 2458 0 
L 2458 160 
L 2266 160 
C 1715 160 1702 230 1702 458 
L 1702 4058 
z
" transform="scale(0.015625)"/>
       </defs>
       <use xlink:href="#CMSY10-0" transform="scale(0.996264)"/>
       <use xlink:href="#CMR17-31" transform="translate(77.487468 0) scale(0.996264)"/>
      </g>
     </g>
    </g>
    <g id="ytick_2">
     <g id="line2d_43">
      <path d="M 19.830079 52.61581 
L 290 52.61581 
" clip-path="url(#p289d1ce5d8)" style="fill: none; stroke: #b0b0b0; stroke-width: 0.5; stroke-linecap: square"/>
     </g>
     <g id="line2d_44">
      <g>
       <use xlink:href="#m4d6623ace2" x="19.830079" y="52.61581" style="stroke: #000000; stroke-width: 0.5"/>
      </g>
     </g>
     <g id="line2d_45">
      <g>
       <use xlink:href="#m962bec82ed" x="290" y="52.61581" style="stroke: #000000; stroke-width: 0.5"/>
      </g>
     </g>
     <g id="text_2">
      <!-- $\mathdefault{0}$ -->
      <g transform="translate(11.348744 56.075059) scale(0.1 -0.1)">
       <defs>
        <path id="CMR17-30" d="M 2688 2025 
C 2688 2416 2682 3080 2413 3591 
C 2176 4039 1798 4198 1466 4198 
C 1158 4198 768 4058 525 3597 
C 269 3118 243 2524 243 2025 
C 243 1661 250 1106 448 619 
C 723 -39 1216 -128 1466 -128 
C 1760 -128 2208 -7 2470 600 
C 2662 1042 2688 1559 2688 2025 
z
M 1466 -26 
C 1056 -26 813 325 723 812 
C 653 1188 653 1738 653 2096 
C 653 2588 653 2997 736 3387 
C 858 3929 1216 4096 1466 4096 
C 1728 4096 2067 3923 2189 3400 
C 2272 3036 2278 2607 2278 2096 
C 2278 1680 2278 1169 2202 792 
C 2067 95 1690 -26 1466 -26 
z
" transform="scale(0.015625)"/>
       </defs>
       <use xlink:href="#CMR17-30" transform="scale(0.996264)"/>
      </g>
     </g>
    </g>
    <g id="ytick_3">
     <g id="line2d_46">
      <path d="M 19.830079 7.404836 
L 290 7.404836 
" clip-path="url(#p289d1ce5d8)" style="fill: none; stroke: #b0b0b0; stroke-width: 0.5; stroke-linecap: square"/>
     </g>
     <g id="line2d_47">
      <g>
       <use xlink:href="#m4d6623ace2" x="19.830079" y="7.404836" style="stroke: #000000; stroke-width: 0.5"/>
      </g>
     </g>
     <g id="line2d_48">
      <g>
       <use xlink:href="#m962bec82ed" x="290" y="7.404836" style="stroke: #000000; stroke-width: 0.5"/>
      </g>
     </g>
     <g id="text_3">
      <!-- $\mathdefault{1}$ -->
      <g transform="translate(11.348744 10.864085) scale(0.1 -0.1)">
       <use xlink:href="#CMR17-31" transform="scale(0.996264)"/>
      </g>
     </g>
    </g>
    <g id="ytick_4">
     <g id="line2d_49">
      <defs>
       <path id="m3e5c6e4367" d="M 0 0 
L 1.5 0 
" style="stroke: #000000; stroke-width: 0.5"/>
      </defs>
      <g>
       <use xlink:href="#m3e5c6e4367" x="19.830079" y="88.784589" style="stroke: #000000; stroke-width: 0.5"/>
      </g>
     </g>
     <g id="line2d_50">
      <defs>
       <path id="m8421d26bc9" d="M 0 0 
L -1.5 0 
" style="stroke: #000000; stroke-width: 0.5"/>
      </defs>
      <g>
       <use xlink:href="#m8421d26bc9" x="290" y="88.784589" style="stroke: #000000; stroke-width: 0.5"/>
      </g>
     </g>
    </g>
    <g id="ytick_5">
     <g id="line2d_51">
      <g>
       <use xlink:href="#m3e5c6e4367" x="19.830079" y="79.742394" style="stroke: #000000; stroke-width: 0.5"/>
      </g>
     </g>
     <g id="line2d_52">
      <g>
       <use xlink:href="#m8421d26bc9" x="290" y="79.742394" style="stroke: #000000; stroke-width: 0.5"/>
      </g>
     </g>
    </g>
    <g id="ytick_6">
     <g id="line2d_53">
      <g>
       <use xlink:href="#m3e5c6e4367" x="19.830079" y="70.700199" style="stroke: #000000; stroke-width: 0.5"/>
      </g>
     </g>
     <g id="line2d_54">
      <g>
       <use xlink:href="#m8421d26bc9" x="290" y="70.700199" style="stroke: #000000; stroke-width: 0.5"/>
      </g>
     </g>
    </g>
    <g id="ytick_7">
     <g id="line2d_55">
      <g>
       <use xlink:href="#m3e5c6e4367" x="19.830079" y="61.658004" style="stroke: #000000; stroke-width: 0.5"/>
      </g>
     </g>
     <g id="line2d_56">
      <g>
       <use xlink:href="#m8421d26bc9" x="290" y="61.658004" style="stroke: #000000; stroke-width: 0.5"/>
      </g>
     </g>
    </g>
    <g id="ytick_8">
     <g id="line2d_57">
      <g>
       <use xlink:href="#m3e5c6e4367" x="19.830079" y="43.573615" style="stroke: #000000; stroke-width: 0.5"/>
      </g>
     </g>
     <g id="line2d_58">
      <g>
       <use xlink:href="#m8421d26bc9" x="290" y="43.573615" style="stroke: #000000; stroke-width: 0.5"/>
      </g>
     </g>
    </g>
    <g id="ytick_9">
     <g id="line2d_59">
      <g>
       <use xlink:href="#m3e5c6e4367" x="19.830079" y="34.53142" style="stroke: #000000; stroke-width: 0.5"/>
      </g>
     </g>
     <g id="line2d_60">
      <g>
       <use xlink:href="#m8421d26bc9" x="290" y="34.53142" style="stroke: #000000; stroke-width: 0.5"/>
      </g>
     </g>
    </g>
    <g id="ytick_10">
     <g id="line2d_61">
      <g>
       <use xlink:href="#m3e5c6e4367" x="19.830079" y="25.489225" style="stroke: #000000; stroke-width: 0.5"/>
      </g>
     </g>
     <g id="line2d_62">
      <g>
       <use xlink:href="#m8421d26bc9" x="290" y="25.489225" style="stroke: #000000; stroke-width: 0.5"/>
      </g>
     </g>
    </g>
    <g id="ytick_11">
     <g id="line2d_63">
      <g>
       <use xlink:href="#m3e5c6e4367" x="19.830079" y="16.447031" style="stroke: #000000; stroke-width: 0.5"/>
      </g>
     </g>
     <g id="line2d_64">
      <g>
       <use xlink:href="#m8421d26bc9" x="290" y="16.447031" style="stroke: #000000; stroke-width: 0.5"/>
      </g>
     </g>
    </g>
   </g>
   <g id="line2d_65">
    <path d="M 31.605292 101.629397 
L 31.605292 3.6 
" clip-path="url(#p289d1ce5d8)" style="fill: none; stroke-dasharray: 1.85,0.8; stroke-dashoffset: 0; stroke: #808080; stroke-width: 0.5"/>
   </g>
   <g id="line2d_66">
    <path d="M 19.830079 52.61581 
L 290 52.61581 
" clip-path="url(#p289d1ce5d8)" style="fill: none; stroke-dasharray: 1.85,0.8; stroke-dashoffset: 0; stroke: #808080; stroke-width: 0.5"/>
   </g>
   <g id="line2d_67">
    <path d="M 278.224787 101.629397 
L 278.224787 3.6 
" clip-path="url(#p289d1ce5d8)" style="fill: none; stroke-dasharray: 1.85,0.8; stroke-dashoffset: 0; stroke: #808080; stroke-width: 0.5"/>
   </g>
   <g id="line2d_68">
    <path d="M 19.804726 96.685038 
L 21.942808 96.29666 
L 23.258551 95.841407 
L 24.08089 95.352096 
L 24.738761 94.730116 
L 25.232164 94.023059 
L 25.725568 92.959085 
L 26.218971 91.273948 
L 26.712375 88.451701 
L 27.04131 85.469225 
L 27.370246 81.065167 
L 27.86365 70.507621 
L 28.685989 43.772342 
L 29.179392 30.372266 
L 29.672796 22.123158 
L 30.166199 17.424567 
L 30.659602 14.689063 
L 31.153006 13.011833 
L 31.810877 11.650416 
L 32.468748 10.823936 
L 33.291088 10.182327 
L 34.277894 9.713087 
L 35.593637 9.340805 
L 37.567251 9.027846 
L 41.021075 8.739648 
L 49.408934 8.321651 
L 50.231273 8.541621 
L 51.547015 9.178222 
L 52.862758 9.733979 
L 54.014033 9.966054 
L 55.329775 9.980878 
L 56.809986 9.744689 
L 58.783599 9.178863 
L 61.086149 8.551678 
L 63.224231 8.314968 
L 66.184651 8.269095 
L 84.769515 8.437603 
L 97.92694 8.481193 
L 124.241791 8.420323 
L 125.886469 8.768073 
L 127.202212 9.281059 
L 130.656036 10.806588 
L 131.642843 10.974792 
L 132.62965 10.910393 
L 133.616457 10.584555 
L 134.438796 10.091824 
L 137.070281 8.22521 
L 137.728152 8.05896 
L 139.043895 8.136445 
L 143.648994 8.621468 
L 145.622608 9.036869 
L 146.773882 9.491815 
L 147.596222 10.045008 
L 148.254093 10.763519 
L 148.747496 11.596849 
L 149.2409 12.876782 
L 149.734303 14.950973 
L 150.227707 18.504606 
L 150.556642 22.307052 
L 151.050046 31.560307 
L 151.543449 46.089814 
L 152.365788 72.006949 
L 152.859192 81.449278 
L 153.352595 86.861591 
L 153.845999 89.980915 
L 154.339402 91.867348 
L 154.997273 93.376183 
L 155.655145 94.278981 
L 156.477484 94.971006 
L 157.464291 95.471035 
L 158.780033 95.86315 
L 160.753647 96.18869 
L 164.043003 96.473351 
L 172.59533 96.922495 
L 173.582137 96.67935 
L 174.733412 96.145155 
L 176.213622 95.487661 
L 177.364897 95.229528 
L 178.516171 95.198242 
L 179.831914 95.399839 
L 181.64106 95.926348 
L 183.943609 96.589347 
L 185.752755 96.849282 
L 187.890837 96.957319 
L 194.140614 96.938058 
L 227.856517 96.808347 
L 246.934784 96.895493 
L 248.908398 96.553901 
L 250.059673 96.12611 
L 253.842432 94.510937 
L 254.993707 94.318941 
L 255.980514 94.368463 
L 256.967321 94.659419 
L 257.78966 95.131217 
L 259.26987 96.350868 
L 260.09221 96.896607 
L 260.914549 97.157504 
L 261.736888 97.139543 
L 265.848583 96.756371 
L 268.3156 96.356778 
L 269.631343 95.949729 
L 270.61815 95.412467 
L 271.276021 94.824288 
L 271.933892 93.875664 
L 272.427296 92.731214 
L 272.920699 90.902041 
L 273.414103 87.810008 
L 273.743038 84.523954 
L 274.236442 76.464672 
L 274.729845 63.191263 
L 275.88112 28.666955 
L 276.374524 21.145299 
L 276.867927 16.864251 
L 277.36133 14.352579 
L 277.854734 12.79837 
L 278.512605 11.524707 
L 279.170476 10.744268 
L 279.992816 10.133448 
L 280.979622 9.683231 
L 282.459833 9.289912 
L 284.597915 8.982096 
L 288.380674 8.69512 
L 290.025353 8.604696 
L 290.025353 8.604696 
" clip-path="url(#p289d1ce5d8)" style="fill: none; stroke: #0c5da5; stroke-opacity: 0.8; stroke-width: 2; stroke-linecap: square"/>
   </g>
   <g id="line2d_69">
    <path d="M 19.804726 58.676092 
L 21.449405 58.126841 
L 22.765147 57.462273 
L 23.751954 56.721151 
L 24.574293 55.822221 
L 25.232164 54.792121 
L 25.890036 53.297104 
L 26.383439 51.681676 
L 26.876843 49.401371 
L 27.370246 46.180324 
L 28.685989 36.090455 
L 29.014924 35.407869 
L 29.179392 35.386059 
L 29.508328 35.724429 
L 31.810877 39.367717 
L 32.797684 40.230156 
L 33.948959 40.922972 
L 35.429169 41.532502 
L 37.402783 42.085498 
L 40.363204 42.654947 
L 53.685097 44.708241 
L 56.48105 44.741741 
L 69.30954 44.325737 
L 76.217188 43.891257 
L 89.703549 42.966451 
L 94.96652 42.904576 
L 100.558425 43.06981 
L 107.795009 43.526446 
L 119.143289 44.485574 
L 133.287521 45.728568 
L 135.754539 45.523407 
L 137.399217 45.490309 
L 139.208363 45.771627 
L 142.662187 46.437754 
L 144.471333 46.991072 
L 145.787076 47.598929 
L 146.773882 48.264184 
L 147.596222 49.055544 
L 148.254093 49.944314 
L 148.911964 51.206236 
L 149.569835 53.093062 
L 150.063239 55.181174 
L 150.556642 58.143685 
L 151.378981 65.085392 
L 151.872385 68.609933 
L 152.20132 69.681027 
L 152.365788 69.845723 
L 152.530256 69.827305 
L 152.859192 69.443804 
L 154.832806 66.185877 
L 155.819612 65.222363 
L 156.970887 64.460203 
L 158.28663 63.862962 
L 160.095776 63.298966 
L 162.727261 62.739457 
L 167.167892 62.066346 
L 171.772991 61.328054 
L 173.911073 60.88423 
L 176.871493 60.52653 
L 179.338511 60.475485 
L 185.42382 60.699966 
L 194.634018 61.010542 
L 202.364005 61.565129 
L 211.738671 62.215815 
L 217.001641 62.332629 
L 222.429079 62.223843 
L 229.007792 61.855676 
L 239.533732 61.014207 
L 250.059673 59.966816 
L 254.664772 59.523699 
L 257.131789 59.525891 
L 261.243484 59.669807 
L 266.341987 58.698309 
L 268.151133 58.092675 
L 269.466875 57.410412 
L 270.453682 56.645284 
L 271.276021 55.711792 
L 271.933892 54.635592 
L 272.591764 53.063483 
L 273.085167 51.355081 
L 273.578571 48.936803 
L 274.071974 45.539643 
L 275.223249 36.42577 
L 275.552184 35.489101 
L 275.716652 35.375793 
L 275.88112 35.432002 
L 276.210056 35.856716 
L 278.019202 38.897863 
L 279.006009 39.909205 
L 279.992816 40.608626 
L 281.308558 41.256931 
L 282.953236 41.812214 
L 285.255786 42.348135 
L 288.874078 42.942805 
L 290.025353 43.104757 
L 290.025353 43.104757 
" clip-path="url(#p289d1ce5d8)" style="fill: none; stroke: #00b945; stroke-opacity: 0.8; stroke-width: 2; stroke-linecap: square"/>
   </g>
   <g id="line2d_70">
    <path d="M 19.804726 44.540646 
L 21.284937 43.030372 
L 22.436212 41.533911 
L 23.423018 39.836763 
L 24.245358 37.926233 
L 24.903229 35.874352 
L 25.5611 33.091927 
L 26.218971 29.175064 
L 26.876843 23.559538 
L 28.192585 10.200807 
L 28.357053 9.946457 
L 28.521521 10.383874 
L 28.850456 13.088807 
L 30.495135 31.742791 
L 31.153006 35.929438 
L 31.810877 38.818827 
L 32.468748 40.879555 
L 33.291088 42.713145 
L 34.113427 44.015927 
L 35.100234 45.134097 
L 36.251508 46.049949 
L 37.567251 46.782352 
L 39.211929 47.425251 
L 41.678946 48.118292 
L 45.95511 49.283104 
L 47.599788 50.013435 
L 48.751063 50.61453 
L 48.91553 50.479961 
L 49.408934 49.418756 
L 50.231273 46.942823 
L 51.547015 43.060371 
L 52.369355 41.384209 
L 53.027226 40.533128 
L 53.685097 40.016309 
L 54.342968 39.759871 
L 55.00084 39.729256 
L 55.658711 39.899231 
L 56.48105 40.360799 
L 57.303389 41.073525 
L 58.290196 42.232669 
L 59.441471 43.949812 
L 61.250617 46.694894 
L 63.059763 48.528662 
L 63.717634 48.916579 
L 64.868909 49.266022 
L 65.855716 49.349116 
L 71.776557 49.571186 
L 77.203995 49.976574 
L 86.743129 50.70195 
L 92.499502 50.880598 
L 98.584812 50.85707 
L 103.847782 50.609802 
L 109.933091 50.063608 
L 122.10371 48.681756 
L 122.926049 48.298567 
L 123.58392 47.704746 
L 124.735195 46.236732 
L 125.722002 44.781104 
L 127.037744 42.318356 
L 128.84689 38.988423 
L 129.833697 37.649488 
L 130.656036 36.871619 
L 131.313908 36.500875 
L 131.971779 36.387998 
L 132.465182 36.496094 
L 133.123054 36.913986 
L 133.780925 37.689573 
L 134.438796 38.930222 
L 135.096667 40.723878 
L 136.083474 44.220807 
L 137.563685 49.46413 
L 137.728152 49.704245 
L 137.89262 49.681767 
L 141.181977 46.248606 
L 144.306865 43.353153 
L 145.45814 41.947139 
L 146.444947 40.385876 
L 147.267286 38.662635 
L 147.925157 36.844644 
L 148.583028 34.421296 
L 149.2409 31.063068 
L 149.898771 26.263595 
L 150.556642 19.527229 
L 151.378981 10.816407 
L 151.543449 10.074924 
L 151.707917 9.990274 
L 151.872385 10.596624 
L 152.20132 13.551038 
L 153.681531 30.756004 
L 154.339402 35.25834 
L 154.997273 38.349146 
L 155.655145 40.53964 
L 156.477484 42.476657 
L 157.299823 43.845085 
L 158.28663 45.013731 
L 159.273437 45.850093 
L 160.589179 46.642937 
L 162.233857 47.327886 
L 164.536407 48.004821 
L 169.634909 49.423436 
L 171.279587 50.210139 
L 172.101927 50.629277 
L 172.430862 50.085696 
L 173.582137 46.853743 
L 175.062347 42.693898 
L 175.884686 41.119786 
L 176.542558 40.311228 
L 177.200429 39.814751 
L 177.8583 39.587668 
L 178.516171 39.613013 
L 179.174043 39.860573 
L 179.996382 40.441261 
L 180.983189 41.484281 
L 182.134463 43.099458 
L 184.437013 46.505379 
L 185.917223 48.096515 
L 186.739562 48.779934 
L 187.397434 49.069713 
L 188.713176 49.336573 
L 202.528473 50.152389 
L 210.25846 50.712132 
L 216.014834 50.883435 
L 222.100143 50.851645 
L 227.363114 50.594942 
L 233.777359 50.006792 
L 245.454574 48.665848 
L 246.276913 48.256424 
L 246.934784 47.679895 
L 248.414994 45.772847 
L 249.237333 44.444339 
L 252.197754 38.913039 
L 253.184561 37.694105 
L 254.0069 36.993543 
L 254.664772 36.658773 
L 255.322643 36.5492 
L 255.980514 36.696259 
L 256.638385 37.138118 
L 257.131789 37.70842 
L 257.625192 38.55023 
L 258.283064 40.176312 
L 259.105403 42.990182 
L 260.750081 49.150025 
L 261.079016 49.673695 
L 261.243484 49.618362 
L 264.039437 46.655538 
L 267.986665 42.935363 
L 269.13794 41.410279 
L 269.960279 39.998834 
L 270.782618 38.145102 
L 271.440489 36.164429 
L 272.09836 33.491679 
L 272.756232 29.745207 
L 273.414103 24.372357 
L 274.894313 9.98857 
L 275.058781 10.078863 
L 275.223249 10.853166 
L 275.552184 14.042083 
L 276.867927 29.702457 
L 277.525798 34.544186 
L 278.18367 37.852711 
L 278.841541 40.182732 
L 279.66388 42.230079 
L 280.486219 43.667953 
L 281.473026 44.889584 
L 282.459833 45.759669 
L 283.611108 46.493296 
L 285.091318 47.163172 
L 287.064932 47.796185 
L 290.025353 48.542251 
L 290.025353 48.542251 
" clip-path="url(#p289d1ce5d8)" style="fill: none; stroke: #ff9500; stroke-opacity: 0.8; stroke-width: 2; stroke-linecap: square"/>
   </g>
   <g id="patch_3">
    <path d="M 19.830079 101.629397 
L 19.830079 3.6 
" style="fill: none; stroke: #000000; stroke-width: 0.5; stroke-linejoin: miter; stroke-linecap: square"/>
   </g>
   <g id="patch_4">
    <path d="M 290 101.629397 
L 290 3.6 
" style="fill: none; stroke: #000000; stroke-width: 0.5; stroke-linejoin: miter; stroke-linecap: square"/>
   </g>
   <g id="patch_5">
    <path d="M 19.830079 101.629397 
L 290 101.629397 
" style="fill: none; stroke: #000000; stroke-width: 0.5; stroke-linejoin: miter; stroke-linecap: square"/>
   </g>
   <g id="patch_6">
    <path d="M 19.830079 3.6 
L 290 3.6 
" style="fill: none; stroke: #000000; stroke-width: 0.5; stroke-linejoin: miter; stroke-linecap: square"/>
   </g>
   <g id="legend_1">
    <g id="patch_7">
     <path d="M 43.443673 93.787045 
L 123.345998 93.787045 
Q 125.345998 93.787045 125.345998 91.787045 
L 125.345998 64.912688 
Q 125.345998 62.912688 123.345998 62.912688 
L 43.443673 62.912688 
Q 41.443673 62.912688 41.443673 64.912688 
L 41.443673 91.787045 
Q 41.443673 93.787045 43.443673 93.787045 
z
" style="fill: #ffffff; opacity: 0.8; stroke: #ffffff; stroke-linejoin: miter"/>
    </g>
    <g id="line2d_71">
     <path d="M 45.443673 70.412688 
L 50.443673 70.412688 
L 55.443673 70.412688 
" style="fill: none; stroke: #0c5da5; stroke-opacity: 0.8; stroke-width: 2; stroke-linecap: square"/>
    </g>
    <g id="text_4">
     <!-- $n_1$ -->
     <g transform="translate(63.443673 73.912688) scale(0.1 -0.1)">
      <defs>
       <path id="CMMI12-6e" d="M 1318 1871 
C 1331 1910 1491 2229 1728 2433 
C 1894 2586 2112 2689 2362 2689 
C 2618 2689 2707 2497 2707 2242 
C 2707 1878 2445 1150 2317 805 
C 2259 651 2227 568 2227 453 
C 2227 166 2426 -64 2733 -64 
C 3328 -64 3552 875 3552 913 
C 3552 945 3526 971 3488 971 
C 3430 971 3424 952 3392 843 
C 3245 319 3002 64 2752 64 
C 2688 64 2586 64 2586 269 
C 2586 429 2656 621 2694 710 
C 2822 1063 3091 1780 3091 2145 
C 3091 2528 2867 2816 2381 2816 
C 1811 2816 1510 2415 1395 2255 
C 1376 2618 1114 2816 832 2816 
C 627 2816 486 2695 378 2478 
C 262 2248 173 1865 173 1839 
C 173 1814 198 1782 243 1782 
C 294 1782 301 1788 339 1935 
C 442 2325 557 2689 813 2689 
C 960 2689 1011 2586 1011 2395 
C 1011 2254 947 2005 902 1807 
L 723 1118 
C 698 996 627 709 595 594 
C 550 428 480 128 480 96 
C 480 6 550 -64 646 -64 
C 723 -64 813 -26 864 70 
C 877 102 934 326 966 453 
L 1107 1028 
L 1318 1871 
z
" transform="scale(0.015625)"/>
      </defs>
      <use xlink:href="#CMMI12-6e" transform="scale(0.996264)"/>
      <use xlink:href="#CMR17-31" transform="translate(58.230047 -14.943915) scale(0.697382)"/>
     </g>
    </g>
    <g id="line2d_72">
     <path d="M 45.443673 84.349867 
L 50.443673 84.349867 
L 55.443673 84.349867 
" style="fill: none; stroke: #00b945; stroke-opacity: 0.8; stroke-width: 2; stroke-linecap: square"/>
    </g>
    <g id="text_5">
     <!-- $n_2$ -->
     <g transform="translate(63.443673 87.849867) scale(0.1 -0.1)">
      <defs>
       <path id="CMR17-32" d="M 2669 989 
L 2554 989 
C 2490 536 2438 459 2413 420 
C 2381 369 1920 369 1830 369 
L 602 369 
C 832 619 1280 1072 1824 1597 
C 2214 1967 2669 2402 2669 3035 
C 2669 3790 2067 4224 1395 4224 
C 691 4224 262 3604 262 3030 
C 262 2780 448 2748 525 2748 
C 589 2748 781 2787 781 3010 
C 781 3207 614 3264 525 3264 
C 486 3264 448 3258 422 3245 
C 544 3790 915 4058 1306 4058 
C 1862 4058 2227 3617 2227 3035 
C 2227 2479 1901 2000 1536 1584 
L 262 146 
L 262 0 
L 2515 0 
L 2669 989 
z
" transform="scale(0.015625)"/>
      </defs>
      <use xlink:href="#CMMI12-6e" transform="scale(0.996264)"/>
      <use xlink:href="#CMR17-32" transform="translate(58.230047 -14.943915) scale(0.697382)"/>
     </g>
    </g>
    <g id="line2d_73">
     <path d="M 93.394835 70.412688 
L 98.394835 70.412688 
L 103.394835 70.412688 
" style="fill: none; stroke: #ff9500; stroke-opacity: 0.8; stroke-width: 2; stroke-linecap: square"/>
    </g>
    <g id="text_6">
     <!-- $n_3$ -->
     <g transform="translate(111.394835 73.912688) scale(0.1 -0.1)">
      <defs>
       <path id="CMR17-33" d="M 1414 2157 
C 1984 2157 2234 1662 2234 1090 
C 2234 320 1824 25 1453 25 
C 1114 25 563 194 390 693 
C 422 680 454 680 486 680 
C 640 680 755 782 755 948 
C 755 1133 614 1216 486 1216 
C 378 1216 211 1165 211 926 
C 211 335 787 -128 1466 -128 
C 2176 -128 2720 430 2720 1085 
C 2720 1707 2208 2157 1600 2227 
C 2086 2328 2554 2756 2554 3329 
C 2554 3820 2048 4179 1472 4179 
C 890 4179 378 3829 378 3329 
C 378 3110 544 3072 627 3072 
C 762 3072 877 3155 877 3321 
C 877 3486 762 3569 627 3569 
C 602 3569 570 3569 544 3557 
C 730 3959 1235 4032 1459 4032 
C 1683 4032 2106 3925 2106 3320 
C 2106 3143 2080 2828 1862 2550 
C 1670 2304 1453 2304 1242 2284 
C 1210 2284 1062 2269 1037 2269 
C 992 2263 966 2257 966 2208 
C 966 2163 973 2157 1101 2157 
L 1414 2157 
z
" transform="scale(0.015625)"/>
      </defs>
      <use xlink:href="#CMMI12-6e" transform="scale(0.996264)"/>
      <use xlink:href="#CMR17-33" transform="translate(58.230047 -14.943915) scale(0.697382)"/>
     </g>
    </g>
   </g>
  </g>
  <g id="axes_2">
   <g id="patch_8">
    <path d="M 19.830079 202.122656 
L 290 202.122656 
L 290 104.093259 
L 19.830079 104.093259 
z
" style="fill: #ffffff"/>
   </g>
   <g id="matplotlib.axis_3">
    <g id="xtick_18">
     <g id="line2d_74">
      <path d="M 31.605292 202.122656 
L 31.605292 104.093259 
" clip-path="url(#p9a45a35d7a)" style="fill: none; stroke: #b0b0b0; stroke-width: 0.5; stroke-linecap: square"/>
     </g>
     <g id="line2d_75">
      <g>
       <use xlink:href="#m55a364b985" x="31.605292" y="202.122656" style="stroke: #000000; stroke-width: 0.5"/>
      </g>
     </g>
     <g id="line2d_76">
      <g>
       <use xlink:href="#m738e438890" x="31.605292" y="104.093259" style="stroke: #000000; stroke-width: 0.5"/>
      </g>
     </g>
     <g id="text_7">
      <!-- 0 -->
      <g transform="translate(29.114625 212.541154) scale(0.1 -0.1)">
       <use xlink:href="#CMR17-30" transform="scale(0.996264)"/>
      </g>
     </g>
    </g>
    <g id="xtick_19">
     <g id="line2d_77">
      <path d="M 93.260166 202.122656 
L 93.260166 104.093259 
" clip-path="url(#p9a45a35d7a)" style="fill: none; stroke: #b0b0b0; stroke-width: 0.5; stroke-linecap: square"/>
     </g>
     <g id="line2d_78">
      <g>
       <use xlink:href="#m55a364b985" x="93.260166" y="202.122656" style="stroke: #000000; stroke-width: 0.5"/>
      </g>
     </g>
     <g id="line2d_79">
      <g>
       <use xlink:href="#m738e438890" x="93.260166" y="104.093259" style="stroke: #000000; stroke-width: 0.5"/>
      </g>
     </g>
     <g id="text_8">
      <!-- $\frac{1}{2}\pi$ -->
      <g transform="translate(87.837303 214.039518) scale(0.1 -0.1)">
       <defs>
        <path id="CMMI12-19" d="M 1658 2408 
L 2381 2408 
C 2208 1692 2099 1226 2099 716 
C 2099 626 2099 -64 2362 -64 
C 2496 -64 2611 57 2611 166 
C 2611 197 2611 210 2566 306 
C 2394 747 2394 1296 2394 1341 
C 2394 1379 2394 1832 2528 2408 
L 3245 2408 
C 3328 2408 3539 2408 3539 2612 
C 3539 2752 3418 2752 3302 2752 
L 1197 2752 
C 1050 2752 832 2752 538 2440 
C 371 2254 166 1916 166 1878 
C 166 1840 198 1827 237 1827 
C 282 1827 288 1846 320 1884 
C 653 2408 986 2408 1146 2408 
L 1510 2408 
C 1370 1929 1210 1373 685 256 
C 634 154 634 140 634 102 
C 634 -32 749 -64 806 -64 
C 992 -64 1043 102 1120 370 
C 1222 696 1222 709 1286 964 
L 1658 2408 
z
" transform="scale(0.015625)"/>
       </defs>
       <use xlink:href="#CMR17-31" transform="translate(0 39.226102) scale(0.697382)"/>
       <use xlink:href="#CMR17-32" transform="translate(0 -34.355253) scale(0.697382)"/>
       <use xlink:href="#CMMI12-19" transform="translate(33.178696 0) scale(0.996264)"/>
       <path d="M 0 22.914133 
L 31.983182 22.914133 
L 31.983182 26.899083 
L 0 26.899083 
L 0 22.914133 
z
"/>
      </g>
     </g>
    </g>
    <g id="xtick_20">
     <g id="line2d_80">
      <path d="M 154.915039 202.122656 
L 154.915039 104.093259 
" clip-path="url(#p9a45a35d7a)" style="fill: none; stroke: #b0b0b0; stroke-width: 0.5; stroke-linecap: square"/>
     </g>
     <g id="line2d_81">
      <g>
       <use xlink:href="#m55a364b985" x="154.915039" y="202.122656" style="stroke: #000000; stroke-width: 0.5"/>
      </g>
     </g>
     <g id="line2d_82">
      <g>
       <use xlink:href="#m738e438890" x="154.915039" y="104.093259" style="stroke: #000000; stroke-width: 0.5"/>
      </g>
     </g>
     <g id="text_9">
      <!-- $\pi$ -->
      <g transform="translate(152.075552 212.541154) scale(0.1 -0.1)">
       <use xlink:href="#CMMI12-19" transform="scale(0.996264)"/>
      </g>
     </g>
    </g>
    <g id="xtick_21">
     <g id="line2d_83">
      <path d="M 216.569913 202.122656 
L 216.569913 104.093259 
" clip-path="url(#p9a45a35d7a)" style="fill: none; stroke: #b0b0b0; stroke-width: 0.5; stroke-linecap: square"/>
     </g>
     <g id="line2d_84">
      <g>
       <use xlink:href="#m55a364b985" x="216.569913" y="202.122656" style="stroke: #000000; stroke-width: 0.5"/>
      </g>
     </g>
     <g id="line2d_85">
      <g>
       <use xlink:href="#m738e438890" x="216.569913" y="104.093259" style="stroke: #000000; stroke-width: 0.5"/>
      </g>
     </g>
     <g id="text_10">
      <!-- $\frac{3}{2}\pi$ -->
      <g transform="translate(211.14705 214.039518) scale(0.1 -0.1)">
       <use xlink:href="#CMR17-33" transform="translate(0 39.226102) scale(0.697382)"/>
       <use xlink:href="#CMR17-32" transform="translate(0 -34.355253) scale(0.697382)"/>
       <use xlink:href="#CMMI12-19" transform="translate(33.178696 0) scale(0.996264)"/>
       <path d="M 0 22.914133 
L 31.983182 22.914133 
L 31.983182 26.899083 
L 0 26.899083 
L 0 22.914133 
z
"/>
      </g>
     </g>
    </g>
    <g id="xtick_22">
     <g id="line2d_86">
      <path d="M 278.224787 202.122656 
L 278.224787 104.093259 
" clip-path="url(#p9a45a35d7a)" style="fill: none; stroke: #b0b0b0; stroke-width: 0.5; stroke-linecap: square"/>
     </g>
     <g id="line2d_87">
      <g>
       <use xlink:href="#m55a364b985" x="278.224787" y="202.122656" style="stroke: #000000; stroke-width: 0.5"/>
      </g>
     </g>
     <g id="line2d_88">
      <g>
       <use xlink:href="#m738e438890" x="278.224787" y="104.093259" style="stroke: #000000; stroke-width: 0.5"/>
      </g>
     </g>
     <g id="text_11">
      <!-- $2\pi$ -->
      <g transform="translate(272.894631 212.541154) scale(0.1 -0.1)">
       <use xlink:href="#CMR17-32" transform="scale(0.996264)"/>
       <use xlink:href="#CMMI12-19" transform="translate(45.690477 0) scale(0.996264)"/>
      </g>
     </g>
    </g>
    <g id="xtick_23">
     <g id="line2d_89">
      <g>
       <use xlink:href="#m9e2ef1f471" x="47.019011" y="202.122656" style="stroke: #000000; stroke-width: 0.5"/>
      </g>
     </g>
     <g id="line2d_90">
      <g>
       <use xlink:href="#m54e56519cf" x="47.019011" y="104.093259" style="stroke: #000000; stroke-width: 0.5"/>
      </g>
     </g>
    </g>
    <g id="xtick_24">
     <g id="line2d_91">
      <g>
       <use xlink:href="#m9e2ef1f471" x="62.432729" y="202.122656" style="stroke: #000000; stroke-width: 0.5"/>
      </g>
     </g>
     <g id="line2d_92">
      <g>
       <use xlink:href="#m54e56519cf" x="62.432729" y="104.093259" style="stroke: #000000; stroke-width: 0.5"/>
      </g>
     </g>
    </g>
    <g id="xtick_25">
     <g id="line2d_93">
      <g>
       <use xlink:href="#m9e2ef1f471" x="77.846448" y="202.122656" style="stroke: #000000; stroke-width: 0.5"/>
      </g>
     </g>
     <g id="line2d_94">
      <g>
       <use xlink:href="#m54e56519cf" x="77.846448" y="104.093259" style="stroke: #000000; stroke-width: 0.5"/>
      </g>
     </g>
    </g>
    <g id="xtick_26">
     <g id="line2d_95">
      <g>
       <use xlink:href="#m9e2ef1f471" x="108.673884" y="202.122656" style="stroke: #000000; stroke-width: 0.5"/>
      </g>
     </g>
     <g id="line2d_96">
      <g>
       <use xlink:href="#m54e56519cf" x="108.673884" y="104.093259" style="stroke: #000000; stroke-width: 0.5"/>
      </g>
     </g>
    </g>
    <g id="xtick_27">
     <g id="line2d_97">
      <g>
       <use xlink:href="#m9e2ef1f471" x="124.087603" y="202.122656" style="stroke: #000000; stroke-width: 0.5"/>
      </g>
     </g>
     <g id="line2d_98">
      <g>
       <use xlink:href="#m54e56519cf" x="124.087603" y="104.093259" style="stroke: #000000; stroke-width: 0.5"/>
      </g>
     </g>
    </g>
    <g id="xtick_28">
     <g id="line2d_99">
      <g>
       <use xlink:href="#m9e2ef1f471" x="139.501321" y="202.122656" style="stroke: #000000; stroke-width: 0.5"/>
      </g>
     </g>
     <g id="line2d_100">
      <g>
       <use xlink:href="#m54e56519cf" x="139.501321" y="104.093259" style="stroke: #000000; stroke-width: 0.5"/>
      </g>
     </g>
    </g>
    <g id="xtick_29">
     <g id="line2d_101">
      <g>
       <use xlink:href="#m9e2ef1f471" x="170.328758" y="202.122656" style="stroke: #000000; stroke-width: 0.5"/>
      </g>
     </g>
     <g id="line2d_102">
      <g>
       <use xlink:href="#m54e56519cf" x="170.328758" y="104.093259" style="stroke: #000000; stroke-width: 0.5"/>
      </g>
     </g>
    </g>
    <g id="xtick_30">
     <g id="line2d_103">
      <g>
       <use xlink:href="#m9e2ef1f471" x="185.742476" y="202.122656" style="stroke: #000000; stroke-width: 0.5"/>
      </g>
     </g>
     <g id="line2d_104">
      <g>
       <use xlink:href="#m54e56519cf" x="185.742476" y="104.093259" style="stroke: #000000; stroke-width: 0.5"/>
      </g>
     </g>
    </g>
    <g id="xtick_31">
     <g id="line2d_105">
      <g>
       <use xlink:href="#m9e2ef1f471" x="201.156195" y="202.122656" style="stroke: #000000; stroke-width: 0.5"/>
      </g>
     </g>
     <g id="line2d_106">
      <g>
       <use xlink:href="#m54e56519cf" x="201.156195" y="104.093259" style="stroke: #000000; stroke-width: 0.5"/>
      </g>
     </g>
    </g>
    <g id="xtick_32">
     <g id="line2d_107">
      <g>
       <use xlink:href="#m9e2ef1f471" x="231.983631" y="202.122656" style="stroke: #000000; stroke-width: 0.5"/>
      </g>
     </g>
     <g id="line2d_108">
      <g>
       <use xlink:href="#m54e56519cf" x="231.983631" y="104.093259" style="stroke: #000000; stroke-width: 0.5"/>
      </g>
     </g>
    </g>
    <g id="xtick_33">
     <g id="line2d_109">
      <g>
       <use xlink:href="#m9e2ef1f471" x="247.39735" y="202.122656" style="stroke: #000000; stroke-width: 0.5"/>
      </g>
     </g>
     <g id="line2d_110">
      <g>
       <use xlink:href="#m54e56519cf" x="247.39735" y="104.093259" style="stroke: #000000; stroke-width: 0.5"/>
      </g>
     </g>
    </g>
    <g id="xtick_34">
     <g id="line2d_111">
      <g>
       <use xlink:href="#m9e2ef1f471" x="262.811068" y="202.122656" style="stroke: #000000; stroke-width: 0.5"/>
      </g>
     </g>
     <g id="line2d_112">
      <g>
       <use xlink:href="#m54e56519cf" x="262.811068" y="104.093259" style="stroke: #000000; stroke-width: 0.5"/>
      </g>
     </g>
    </g>
   </g>
   <g id="matplotlib.axis_4">
    <g id="ytick_12">
     <g id="line2d_113">
      <path d="M 19.830079 194.723226 
L 290 194.723226 
" clip-path="url(#p9a45a35d7a)" style="fill: none; stroke: #b0b0b0; stroke-width: 0.5; stroke-linecap: square"/>
     </g>
     <g id="line2d_114">
      <g>
       <use xlink:href="#m4d6623ace2" x="19.830079" y="194.723226" style="stroke: #000000; stroke-width: 0.5"/>
      </g>
     </g>
     <g id="line2d_115">
      <g>
       <use xlink:href="#m962bec82ed" x="290" y="194.723226" style="stroke: #000000; stroke-width: 0.5"/>
      </g>
     </g>
     <g id="text_12">
      <!-- $\mathdefault{−1}$ -->
      <g transform="translate(3.6 198.182475) scale(0.1 -0.1)">
       <use xlink:href="#CMSY10-0" transform="scale(0.996264)"/>
       <use xlink:href="#CMR17-31" transform="translate(77.487468 0) scale(0.996264)"/>
      </g>
     </g>
    </g>
    <g id="ytick_13">
     <g id="line2d_116">
      <path d="M 19.830079 153.107166 
L 290 153.107166 
" clip-path="url(#p9a45a35d7a)" style="fill: none; stroke: #b0b0b0; stroke-width: 0.5; stroke-linecap: square"/>
     </g>
     <g id="line2d_117">
      <g>
       <use xlink:href="#m4d6623ace2" x="19.830079" y="153.107166" style="stroke: #000000; stroke-width: 0.5"/>
      </g>
     </g>
     <g id="line2d_118">
      <g>
       <use xlink:href="#m962bec82ed" x="290" y="153.107166" style="stroke: #000000; stroke-width: 0.5"/>
      </g>
     </g>
     <g id="text_13">
      <!-- $\mathdefault{0}$ -->
      <g transform="translate(11.348744 156.566415) scale(0.1 -0.1)">
       <use xlink:href="#CMR17-30" transform="scale(0.996264)"/>
      </g>
     </g>
    </g>
    <g id="ytick_14">
     <g id="line2d_119">
      <path d="M 19.830079 111.491107 
L 290 111.491107 
" clip-path="url(#p9a45a35d7a)" style="fill: none; stroke: #b0b0b0; stroke-width: 0.5; stroke-linecap: square"/>
     </g>
     <g id="line2d_120">
      <g>
       <use xlink:href="#m4d6623ace2" x="19.830079" y="111.491107" style="stroke: #000000; stroke-width: 0.5"/>
      </g>
     </g>
     <g id="line2d_121">
      <g>
       <use xlink:href="#m962bec82ed" x="290" y="111.491107" style="stroke: #000000; stroke-width: 0.5"/>
      </g>
     </g>
     <g id="text_14">
      <!-- $\mathdefault{1}$ -->
      <g transform="translate(11.348744 114.950356) scale(0.1 -0.1)">
       <use xlink:href="#CMR17-31" transform="scale(0.996264)"/>
      </g>
     </g>
    </g>
    <g id="ytick_15">
     <g id="line2d_122">
      <g>
       <use xlink:href="#m3e5c6e4367" x="19.830079" y="186.400014" style="stroke: #000000; stroke-width: 0.5"/>
      </g>
     </g>
     <g id="line2d_123">
      <g>
       <use xlink:href="#m8421d26bc9" x="290" y="186.400014" style="stroke: #000000; stroke-width: 0.5"/>
      </g>
     </g>
    </g>
    <g id="ytick_16">
     <g id="line2d_124">
      <g>
       <use xlink:href="#m3e5c6e4367" x="19.830079" y="178.076802" style="stroke: #000000; stroke-width: 0.5"/>
      </g>
     </g>
     <g id="line2d_125">
      <g>
       <use xlink:href="#m8421d26bc9" x="290" y="178.076802" style="stroke: #000000; stroke-width: 0.5"/>
      </g>
     </g>
    </g>
    <g id="ytick_17">
     <g id="line2d_126">
      <g>
       <use xlink:href="#m3e5c6e4367" x="19.830079" y="169.75359" style="stroke: #000000; stroke-width: 0.5"/>
      </g>
     </g>
     <g id="line2d_127">
      <g>
       <use xlink:href="#m8421d26bc9" x="290" y="169.75359" style="stroke: #000000; stroke-width: 0.5"/>
      </g>
     </g>
    </g>
    <g id="ytick_18">
     <g id="line2d_128">
      <g>
       <use xlink:href="#m3e5c6e4367" x="19.830079" y="161.430378" style="stroke: #000000; stroke-width: 0.5"/>
      </g>
     </g>
     <g id="line2d_129">
      <g>
       <use xlink:href="#m8421d26bc9" x="290" y="161.430378" style="stroke: #000000; stroke-width: 0.5"/>
      </g>
     </g>
    </g>
    <g id="ytick_19">
     <g id="line2d_130">
      <g>
       <use xlink:href="#m3e5c6e4367" x="19.830079" y="144.783954" style="stroke: #000000; stroke-width: 0.5"/>
      </g>
     </g>
     <g id="line2d_131">
      <g>
       <use xlink:href="#m8421d26bc9" x="290" y="144.783954" style="stroke: #000000; stroke-width: 0.5"/>
      </g>
     </g>
    </g>
    <g id="ytick_20">
     <g id="line2d_132">
      <g>
       <use xlink:href="#m3e5c6e4367" x="19.830079" y="136.460743" style="stroke: #000000; stroke-width: 0.5"/>
      </g>
     </g>
     <g id="line2d_133">
      <g>
       <use xlink:href="#m8421d26bc9" x="290" y="136.460743" style="stroke: #000000; stroke-width: 0.5"/>
      </g>
     </g>
    </g>
    <g id="ytick_21">
     <g id="line2d_134">
      <g>
       <use xlink:href="#m3e5c6e4367" x="19.830079" y="128.137531" style="stroke: #000000; stroke-width: 0.5"/>
      </g>
     </g>
     <g id="line2d_135">
      <g>
       <use xlink:href="#m8421d26bc9" x="290" y="128.137531" style="stroke: #000000; stroke-width: 0.5"/>
      </g>
     </g>
    </g>
    <g id="ytick_22">
     <g id="line2d_136">
      <g>
       <use xlink:href="#m3e5c6e4367" x="19.830079" y="119.814319" style="stroke: #000000; stroke-width: 0.5"/>
      </g>
     </g>
     <g id="line2d_137">
      <g>
       <use xlink:href="#m8421d26bc9" x="290" y="119.814319" style="stroke: #000000; stroke-width: 0.5"/>
      </g>
     </g>
    </g>
   </g>
   <g id="line2d_138">
    <path d="M 31.605292 202.122656 
L 31.605292 104.093259 
" clip-path="url(#p9a45a35d7a)" style="fill: none; stroke-dasharray: 1.85,0.8; stroke-dashoffset: 0; stroke: #808080; stroke-width: 0.5"/>
   </g>
   <g id="line2d_139">
    <path d="M 278.224787 202.122656 
L 278.224787 104.093259 
" clip-path="url(#p9a45a35d7a)" style="fill: none; stroke-dasharray: 1.85,0.8; stroke-dashoffset: 0; stroke: #808080; stroke-width: 0.5"/>
   </g>
   <g id="line2d_140">
    <path d="M 19.830079 153.107166 
L 290 153.107166 
" clip-path="url(#p9a45a35d7a)" style="fill: none; stroke-dasharray: 1.85,0.8; stroke-dashoffset: 0; stroke: #808080; stroke-width: 0.5"/>
   </g>
   <g id="line2d_141">
    <path d="M 19.804726 161.676012 
L 21.77834 160.043156 
L 22.765147 158.931983 
L 23.587486 157.644877 
L 24.245358 156.21518 
L 24.903229 154.214265 
L 25.5611 151.297046 
L 26.054504 148.156551 
L 26.547907 143.750376 
L 27.04131 137.49091 
L 27.699182 125.505392 
L 28.357053 112.763872 
L 28.685989 109.324684 
L 28.850456 108.65371 
L 29.014924 108.576641 
L 29.179392 108.955255 
L 29.508328 110.538247 
L 30.988538 118.858881 
L 31.810877 121.963185 
L 32.797684 124.700282 
L 33.948959 127.130859 
L 35.264701 129.360778 
L 36.744912 131.438139 
L 38.225122 133.150768 
L 39.540865 134.375746 
L 40.856607 135.305539 
L 42.007882 135.855546 
L 42.994689 136.104339 
L 43.981496 136.110429 
L 44.639367 135.926201 
L 45.297238 135.519346 
L 45.95511 134.810623 
L 46.448513 133.980274 
L 47.106384 132.328188 
L 47.599788 130.453985 
L 48.093191 127.888773 
L 48.751063 123.197274 
L 48.91553 124.995355 
L 49.573402 136.790126 
L 50.066805 141.918075 
L 50.560209 144.905336 
L 51.053612 146.725721 
L 51.547015 147.886079 
L 52.204887 148.847565 
L 52.862758 149.435988 
L 53.685097 149.892665 
L 54.836372 150.253025 
L 56.152114 150.419988 
L 57.632325 150.371787 
L 58.783599 150.135091 
L 59.770406 149.730256 
L 60.921681 148.987668 
L 62.566359 147.763264 
L 63.553166 146.882676 
L 64.375505 146.512036 
L 65.197844 146.314768 
L 66.184651 146.421698 
L 70.954218 146.876071 
L 74.408042 146.9846 
L 77.861866 146.854521 
L 83.124837 146.43932 
L 88.387807 146.099796 
L 94.14418 145.969338 
L 100.065022 146.02121 
L 104.670121 146.299784 
L 111.413301 146.769645 
L 115.196061 146.822937 
L 121.774774 146.823384 
L 122.926049 147.327166 
L 123.748388 148.070859 
L 124.735195 148.922654 
L 126.544341 150.02344 
L 127.860083 150.549804 
L 129.175826 150.821441 
L 130.656036 150.881221 
L 131.971779 150.735291 
L 133.123054 150.392103 
L 133.945393 149.942211 
L 134.603264 149.342446 
L 135.096667 148.644658 
L 135.590071 147.595198 
L 136.083474 146.030664 
L 136.576878 143.611285 
L 137.070281 139.527847 
L 137.728152 130.745284 
L 137.89262 131.04977 
L 138.550492 136.06835 
L 139.208363 138.829239 
L 139.866234 140.626208 
L 140.524105 141.867784 
L 141.346444 142.956153 
L 142.333251 143.908044 
L 145.787076 146.920337 
L 146.609415 148.067914 
L 147.267286 149.317392 
L 147.925157 151.036007 
L 148.583028 153.496244 
L 149.076432 156.100989 
L 149.569835 159.707085 
L 150.063239 164.805077 
L 150.556642 172.017421 
L 152.036853 197.117039 
L 152.20132 197.62973 
L 152.365788 197.580698 
L 152.694724 196.359715 
L 154.668338 185.84131 
L 155.490677 183.130003 
L 156.477484 180.668221 
L 157.628758 178.412979 
L 158.944501 176.299631 
L 160.424711 174.317612 
L 161.904922 172.693129 
L 163.220664 171.54982 
L 164.536407 170.708579 
L 165.687682 170.246319 
L 166.674489 170.084578 
L 167.496828 170.152442 
L 168.154699 170.396149 
L 168.81257 170.881655 
L 169.470441 171.702386 
L 169.963845 172.652591 
L 170.457248 173.984254 
L 170.950652 175.926159 
L 171.444055 178.664795 
L 171.937459 183.306376 
L 172.101927 183.261526 
L 172.430862 176.911826 
L 172.924266 168.495375 
L 173.417669 163.964695 
L 173.911073 161.261625 
L 174.568944 159.051645 
L 175.226815 157.780124 
L 175.884686 157.020042 
L 176.707025 156.443439 
L 177.693832 156.039001 
L 178.845107 155.810644 
L 180.16085 155.769873 
L 181.476592 155.944576 
L 182.627867 156.317299 
L 183.779142 156.912974 
L 185.42382 158.025879 
L 187.397434 159.623325 
L 188.548708 159.894091 
L 189.535515 159.792514 
L 193.647211 159.381152 
L 197.101035 159.231268 
L 200.390391 159.317628 
L 205.488894 159.689447 
L 210.587396 160.058233 
L 215.356963 160.213873 
L 222.100143 160.234056 
L 227.198646 159.980292 
L 235.586505 159.412249 
L 239.533732 159.407603 
L 244.96117 159.446315 
L 246.112445 158.941555 
L 246.770316 158.448164 
L 248.250527 157.169727 
L 250.717544 155.774766 
L 251.868819 155.48075 
L 253.349029 155.350677 
L 254.829239 155.436827 
L 256.144982 155.729542 
L 257.131789 156.176593 
L 257.78966 156.696267 
L 258.447531 157.562115 
L 258.940935 158.616021 
L 259.434338 160.262635 
L 259.927742 162.99265 
L 260.421145 167.509952 
L 261.079016 175.198367 
L 261.243484 174.673108 
L 261.901356 169.930537 
L 262.559227 167.273105 
L 263.217098 165.515637 
L 263.874969 164.287044 
L 264.697308 163.210694 
L 265.848583 162.131347 
L 268.809004 159.621517 
L 269.631343 158.589928 
L 270.453682 157.160568 
L 271.111553 155.546304 
L 271.769425 153.252896 
L 272.262828 150.841731 
L 272.756232 147.523956 
L 273.249635 142.853611 
L 273.743038 136.223105 
L 274.40091 123.779986 
L 275.058781 111.640065 
L 275.387717 108.907369 
L 275.552184 108.549141 
L 275.716652 108.718056 
L 276.045588 110.07564 
L 277.854734 119.894807 
L 278.677073 122.727707 
L 279.66388 125.274377 
L 280.815155 127.584209 
L 282.130897 129.734685 
L 283.611108 131.748005 
L 285.091318 133.402069 
L 286.407061 134.573209 
L 287.722803 135.445052 
L 288.874078 135.938229 
L 289.860885 136.131078 
L 290.025353 136.140334 
L 290.025353 136.140334 
" clip-path="url(#p9a45a35d7a)" style="fill: none; stroke: #4040c0; stroke-opacity: 0.8; stroke-width: 2; stroke-linecap: square"/>
   </g>
   <g id="patch_9">
    <path d="M 19.830079 202.122656 
L 19.830079 104.093259 
" style="fill: none; stroke: #000000; stroke-width: 0.5; stroke-linejoin: miter; stroke-linecap: square"/>
   </g>
   <g id="patch_10">
    <path d="M 290 202.122656 
L 290 104.093259 
" style="fill: none; stroke: #000000; stroke-width: 0.5; stroke-linejoin: miter; stroke-linecap: square"/>
   </g>
   <g id="patch_11">
    <path d="M 19.830079 202.122656 
L 290 202.122656 
" style="fill: none; stroke: #000000; stroke-width: 0.5; stroke-linejoin: miter; stroke-linecap: square"/>
   </g>
   <g id="patch_12">
    <path d="M 19.830079 104.093259 
L 290 104.093259 
" style="fill: none; stroke: #000000; stroke-width: 0.5; stroke-linejoin: miter; stroke-linecap: square"/>
   </g>
   <g id="text_15">
    <!-- $\tau$ -->
    <g transform="translate(127.898047 217.807359) scale(0.12 -0.12)">
     <defs>
      <path id="CMMI12-1c" d="M 1837 2408 
L 2899 2408 
C 2982 2408 3194 2408 3194 2612 
C 3194 2752 3072 2752 2957 2752 
L 1197 2752 
C 1050 2752 832 2752 538 2440 
C 371 2255 166 1917 166 1879 
C 166 1841 198 1828 237 1828 
C 282 1828 288 1847 320 1885 
C 653 2408 986 2408 1146 2408 
L 1677 2408 
L 1011 223 
C 979 127 979 114 979 95 
C 979 25 1024 -64 1152 -64 
C 1350 -64 1382 108 1402 203 
L 1837 2408 
z
" transform="scale(0.015625)"/>
     </defs>
     <use xlink:href="#CMMI12-1c" transform="scale(0.996264)"/>
    </g>
   </g>
   <g id="legend_2">
    <g id="patch_13">
     <path d="M 48.847071 192.319716 
L 118.071712 192.319716 
Q 120.071712 192.319716 120.071712 190.319716 
L 120.071712 175.370754 
Q 120.071712 173.370754 118.071712 173.370754 
L 48.847071 173.370754 
Q 46.847071 173.370754 46.847071 175.370754 
L 46.847071 190.319716 
Q 46.847071 192.319716 48.847071 192.319716 
z
" style="fill: #ffffff; opacity: 0.8; stroke: #ffffff; stroke-linejoin: miter"/>
    </g>
    <g id="line2d_142">
     <path d="M 50.847071 182.329056 
L 55.847071 182.329056 
L 60.847071 182.329056 
" style="fill: none; stroke: #4040c0; stroke-opacity: 0.8; stroke-width: 2; stroke-linecap: square"/>
    </g>
    <g id="text_16">
     <!-- $n^{\top}(\tau) B(\tau)$ -->
     <g transform="translate(68.847071 185.829056) scale(0.1 -0.1)">
      <defs>
       <path id="CMSY10-3e" d="M 2618 4029 
L 4403 4029 
C 4512 4029 4627 4029 4627 4157 
C 4627 4285 4512 4285 4403 4285 
L 582 4285 
C 486 4285 352 4285 352 4157 
C 352 4029 486 4029 582 4029 
L 2362 4029 
L 2362 240 
C 2362 144 2362 10 2490 10 
C 2618 10 2618 125 2618 240 
L 2618 4029 
z
" transform="scale(0.015625)"/>
       <path id="CMR17-28" d="M 1958 -1561 
C 1958 -1555 1958 -1542 1939 -1523 
C 1645 -1224 858 -407 858 1581 
C 858 3569 1632 4379 1946 4697 
C 1946 4704 1958 4717 1958 4736 
C 1958 4755 1939 4768 1914 4768 
C 1843 4768 1299 4296 986 3594 
C 666 2887 576 2199 576 1588 
C 576 1128 621 351 1005 -471 
C 1312 -1135 1837 -1600 1914 -1600 
C 1946 -1600 1958 -1587 1958 -1561 
z
" transform="scale(0.015625)"/>
       <path id="CMR17-29" d="M 1683 1581 
C 1683 2040 1638 2817 1254 3639 
C 947 4303 422 4768 346 4768 
C 326 4768 301 4761 301 4729 
C 301 4717 307 4710 314 4697 
C 621 4378 1402 3568 1402 1584 
C 1402 -407 627 -1217 314 -1537 
C 307 -1549 301 -1556 301 -1568 
C 301 -1600 326 -1600 346 -1600 
C 416 -1600 960 -1128 1274 -426 
C 1594 281 1683 969 1683 1581 
z
" transform="scale(0.015625)"/>
       <path id="CMMI12-42" d="M 2342 3921 
C 2400 4160 2426 4160 2675 4160 
L 3507 4160 
C 4230 4160 4230 3544 4230 3485 
C 4230 2966 3712 2304 2867 2304 
L 1946 2304 
L 2342 3921 
z
M 3424 2275 
C 4122 2402 4755 2886 4755 3473 
C 4755 3970 4314 4352 3590 4352 
L 1536 4352 
C 1414 4352 1357 4352 1357 4226 
C 1357 4160 1414 4160 1510 4160 
C 1901 4160 1901 4112 1901 4044 
C 1901 4032 1901 3993 1875 3897 
L 1011 472 
C 954 249 941 185 493 185 
C 371 185 307 185 307 70 
C 307 0 346 0 474 0 
L 2669 0 
C 3648 0 4403 739 4403 1383 
C 4403 1906 3942 2224 3424 2275 
z
M 2515 185 
L 1651 185 
C 1562 185 1549 185 1510 192 
C 1440 198 1434 211 1434 261 
C 1434 305 1446 343 1459 399 
L 1907 2176 
L 3110 2176 
C 3866 2176 3866 1483 3866 1433 
C 3866 828 3309 185 2515 185 
z
" transform="scale(0.015625)"/>
      </defs>
      <use xlink:href="#CMMI12-6e" transform="scale(0.996264)"/>
      <use xlink:href="#CMSY10-3e" transform="translate(58.230047 36.153639) scale(0.697382)"/>
      <use xlink:href="#CMR17-28" transform="translate(112.969173 0) scale(0.996264)"/>
      <use xlink:href="#CMMI12-1c" transform="translate(148.24994 0) scale(0.996264)"/>
      <use xlink:href="#CMR17-29" transform="translate(201.741106 0) scale(0.996264)"/>
      <use xlink:href="#CMMI12-42" transform="translate(237.021874 0) scale(0.996264)"/>
      <use xlink:href="#CMR17-28" transform="translate(316.157397 0) scale(0.996264)"/>
      <use xlink:href="#CMMI12-1c" transform="translate(351.438165 0) scale(0.996264)"/>
      <use xlink:href="#CMR17-29" transform="translate(404.92933 0) scale(0.996264)"/>
     </g>
    </g>
   </g>
  </g>
 </g>
 <defs>
  <clipPath id="p289d1ce5d8">
   <rect x="19.830079" y="3.6" width="270.169921" height="98.029397"/>
  </clipPath>
  <clipPath id="p9a45a35d7a">
   <rect x="19.830079" y="104.093259" width="270.169921" height="98.029397"/>
  </clipPath>
 </defs>
</svg>
