<?xml version="1.0" encoding="UTF-8" standalone="no"?>
<!-- Created with Inkscape (http://www.inkscape.org/) -->

<svg
   width="210mm"
   height="297mm"
   viewBox="0 0 210 297"
   version="1.1"
   id="svg1"
   inkscape:version="1.4 (e7c3feb, 2024-10-09)"
   sodipodi:docname="linear-subspaces.svg"
   xmlns:inkscape="http://www.inkscape.org/namespaces/inkscape"
   xmlns:sodipodi="http://sodipodi.sourceforge.net/DTD/sodipodi-0.dtd"
   xmlns="http://www.w3.org/2000/svg"
   xmlns:svg="http://www.w3.org/2000/svg"
   xmlns:ns2="http://www.iki.fi/pav/software/textext/">
  <sodipodi:namedview
     id="namedview1"
     pagecolor="#ffffff"
     bordercolor="#000000"
     borderopacity="0.25"
     inkscape:showpageshadow="2"
     inkscape:pageopacity="0.0"
     inkscape:pagecheckerboard="0"
     inkscape:deskcolor="#d1d1d1"
     inkscape:document-units="mm"
     inkscape:zoom="2.1398288"
     inkscape:cx="269.41407"
     inkscape:cy="232.0279"
     inkscape:window-width="3440"
     inkscape:window-height="1412"
     inkscape:window-x="0"
     inkscape:window-y="0"
     inkscape:window-maximized="1"
     inkscape:current-layer="layer1" />
  <defs
     id="defs1">
    <inkscape:path-effect
       effect="spiro"
       id="path-effect39"
       is_visible="true"
       lpeversion="1" />
    <marker
       style="overflow:visible"
       id="ConcaveTriangle"
       refX="0"
       refY="0"
       orient="auto-start-reverse"
       inkscape:stockid="Concave triangle arrow"
       markerWidth="1"
       markerHeight="1"
       viewBox="0 0 1 1"
       inkscape:isstock="true"
       inkscape:collect="always"
       preserveAspectRatio="xMidYMid">
      <path
         transform="scale(0.7)"
         d="M -2,-4 9,0 -2,4 c 2,-2.33 2,-5.66 0,-8 z"
         style="fill:context-stroke;fill-rule:evenodd;stroke:none"
         id="path7" />
    </marker>
    <marker
       style="overflow:visible"
       id="ConcaveTriangle-2"
       refX="0"
       refY="0"
       orient="auto-start-reverse"
       inkscape:stockid="Concave triangle arrow"
       markerWidth="1"
       markerHeight="1"
       viewBox="0 0 1 1"
       inkscape:isstock="true"
       inkscape:collect="always"
       preserveAspectRatio="xMidYMid">
      <path
         transform="scale(0.7)"
         d="M -2,-4 9,0 -2,4 c 2,-2.33 2,-5.66 0,-8 z"
         style="fill:context-stroke;fill-rule:evenodd;stroke:none"
         id="path7-5" />
    </marker>
    <marker
       style="overflow:visible"
       id="ConcaveTriangle-0"
       refX="0"
       refY="0"
       orient="auto-start-reverse"
       inkscape:stockid="Concave triangle arrow"
       markerWidth="1"
       markerHeight="1"
       viewBox="0 0 1 1"
       inkscape:isstock="true"
       inkscape:collect="always"
       preserveAspectRatio="xMidYMid">
      <path
         transform="scale(0.7)"
         d="M -2,-4 9,0 -2,4 c 2,-2.33 2,-5.66 0,-8 z"
         style="fill:context-stroke;fill-rule:evenodd;stroke:none"
         id="path7-7" />
    </marker>
    <marker
       style="overflow:visible"
       id="ConcaveTriangle-3"
       refX="0"
       refY="0"
       orient="auto-start-reverse"
       inkscape:stockid="Concave triangle arrow"
       markerWidth="1"
       markerHeight="1"
       viewBox="0 0 1 1"
       inkscape:isstock="true"
       inkscape:collect="always"
       preserveAspectRatio="xMidYMid">
      <path
         transform="scale(0.7)"
         d="M -2,-4 9,0 -2,4 c 2,-2.33 2,-5.66 0,-8 z"
         style="fill:context-stroke;fill-rule:evenodd;stroke:none"
         id="path7-1" />
    </marker>
    <marker
       style="overflow:visible"
       id="ConcaveTriangle-2-4"
       refX="0"
       refY="0"
       orient="auto-start-reverse"
       inkscape:stockid="Concave triangle arrow"
       markerWidth="1"
       markerHeight="1"
       viewBox="0 0 1 1"
       inkscape:isstock="true"
       inkscape:collect="always"
       preserveAspectRatio="xMidYMid">
      <path
         transform="scale(0.7)"
         d="M -2,-4 9,0 -2,4 c 2,-2.33 2,-5.66 0,-8 z"
         style="fill:context-stroke;fill-rule:evenodd;stroke:none"
         id="path7-5-9" />
    </marker>
    <marker
       style="overflow:visible"
       id="ConcaveTriangle-0-2"
       refX="0"
       refY="0"
       orient="auto-start-reverse"
       inkscape:stockid="Concave triangle arrow"
       markerWidth="1"
       markerHeight="1"
       viewBox="0 0 1 1"
       inkscape:isstock="true"
       inkscape:collect="always"
       preserveAspectRatio="xMidYMid">
      <path
         transform="scale(0.7)"
         d="M -2,-4 9,0 -2,4 c 2,-2.33 2,-5.66 0,-8 z"
         style="fill:context-stroke;fill-rule:evenodd;stroke:none"
         id="path7-7-0" />
    </marker>
    <g
       id="id-fafc7aed-24b2-4824-b103-e763e2eea62e-6">
      <symbol
         overflow="visible"
         id="id-948f42d9-5786-4448-8721-6a4f0ead72fd-4">
        <path
           style="stroke:none;stroke-width:0"
           d=""
           id="id-5f375e71-ca61-4588-b7d9-a9f7ca0aa5cb-9" />
      </symbol>
      <symbol
         overflow="visible"
         id="id-83351824-a0f4-4bd8-8d4b-a94dcd2f5693-5">
        <path
           style="stroke:none;stroke-width:0"
           d="m 1.859375,-2.296875 c 0.296875,0 1.03125,-0.03125 1.53125,-0.234375 0.703125,-0.296875 0.75,-0.890625 0.75,-1.03125 0,-0.4375 -0.375,-0.84375 -1.0625,-0.84375 -1.109375,0 -2.625,0.96875 -2.625,2.71875 0,1.015625 0.59375,1.796875 1.578125,1.796875 1.421875,0 2.25,-1.0625 2.25,-1.171875 0,-0.0625 -0.046875,-0.140625 -0.109375,-0.140625 -0.0625,0 -0.078125,0.03125 -0.140625,0.109375 -0.78125,0.984375 -1.875,0.984375 -1.984375,0.984375 -0.78125,0 -0.875,-0.84375 -0.875,-1.15625 0,-0.125 0.015625,-0.421875 0.15625,-1.03125 z m -0.46875,-0.21875 C 1.78125,-4.03125 2.8125,-4.1875 3.078125,-4.1875 c 0.453125,0 0.734375,0.296875 0.734375,0.625 0,1.046875 -1.59375,1.046875 -2.015625,1.046875 z m 0,0"
           id="id-7234c219-4af3-47d0-af60-1b9aafde3a44-0" />
      </symbol>
      <symbol
         overflow="visible"
         id="id-3613fec2-23e4-46be-9eef-9fdd4bad95c2-4">
        <path
           style="stroke:none;stroke-width:0"
           d="m 2.9375,-3.71875 h 1.671875 c 0.125,0 0.484375,0 0.484375,-0.34375 0,-0.234375 -0.203125,-0.234375 -0.40625,-0.234375 H 1.90625 c -0.203125,0 -0.59375,0 -1.03125,0.46875 -0.328125,0.359375 -0.609375,0.84375 -0.609375,0.890625 0,0.015625 0,0.109375 0.125,0.109375 0.078125,0 0.09375,-0.046875 0.15625,-0.125 C 1.03125,-3.71875 1.609375,-3.71875 1.8125,-3.71875 h 0.828125 l -0.96875,3.203125 C 1.625,-0.40625 1.5625,-0.1875 1.5625,-0.15625 c 0,0.109375 0.078125,0.28125 0.296875,0.28125 0.328125,0 0.375,-0.28125 0.40625,-0.4375 z m 0,0"
           id="id-2553866f-b6fd-4393-b37d-01ddbefd86ec-8" />
      </symbol>
      <symbol
         overflow="visible"
         id="id-7323dde9-f59d-4aeb-84a6-6fa5322de64a-7">
        <path
           style="stroke:none;stroke-width:0"
           d=""
           id="id-b0a83bb3-d99f-4137-9be3-7c6ca31638be-1" />
      </symbol>
      <symbol
         overflow="visible"
         id="id-4ef5db60-4733-4d3a-86a2-102d02b2157b-7">
        <path
           style="stroke:none;stroke-width:0"
           d="m 2.328125,-4.4375 c 0,-0.1875 0,-0.1875 -0.203125,-0.1875 -0.453125,0.4375 -1.078125,0.4375 -1.359375,0.4375 v 0.25 c 0.15625,0 0.625,0 1,-0.1875 v 3.546875 c 0,0.234375 0,0.328125 -0.6875,0.328125 H 0.8125 V 0 c 0.125,0 0.984375,-0.03125 1.234375,-0.03125 0.21875,0 1.09375,0.03125 1.25,0.03125 V -0.25 H 3.03125 c -0.703125,0 -0.703125,-0.09375 -0.703125,-0.328125 z m 0,0"
           id="id-2ef0522c-8dab-4a69-84eb-b1a613065638-2" />
      </symbol>
      <symbol
         overflow="visible"
         id="id-072c8a3c-8032-49a2-8517-3881c1311941-7">
        <path
           style="stroke:none;stroke-width:0"
           d=""
           id="id-240a9b84-be5f-49b5-a6b1-1414ba77e762-2" />
      </symbol>
      <symbol
         overflow="visible"
         id="id-2aac6632-2c54-44db-be13-b5eb94b4f61d-2">
        <path
           style="stroke:none;stroke-width:0"
           d="m 3.296875,2.390625 c 0,-0.03125 0,-0.046875 -0.171875,-0.21875 C 1.890625,0.921875 1.5625,-0.96875 1.5625,-2.5 c 0,-1.734375 0.375,-3.46875 1.609375,-4.703125 0.125,-0.125 0.125,-0.140625 0.125,-0.171875 0,-0.078125 -0.03125,-0.109375 -0.09375,-0.109375 -0.109375,0 -1,0.6875 -1.59375,1.953125 -0.5,1.09375 -0.625,2.203125 -0.625,3.03125 0,0.78125 0.109375,1.984375 0.65625,3.125 C 2.25,1.84375 3.09375,2.5 3.203125,2.5 c 0.0625,0 0.09375,-0.03125 0.09375,-0.109375 z m 0,0"
           id="id-dd04eb6c-206e-40fd-8ba1-f46b1c2e2e66-6" />
      </symbol>
      <symbol
         overflow="visible"
         id="id-e311a404-d707-49ad-989a-208b294363c5-1">
        <path
           style="stroke:none;stroke-width:0"
           d="m 2.875,-2.5 c 0,-0.765625 -0.109375,-1.96875 -0.65625,-3.109375 -0.59375,-1.21875 -1.453125,-1.875 -1.546875,-1.875 -0.0625,0 -0.109375,0.046875 -0.109375,0.109375 0,0.03125 0,0.046875 0.1875,0.234375 0.984375,0.984375 1.546875,2.5625 1.546875,4.640625 0,1.71875 -0.359375,3.46875 -1.59375,4.71875 C 0.5625,2.34375 0.5625,2.359375 0.5625,2.390625 0.5625,2.453125 0.609375,2.5 0.671875,2.5 0.765625,2.5 1.671875,1.8125 2.25,0.546875 2.765625,-0.546875 2.875,-1.65625 2.875,-2.5 Z m 0,0"
           id="id-e0b34404-c510-4fd6-8673-9223bf06b016-0" />
      </symbol>
    </g>
    <g
       id="id-4cd2a783-74f6-4bb2-9c41-e62a7c0442e4-6">
      <symbol
         overflow="visible"
         id="id-59da7136-8bed-44ad-b095-1cb4cbf06f38-7">
        <path
           style="stroke:none;stroke-width:0"
           d=""
           id="id-5b2022ef-9c6a-481a-95de-4116a3bd7867-3" />
      </symbol>
      <symbol
         overflow="visible"
         id="id-82e621e8-ed31-4fed-84bb-8aa5436eb0b8-6">
        <path
           style="stroke:none;stroke-width:0"
           d="m 1.859375,-2.296875 c 0.296875,0 1.03125,-0.03125 1.53125,-0.234375 0.703125,-0.296875 0.75,-0.890625 0.75,-1.03125 0,-0.4375 -0.375,-0.84375 -1.0625,-0.84375 -1.109375,0 -2.625,0.96875 -2.625,2.71875 0,1.015625 0.59375,1.796875 1.578125,1.796875 1.421875,0 2.25,-1.0625 2.25,-1.171875 0,-0.0625 -0.046875,-0.140625 -0.109375,-0.140625 -0.0625,0 -0.078125,0.03125 -0.140625,0.109375 -0.78125,0.984375 -1.875,0.984375 -1.984375,0.984375 -0.78125,0 -0.875,-0.84375 -0.875,-1.15625 0,-0.125 0.015625,-0.421875 0.15625,-1.03125 z m -0.46875,-0.21875 C 1.78125,-4.03125 2.8125,-4.1875 3.078125,-4.1875 c 0.453125,0 0.734375,0.296875 0.734375,0.625 0,1.046875 -1.59375,1.046875 -2.015625,1.046875 z m 0,0"
           id="id-3a912a96-0e5e-4b93-9384-193fc23b1257-5" />
      </symbol>
      <symbol
         overflow="visible"
         id="id-a27c4395-b6e7-4865-be3d-f0c71c9cbc7c-6">
        <path
           style="stroke:none;stroke-width:0"
           d="m 2.9375,-3.71875 h 1.671875 c 0.125,0 0.484375,0 0.484375,-0.34375 0,-0.234375 -0.203125,-0.234375 -0.40625,-0.234375 H 1.90625 c -0.203125,0 -0.59375,0 -1.03125,0.46875 -0.328125,0.359375 -0.609375,0.84375 -0.609375,0.890625 0,0.015625 0,0.109375 0.125,0.109375 0.078125,0 0.09375,-0.046875 0.15625,-0.125 C 1.03125,-3.71875 1.609375,-3.71875 1.8125,-3.71875 h 0.828125 l -0.96875,3.203125 C 1.625,-0.40625 1.5625,-0.1875 1.5625,-0.15625 c 0,0.109375 0.078125,0.28125 0.296875,0.28125 0.328125,0 0.375,-0.28125 0.40625,-0.4375 z m 0,0"
           id="id-94a3d4f4-b9da-4e91-bab1-c39c16e8a3d8-3" />
      </symbol>
      <symbol
         overflow="visible"
         id="id-39f72c4c-cea0-4c02-9f6a-edf0279a717f-9">
        <path
           style="stroke:none;stroke-width:0"
           d=""
           id="id-f0b790be-ea17-4848-9d64-199af500b7dc-4" />
      </symbol>
      <symbol
         overflow="visible"
         id="id-bf908e50-7354-4df2-8a11-202fcd1671d0-8">
        <path
           style="stroke:none;stroke-width:0"
           d="M 3.515625,-1.265625 H 3.28125 c -0.015625,0.15625 -0.09375,0.5625 -0.1875,0.625 C 3.046875,-0.59375 2.515625,-0.59375 2.40625,-0.59375 H 1.125 c 0.734375,-0.640625 0.984375,-0.84375 1.390625,-1.171875 0.515625,-0.40625 1,-0.84375 1,-1.5 0,-0.84375 -0.734375,-1.359375 -1.625,-1.359375 -0.859375,0 -1.453125,0.609375 -1.453125,1.25 0,0.34375 0.296875,0.390625 0.375,0.390625 0.15625,0 0.359375,-0.125 0.359375,-0.375 0,-0.125 -0.046875,-0.375 -0.40625,-0.375 C 0.984375,-4.21875 1.453125,-4.375 1.78125,-4.375 c 0.703125,0 1.0625,0.546875 1.0625,1.109375 0,0.609375 -0.4375,1.078125 -0.65625,1.328125 L 0.515625,-0.265625 C 0.4375,-0.203125 0.4375,-0.1875 0.4375,0 h 2.875 z m 0,0"
           id="id-404fab08-e6d6-4776-925e-e166d181991d-1" />
      </symbol>
      <symbol
         overflow="visible"
         id="id-b87898cd-2674-4b76-8256-2a32126b771f-2">
        <path
           style="stroke:none;stroke-width:0"
           d=""
           id="id-74fb9103-e480-45c7-9e20-2af796fee2f6-9" />
      </symbol>
      <symbol
         overflow="visible"
         id="id-cf92fa7c-c09a-4105-b8ca-e7cc90bb5b29-3">
        <path
           style="stroke:none;stroke-width:0"
           d="m 3.296875,2.390625 c 0,-0.03125 0,-0.046875 -0.171875,-0.21875 C 1.890625,0.921875 1.5625,-0.96875 1.5625,-2.5 c 0,-1.734375 0.375,-3.46875 1.609375,-4.703125 0.125,-0.125 0.125,-0.140625 0.125,-0.171875 0,-0.078125 -0.03125,-0.109375 -0.09375,-0.109375 -0.109375,0 -1,0.6875 -1.59375,1.953125 -0.5,1.09375 -0.625,2.203125 -0.625,3.03125 0,0.78125 0.109375,1.984375 0.65625,3.125 C 2.25,1.84375 3.09375,2.5 3.203125,2.5 c 0.0625,0 0.09375,-0.03125 0.09375,-0.109375 z m 0,0"
           id="id-fb00b488-30e3-4682-8e9b-92cc6030622a-9" />
      </symbol>
      <symbol
         overflow="visible"
         id="id-3c3df1c2-a93d-456f-8a01-167077e5f3f3-0">
        <path
           style="stroke:none;stroke-width:0"
           d="m 2.875,-2.5 c 0,-0.765625 -0.109375,-1.96875 -0.65625,-3.109375 -0.59375,-1.21875 -1.453125,-1.875 -1.546875,-1.875 -0.0625,0 -0.109375,0.046875 -0.109375,0.109375 0,0.03125 0,0.046875 0.1875,0.234375 0.984375,0.984375 1.546875,2.5625 1.546875,4.640625 0,1.71875 -0.359375,3.46875 -1.59375,4.71875 C 0.5625,2.34375 0.5625,2.359375 0.5625,2.390625 0.5625,2.453125 0.609375,2.5 0.671875,2.5 0.765625,2.5 1.671875,1.8125 2.25,0.546875 2.765625,-0.546875 2.875,-1.65625 2.875,-2.5 Z m 0,0"
           id="id-dac017f8-bc5d-4955-9656-0ee7aeff4fb3-8" />
      </symbol>
    </g>
    <g
       id="id-53c959bf-c529-4e19-9a0e-6fe3e8e07240-4">
      <symbol
         overflow="visible"
         id="id-3bd95f78-09bc-4a3c-b607-9db638ac364a-4">
        <path
           style="stroke:none;stroke-width:0"
           d=""
           id="id-5b8f1b58-5ed6-4333-b9a9-cea89d03f828-4" />
      </symbol>
      <symbol
         overflow="visible"
         id="id-00db41f2-e422-4c51-9577-c463e888ed29-7">
        <path
           style="stroke:none;stroke-width:0"
           d="m 0.875,-0.59375 c -0.03125,0.15625 -0.09375,0.390625 -0.09375,0.4375 0,0.171875 0.140625,0.265625 0.296875,0.265625 0.125,0 0.296875,-0.078125 0.375,-0.28125 0,-0.015625 0.125,-0.484375 0.1875,-0.734375 l 0.21875,-0.890625 C 1.90625,-2.03125 1.96875,-2.25 2.03125,-2.46875 c 0.03125,-0.171875 0.109375,-0.46875 0.125,-0.5 0.140625,-0.3125 0.671875,-1.21875 1.625,-1.21875 0.453125,0 0.53125,0.375 0.53125,0.703125 0,0.609375 -0.484375,1.890625 -0.640625,2.3125 C 3.578125,-0.9375 3.5625,-0.8125 3.5625,-0.703125 c 0,0.46875 0.359375,0.8125 0.828125,0.8125 0.9375,0 1.296875,-1.453125 1.296875,-1.53125 0,-0.109375 -0.078125,-0.109375 -0.109375,-0.109375 -0.109375,0 -0.109375,0.03125 -0.15625,0.1875 -0.203125,0.671875 -0.53125,1.234375 -1.015625,1.234375 -0.171875,0 -0.234375,-0.09375 -0.234375,-0.328125 0,-0.25 0.078125,-0.484375 0.171875,-0.703125 0.1875,-0.53125 0.609375,-1.625 0.609375,-2.203125 0,-0.65625 -0.421875,-1.0625 -1.140625,-1.0625 -0.90625,0 -1.390625,0.640625 -1.5625,0.875 -0.046875,-0.5625 -0.453125,-0.875 -0.921875,-0.875 -0.453125,0 -0.640625,0.390625 -0.734375,0.5625 C 0.421875,-3.5 0.296875,-2.90625 0.296875,-2.875 c 0,0.109375 0.09375,0.109375 0.109375,0.109375 0.109375,0 0.109375,-0.015625 0.171875,-0.234375 0.171875,-0.703125 0.375,-1.1875 0.734375,-1.1875 0.1875,0 0.296875,0.125 0.296875,0.453125 0,0.21875 -0.03125,0.328125 -0.15625,0.84375 z m 0,0"
           id="id-6613974c-3663-43b4-8983-097d34c6d269-6" />
      </symbol>
      <symbol
         overflow="visible"
         id="id-1d2463f8-7984-4f0e-9677-30b6bb3d1cbc-3">
        <path
           style="stroke:none;stroke-width:0"
           d="m 2.9375,-3.71875 h 1.671875 c 0.125,0 0.484375,0 0.484375,-0.34375 0,-0.234375 -0.203125,-0.234375 -0.40625,-0.234375 H 1.90625 c -0.203125,0 -0.59375,0 -1.03125,0.46875 -0.328125,0.359375 -0.609375,0.84375 -0.609375,0.890625 0,0.015625 0,0.109375 0.125,0.109375 0.078125,0 0.09375,-0.046875 0.15625,-0.125 C 1.03125,-3.71875 1.609375,-3.71875 1.8125,-3.71875 h 0.828125 l -0.96875,3.203125 C 1.625,-0.40625 1.5625,-0.1875 1.5625,-0.15625 c 0,0.109375 0.078125,0.28125 0.296875,0.28125 0.328125,0 0.375,-0.28125 0.40625,-0.4375 z m 0,0"
           id="id-d6116fbe-9399-462c-b861-e232d7ae1473-1" />
      </symbol>
      <symbol
         overflow="visible"
         id="id-f1723640-7e05-4b0d-8477-c2bd7dc03071-7">
        <path
           style="stroke:none;stroke-width:0"
           d=""
           id="id-790b5c9c-47c9-4208-a5e3-9c605e578e01-5" />
      </symbol>
      <symbol
         overflow="visible"
         id="id-777effab-fe46-4178-aa14-23823a3ac8c4-9">
        <path
           style="stroke:none;stroke-width:0"
           d="m 3.296875,2.390625 c 0,-0.03125 0,-0.046875 -0.171875,-0.21875 C 1.890625,0.921875 1.5625,-0.96875 1.5625,-2.5 c 0,-1.734375 0.375,-3.46875 1.609375,-4.703125 0.125,-0.125 0.125,-0.140625 0.125,-0.171875 0,-0.078125 -0.03125,-0.109375 -0.09375,-0.109375 -0.109375,0 -1,0.6875 -1.59375,1.953125 -0.5,1.09375 -0.625,2.203125 -0.625,3.03125 0,0.78125 0.109375,1.984375 0.65625,3.125 C 2.25,1.84375 3.09375,2.5 3.203125,2.5 c 0.0625,0 0.09375,-0.03125 0.09375,-0.109375 z m 0,0"
           id="id-4f7ea246-20a4-4340-abcf-cd60045885e3-6" />
      </symbol>
      <symbol
         overflow="visible"
         id="id-725d059d-715a-4d13-89f3-dd902ec68fe7-2">
        <path
           style="stroke:none;stroke-width:0"
           d="m 2.875,-2.5 c 0,-0.765625 -0.109375,-1.96875 -0.65625,-3.109375 -0.59375,-1.21875 -1.453125,-1.875 -1.546875,-1.875 -0.0625,0 -0.109375,0.046875 -0.109375,0.109375 0,0.03125 0,0.046875 0.1875,0.234375 0.984375,0.984375 1.546875,2.5625 1.546875,4.640625 0,1.71875 -0.359375,3.46875 -1.59375,4.71875 C 0.5625,2.34375 0.5625,2.359375 0.5625,2.390625 0.5625,2.453125 0.609375,2.5 0.671875,2.5 0.765625,2.5 1.671875,1.8125 2.25,0.546875 2.765625,-0.546875 2.875,-1.65625 2.875,-2.5 Z m 0,0"
           id="id-86878c7b-3162-48c7-ae14-6e4943a94c77-1" />
      </symbol>
    </g>
    <marker
       style="overflow:visible"
       id="ConcaveTriangle-3-3"
       refX="0"
       refY="0"
       orient="auto-start-reverse"
       inkscape:stockid="Concave triangle arrow"
       markerWidth="1"
       markerHeight="1"
       viewBox="0 0 1 1"
       inkscape:isstock="true"
       inkscape:collect="always"
       preserveAspectRatio="xMidYMid">
      <path
         transform="scale(0.7)"
         d="M -2,-4 9,0 -2,4 c 2,-2.33 2,-5.66 0,-8 z"
         style="fill:context-stroke;fill-rule:evenodd;stroke:none"
         id="path7-1-3" />
    </marker>
    <marker
       style="overflow:visible"
       id="ConcaveTriangle-2-4-3"
       refX="0"
       refY="0"
       orient="auto-start-reverse"
       inkscape:stockid="Concave triangle arrow"
       markerWidth="1"
       markerHeight="1"
       viewBox="0 0 1 1"
       inkscape:isstock="true"
       inkscape:collect="always"
       preserveAspectRatio="xMidYMid">
      <path
         transform="scale(0.7)"
         d="M -2,-4 9,0 -2,4 c 2,-2.33 2,-5.66 0,-8 z"
         style="fill:context-stroke;fill-rule:evenodd;stroke:none"
         id="path7-5-9-8" />
    </marker>
    <marker
       style="overflow:visible"
       id="ConcaveTriangle-0-2-6"
       refX="0"
       refY="0"
       orient="auto-start-reverse"
       inkscape:stockid="Concave triangle arrow"
       markerWidth="1"
       markerHeight="1"
       viewBox="0 0 1 1"
       inkscape:isstock="true"
       inkscape:collect="always"
       preserveAspectRatio="xMidYMid">
      <path
         transform="scale(0.7)"
         d="M -2,-4 9,0 -2,4 c 2,-2.33 2,-5.66 0,-8 z"
         style="fill:context-stroke;fill-rule:evenodd;stroke:none"
         id="path7-7-0-0" />
    </marker>
    <g
       id="id-53c959bf-c529-4e19-9a0e-6fe3e8e07240-0">
      <symbol
         overflow="visible"
         id="id-3bd95f78-09bc-4a3c-b607-9db638ac364a-8">
        <path
           style="stroke:none;stroke-width:0"
           d=""
           id="id-5b8f1b58-5ed6-4333-b9a9-cea89d03f828-5" />
      </symbol>
      <symbol
         overflow="visible"
         id="id-00db41f2-e422-4c51-9577-c463e888ed29-0">
        <path
           style="stroke:none;stroke-width:0"
           d="m 0.875,-0.59375 c -0.03125,0.15625 -0.09375,0.390625 -0.09375,0.4375 0,0.171875 0.140625,0.265625 0.296875,0.265625 0.125,0 0.296875,-0.078125 0.375,-0.28125 0,-0.015625 0.125,-0.484375 0.1875,-0.734375 l 0.21875,-0.890625 C 1.90625,-2.03125 1.96875,-2.25 2.03125,-2.46875 c 0.03125,-0.171875 0.109375,-0.46875 0.125,-0.5 0.140625,-0.3125 0.671875,-1.21875 1.625,-1.21875 0.453125,0 0.53125,0.375 0.53125,0.703125 0,0.609375 -0.484375,1.890625 -0.640625,2.3125 C 3.578125,-0.9375 3.5625,-0.8125 3.5625,-0.703125 c 0,0.46875 0.359375,0.8125 0.828125,0.8125 0.9375,0 1.296875,-1.453125 1.296875,-1.53125 0,-0.109375 -0.078125,-0.109375 -0.109375,-0.109375 -0.109375,0 -0.109375,0.03125 -0.15625,0.1875 -0.203125,0.671875 -0.53125,1.234375 -1.015625,1.234375 -0.171875,0 -0.234375,-0.09375 -0.234375,-0.328125 0,-0.25 0.078125,-0.484375 0.171875,-0.703125 0.1875,-0.53125 0.609375,-1.625 0.609375,-2.203125 0,-0.65625 -0.421875,-1.0625 -1.140625,-1.0625 -0.90625,0 -1.390625,0.640625 -1.5625,0.875 -0.046875,-0.5625 -0.453125,-0.875 -0.921875,-0.875 -0.453125,0 -0.640625,0.390625 -0.734375,0.5625 C 0.421875,-3.5 0.296875,-2.90625 0.296875,-2.875 c 0,0.109375 0.09375,0.109375 0.109375,0.109375 0.109375,0 0.109375,-0.015625 0.171875,-0.234375 0.171875,-0.703125 0.375,-1.1875 0.734375,-1.1875 0.1875,0 0.296875,0.125 0.296875,0.453125 0,0.21875 -0.03125,0.328125 -0.15625,0.84375 z m 0,0"
           id="id-6613974c-3663-43b4-8983-097d34c6d269-64" />
      </symbol>
      <symbol
         overflow="visible"
         id="id-1d2463f8-7984-4f0e-9677-30b6bb3d1cbc-6">
        <path
           style="stroke:none;stroke-width:0"
           d="m 2.9375,-3.71875 h 1.671875 c 0.125,0 0.484375,0 0.484375,-0.34375 0,-0.234375 -0.203125,-0.234375 -0.40625,-0.234375 H 1.90625 c -0.203125,0 -0.59375,0 -1.03125,0.46875 -0.328125,0.359375 -0.609375,0.84375 -0.609375,0.890625 0,0.015625 0,0.109375 0.125,0.109375 0.078125,0 0.09375,-0.046875 0.15625,-0.125 C 1.03125,-3.71875 1.609375,-3.71875 1.8125,-3.71875 h 0.828125 l -0.96875,3.203125 C 1.625,-0.40625 1.5625,-0.1875 1.5625,-0.15625 c 0,0.109375 0.078125,0.28125 0.296875,0.28125 0.328125,0 0.375,-0.28125 0.40625,-0.4375 z m 0,0"
           id="id-d6116fbe-9399-462c-b861-e232d7ae1473-2" />
      </symbol>
      <symbol
         overflow="visible"
         id="id-f1723640-7e05-4b0d-8477-c2bd7dc03071-5">
        <path
           style="stroke:none;stroke-width:0"
           d=""
           id="id-790b5c9c-47c9-4208-a5e3-9c605e578e01-8" />
      </symbol>
      <symbol
         overflow="visible"
         id="id-777effab-fe46-4178-aa14-23823a3ac8c4-6">
        <path
           style="stroke:none;stroke-width:0"
           d="m 3.296875,2.390625 c 0,-0.03125 0,-0.046875 -0.171875,-0.21875 C 1.890625,0.921875 1.5625,-0.96875 1.5625,-2.5 c 0,-1.734375 0.375,-3.46875 1.609375,-4.703125 0.125,-0.125 0.125,-0.140625 0.125,-0.171875 0,-0.078125 -0.03125,-0.109375 -0.09375,-0.109375 -0.109375,0 -1,0.6875 -1.59375,1.953125 -0.5,1.09375 -0.625,2.203125 -0.625,3.03125 0,0.78125 0.109375,1.984375 0.65625,3.125 C 2.25,1.84375 3.09375,2.5 3.203125,2.5 c 0.0625,0 0.09375,-0.03125 0.09375,-0.109375 z m 0,0"
           id="id-4f7ea246-20a4-4340-abcf-cd60045885e3-2" />
      </symbol>
      <symbol
         overflow="visible"
         id="id-725d059d-715a-4d13-89f3-dd902ec68fe7-8">
        <path
           style="stroke:none;stroke-width:0"
           d="m 2.875,-2.5 c 0,-0.765625 -0.109375,-1.96875 -0.65625,-3.109375 -0.59375,-1.21875 -1.453125,-1.875 -1.546875,-1.875 -0.0625,0 -0.109375,0.046875 -0.109375,0.109375 0,0.03125 0,0.046875 0.1875,0.234375 0.984375,0.984375 1.546875,2.5625 1.546875,4.640625 0,1.71875 -0.359375,3.46875 -1.59375,4.71875 C 0.5625,2.34375 0.5625,2.359375 0.5625,2.390625 0.5625,2.453125 0.609375,2.5 0.671875,2.5 0.765625,2.5 1.671875,1.8125 2.25,0.546875 2.765625,-0.546875 2.875,-1.65625 2.875,-2.5 Z m 0,0"
           id="id-86878c7b-3162-48c7-ae14-6e4943a94c77-4" />
      </symbol>
    </g>
    <filter
       style="color-interpolation-filters:sRGB;"
       inkscape:label="Drop Shadow"
       id="filter59"
       x="-0.037960993"
       y="-0.048075118"
       width="1.064757"
       height="1.1161815">
      <feFlood
         result="flood"
         in="SourceGraphic"
         flood-opacity="0.498039"
         flood-color="rgb(0,0,0)"
         id="feFlood58" />
      <feGaussianBlur
         result="blur"
         in="SourceGraphic"
         stdDeviation="0.100000"
         id="feGaussianBlur58" />
      <feOffset
         result="offset"
         in="blur"
         dx="-0.100000"
         dy="0.100000"
         id="feOffset58" />
      <feComposite
         result="comp1"
         operator="in"
         in="flood"
         in2="offset"
         id="feComposite58" />
      <feComposite
         result="fbSourceGraphic"
         operator="over"
         in="SourceGraphic"
         in2="comp1"
         id="feComposite59" />
      <feColorMatrix
         result="fbSourceGraphicAlpha"
         in="fbSourceGraphic"
         values="0 0 0 -1 0 0 0 0 -1 0 0 0 0 -1 0 0 0 0 1 0"
         id="feColorMatrix59" />
      <feFlood
         id="feFlood59"
         result="flood"
         in="fbSourceGraphic"
         flood-opacity="0.498039"
         flood-color="rgb(0,0,0)" />
      <feGaussianBlur
         id="feGaussianBlur59"
         result="blur"
         in="fbSourceGraphic"
         stdDeviation="0.100000" />
      <feOffset
         id="feOffset59"
         result="offset"
         in="blur"
         dx="-0.100000"
         dy="0.100000" />
      <feComposite
         id="feComposite60"
         result="comp1"
         operator="in"
         in="flood"
         in2="offset" />
      <feComposite
         id="feComposite61"
         result="comp2"
         operator="over"
         in="fbSourceGraphic"
         in2="comp1" />
    </filter>
    <filter
       style="color-interpolation-filters:sRGB;"
       inkscape:label="Drop Shadow"
       id="filter63"
       x="-0.016278945"
       y="-0.024037559"
       width="1.02777"
       height="1.0580908">
      <feFlood
         result="flood"
         in="SourceGraphic"
         flood-opacity="0.498039"
         flood-color="rgb(0,0,0)"
         id="feFlood61" />
      <feGaussianBlur
         result="blur"
         in="SourceGraphic"
         stdDeviation="0.100000"
         id="feGaussianBlur61" />
      <feOffset
         result="offset"
         in="blur"
         dx="-0.100000"
         dy="0.100000"
         id="feOffset61" />
      <feComposite
         result="comp1"
         operator="in"
         in="flood"
         in2="offset"
         id="feComposite62" />
      <feComposite
         result="comp2"
         operator="over"
         in="SourceGraphic"
         in2="comp1"
         id="feComposite63" />
    </filter>
    <filter
       style="color-interpolation-filters:sRGB;"
       inkscape:label="Drop Shadow"
       id="filter65"
       x="-0.016278945"
       y="-0.024037559"
       width="1.02777"
       height="1.0580908">
      <feFlood
         result="flood"
         in="SourceGraphic"
         flood-opacity="0.498039"
         flood-color="rgb(0,0,0)"
         id="feFlood63" />
      <feGaussianBlur
         result="blur"
         in="SourceGraphic"
         stdDeviation="0.100000"
         id="feGaussianBlur63" />
      <feOffset
         result="offset"
         in="blur"
         dx="-0.100000"
         dy="0.100000"
         id="feOffset63" />
      <feComposite
         result="comp1"
         operator="in"
         in="flood"
         in2="offset"
         id="feComposite64" />
      <feComposite
         result="comp2"
         operator="over"
         in="SourceGraphic"
         in2="comp1"
         id="feComposite65" />
    </filter>
  </defs>
  <g
     inkscape:label="Layer 1"
     inkscape:groupmode="layer"
     id="layer1">
    <path
       style="fill:none;fill-opacity:0.117647;stroke:#000000;stroke-width:0.8;stroke-miterlimit:3;stroke-dasharray:none;stroke-opacity:0.897213"
       d="m 13.47752,26.985948 c 2.412005,17.575681 13.756517,33.688694 29.489799,41.88541 5.228475,2.723928 10.961249,4.6244 16.850536,4.894662 4.818403,0.221119 9.611551,-0.645146 14.370321,-1.432549 9.840409,-1.628229 19.733205,-2.932852 29.651484,-3.987614 9.64467,-1.025665 19.3914,-1.814496 29.02747,-0.710971 7.70166,0.881995 15.25189,2.96518 22.98986,3.431204 7.14017,0.43002 14.46707,-0.573908 20.89634,-3.709408 4.2586,-2.076884 8.02158,-5.026407 12.05558,-7.511554 2.95378,-1.819677 6.05921,-3.393098 9.27352,-4.698582"
       id="path39"
       inkscape:path-effect="#path-effect39"
       inkscape:original-d="m 13.47752,26.985948 c 6.377232,6.646659 18.535232,38.514771 29.489799,41.88541 2.92921,0.901295 13.826528,4.894662 16.850536,4.894662 3.878339,0 10.599083,-0.489738 14.370321,-1.432549 6.457447,-1.614361 23.00089,-3.544241 29.651484,-3.987614 10.76907,-0.717939 18.2986,0.361916 29.02747,-0.710971 8.73791,-0.873789 14.2767,4.771688 22.98986,3.431204 6.56082,-1.009357 14.93555,-0.999959 20.89634,-3.709408 4.26881,-1.94037 8.40536,-4.525009 12.05558,-7.511554 2.61086,-2.136159 6.58793,-2.55011 9.27352,-4.698582"
       sodipodi:nodetypes="cssssssssc" />
    <path
       id="rect1"
       style="fill:#0f9e10;fill-opacity:0.12058812;stroke:#349e0f;stroke-width:0.600001;stroke-miterlimit:3;stroke-opacity:0.8098"
       d="M 8.1206597,38.64477 55.781363,26.229482 V 65.573701 L 8.1206597,104.76792 Z"
       sodipodi:nodetypes="ccccc" />
    <g
       transform="matrix(0.67137228,0,0,0.67137228,11.569403,68.419529)"
       ns2:version="1.11.0"
       ns2:texconverter="pdflatex"
       ns2:pdfconverter="inkscape"
       ns2:text="$$e_1(\\tau)$$"
       ns2:preamble="/home/msurov/.config/inkscape/extensions/textext/default_packages.tex"
       ns2:scale="4.0"
       ns2:alignment="middle center"
       ns2:jacobian_sqrt="1.41111"
       id="g6"
       style="fill:#240f9e;fill-opacity:1;filter:url(#filter65)">
      <defs
         id="id-2c1ee0d4-1011-4fb2-b1f6-b0bb3cee7f0e">
        <g
           id="id-fafc7aed-24b2-4824-b103-e763e2eea62e">
          <symbol
             overflow="visible"
             id="id-948f42d9-5786-4448-8721-6a4f0ead72fd">
            <path
               style="stroke:none;stroke-width:0"
               d=""
               id="id-5f375e71-ca61-4588-b7d9-a9f7ca0aa5cb" />
          </symbol>
          <symbol
             overflow="visible"
             id="id-83351824-a0f4-4bd8-8d4b-a94dcd2f5693">
            <path
               style="stroke:none;stroke-width:0"
               d="m 1.859375,-2.296875 c 0.296875,0 1.03125,-0.03125 1.53125,-0.234375 0.703125,-0.296875 0.75,-0.890625 0.75,-1.03125 0,-0.4375 -0.375,-0.84375 -1.0625,-0.84375 -1.109375,0 -2.625,0.96875 -2.625,2.71875 0,1.015625 0.59375,1.796875 1.578125,1.796875 1.421875,0 2.25,-1.0625 2.25,-1.171875 0,-0.0625 -0.046875,-0.140625 -0.109375,-0.140625 -0.0625,0 -0.078125,0.03125 -0.140625,0.109375 -0.78125,0.984375 -1.875,0.984375 -1.984375,0.984375 -0.78125,0 -0.875,-0.84375 -0.875,-1.15625 0,-0.125 0.015625,-0.421875 0.15625,-1.03125 z m -0.46875,-0.21875 C 1.78125,-4.03125 2.8125,-4.1875 3.078125,-4.1875 c 0.453125,0 0.734375,0.296875 0.734375,0.625 0,1.046875 -1.59375,1.046875 -2.015625,1.046875 z m 0,0"
               id="id-7234c219-4af3-47d0-af60-1b9aafde3a44" />
          </symbol>
          <symbol
             overflow="visible"
             id="id-3613fec2-23e4-46be-9eef-9fdd4bad95c2">
            <path
               style="stroke:none;stroke-width:0"
               d="m 2.9375,-3.71875 h 1.671875 c 0.125,0 0.484375,0 0.484375,-0.34375 0,-0.234375 -0.203125,-0.234375 -0.40625,-0.234375 H 1.90625 c -0.203125,0 -0.59375,0 -1.03125,0.46875 -0.328125,0.359375 -0.609375,0.84375 -0.609375,0.890625 0,0.015625 0,0.109375 0.125,0.109375 0.078125,0 0.09375,-0.046875 0.15625,-0.125 C 1.03125,-3.71875 1.609375,-3.71875 1.8125,-3.71875 h 0.828125 l -0.96875,3.203125 C 1.625,-0.40625 1.5625,-0.1875 1.5625,-0.15625 c 0,0.109375 0.078125,0.28125 0.296875,0.28125 0.328125,0 0.375,-0.28125 0.40625,-0.4375 z m 0,0"
               id="id-2553866f-b6fd-4393-b37d-01ddbefd86ec" />
          </symbol>
          <symbol
             overflow="visible"
             id="id-7323dde9-f59d-4aeb-84a6-6fa5322de64a">
            <path
               style="stroke:none;stroke-width:0"
               d=""
               id="id-b0a83bb3-d99f-4137-9be3-7c6ca31638be" />
          </symbol>
          <symbol
             overflow="visible"
             id="id-4ef5db60-4733-4d3a-86a2-102d02b2157b">
            <path
               style="stroke:none;stroke-width:0"
               d="m 2.328125,-4.4375 c 0,-0.1875 0,-0.1875 -0.203125,-0.1875 -0.453125,0.4375 -1.078125,0.4375 -1.359375,0.4375 v 0.25 c 0.15625,0 0.625,0 1,-0.1875 v 3.546875 c 0,0.234375 0,0.328125 -0.6875,0.328125 H 0.8125 V 0 c 0.125,0 0.984375,-0.03125 1.234375,-0.03125 0.21875,0 1.09375,0.03125 1.25,0.03125 V -0.25 H 3.03125 c -0.703125,0 -0.703125,-0.09375 -0.703125,-0.328125 z m 0,0"
               id="id-2ef0522c-8dab-4a69-84eb-b1a613065638" />
          </symbol>
          <symbol
             overflow="visible"
             id="id-072c8a3c-8032-49a2-8517-3881c1311941">
            <path
               style="stroke:none;stroke-width:0"
               d=""
               id="id-240a9b84-be5f-49b5-a6b1-1414ba77e762" />
          </symbol>
          <symbol
             overflow="visible"
             id="id-2aac6632-2c54-44db-be13-b5eb94b4f61d">
            <path
               style="stroke:none;stroke-width:0"
               d="m 3.296875,2.390625 c 0,-0.03125 0,-0.046875 -0.171875,-0.21875 C 1.890625,0.921875 1.5625,-0.96875 1.5625,-2.5 c 0,-1.734375 0.375,-3.46875 1.609375,-4.703125 0.125,-0.125 0.125,-0.140625 0.125,-0.171875 0,-0.078125 -0.03125,-0.109375 -0.09375,-0.109375 -0.109375,0 -1,0.6875 -1.59375,1.953125 -0.5,1.09375 -0.625,2.203125 -0.625,3.03125 0,0.78125 0.109375,1.984375 0.65625,3.125 C 2.25,1.84375 3.09375,2.5 3.203125,2.5 c 0.0625,0 0.09375,-0.03125 0.09375,-0.109375 z m 0,0"
               id="id-dd04eb6c-206e-40fd-8ba1-f46b1c2e2e66" />
          </symbol>
          <symbol
             overflow="visible"
             id="id-e311a404-d707-49ad-989a-208b294363c5">
            <path
               style="stroke:none;stroke-width:0"
               d="m 2.875,-2.5 c 0,-0.765625 -0.109375,-1.96875 -0.65625,-3.109375 -0.59375,-1.21875 -1.453125,-1.875 -1.546875,-1.875 -0.0625,0 -0.109375,0.046875 -0.109375,0.109375 0,0.03125 0,0.046875 0.1875,0.234375 0.984375,0.984375 1.546875,2.5625 1.546875,4.640625 0,1.71875 -0.359375,3.46875 -1.59375,4.71875 C 0.5625,2.34375 0.5625,2.359375 0.5625,2.390625 0.5625,2.453125 0.609375,2.5 0.671875,2.5 0.765625,2.5 1.671875,1.8125 2.25,0.546875 2.765625,-0.546875 2.875,-1.65625 2.875,-2.5 Z m 0,0"
               id="id-e0b34404-c510-4fd6-8673-9223bf06b016" />
          </symbol>
        </g>
      </defs>
      <g
         id="id-1cc4af5e-91c5-4584-b39a-716669c99b93"
         transform="translate(-294.907,-139.236)"
         style="fill:#240f9e;fill-opacity:1">
        <g
           style="fill:#240f9e;fill-opacity:1"
           id="id-3f15fd5b-fe68-4e82-9267-494564850b1b">
          <g
             transform="translate(294.454,146.72)"
             id="g1"
             style="fill:#240f9e;fill-opacity:1">
            <path
               style="fill:#240f9e;fill-opacity:1;stroke:none;stroke-width:0"
               d="m 1.859375,-2.296875 c 0.296875,0 1.03125,-0.03125 1.53125,-0.234375 0.703125,-0.296875 0.75,-0.890625 0.75,-1.03125 0,-0.4375 -0.375,-0.84375 -1.0625,-0.84375 -1.109375,0 -2.625,0.96875 -2.625,2.71875 0,1.015625 0.59375,1.796875 1.578125,1.796875 1.421875,0 2.25,-1.0625 2.25,-1.171875 0,-0.0625 -0.046875,-0.140625 -0.109375,-0.140625 -0.0625,0 -0.078125,0.03125 -0.140625,0.109375 -0.78125,0.984375 -1.875,0.984375 -1.984375,0.984375 -0.78125,0 -0.875,-0.84375 -0.875,-1.15625 0,-0.125 0.015625,-0.421875 0.15625,-1.03125 z m -0.46875,-0.21875 C 1.78125,-4.03125 2.8125,-4.1875 3.078125,-4.1875 c 0.453125,0 0.734375,0.296875 0.734375,0.625 0,1.046875 -1.59375,1.046875 -2.015625,1.046875 z m 0,0"
               id="id-feb1c3ed-819e-4185-b803-b66266103139" />
          </g>
        </g>
        <g
           style="fill:#240f9e;fill-opacity:1"
           id="id-1eeccf02-0be9-4593-806a-5381e47e1dbb">
          <g
             transform="translate(299.093,148.214)"
             id="g2"
             style="fill:#240f9e;fill-opacity:1">
            <path
               style="fill:#240f9e;fill-opacity:1;stroke:none;stroke-width:0"
               d="m 2.328125,-4.4375 c 0,-0.1875 0,-0.1875 -0.203125,-0.1875 -0.453125,0.4375 -1.078125,0.4375 -1.359375,0.4375 v 0.25 c 0.15625,0 0.625,0 1,-0.1875 v 3.546875 c 0,0.234375 0,0.328125 -0.6875,0.328125 H 0.8125 V 0 c 0.125,0 0.984375,-0.03125 1.234375,-0.03125 0.21875,0 1.09375,0.03125 1.25,0.03125 V -0.25 H 3.03125 c -0.703125,0 -0.703125,-0.09375 -0.703125,-0.328125 z m 0,0"
               id="id-b2d2a717-1859-4c77-a1a3-9518ac562dec" />
          </g>
        </g>
        <g
           style="fill:#240f9e;fill-opacity:1"
           id="id-dc424cb0-64b7-49d2-b512-8539c7c22e7a">
          <g
             transform="translate(303.562,146.72)"
             id="g3"
             style="fill:#240f9e;fill-opacity:1">
            <path
               style="fill:#240f9e;fill-opacity:1;stroke:none;stroke-width:0"
               d="m 3.296875,2.390625 c 0,-0.03125 0,-0.046875 -0.171875,-0.21875 C 1.890625,0.921875 1.5625,-0.96875 1.5625,-2.5 c 0,-1.734375 0.375,-3.46875 1.609375,-4.703125 0.125,-0.125 0.125,-0.140625 0.125,-0.171875 0,-0.078125 -0.03125,-0.109375 -0.09375,-0.109375 -0.109375,0 -1,0.6875 -1.59375,1.953125 -0.5,1.09375 -0.625,2.203125 -0.625,3.03125 0,0.78125 0.109375,1.984375 0.65625,3.125 C 2.25,1.84375 3.09375,2.5 3.203125,2.5 c 0.0625,0 0.09375,-0.03125 0.09375,-0.109375 z m 0,0"
               id="id-a3249f45-2ce3-4f33-9854-9cc93a143b01" />
          </g>
        </g>
        <g
           style="fill:#240f9e;fill-opacity:1"
           id="id-0d6d90f8-49a2-4199-8f0b-e3ddd85159d9">
          <g
             transform="translate(307.436,146.72)"
             id="g4"
             style="fill:#240f9e;fill-opacity:1">
            <path
               style="fill:#240f9e;fill-opacity:1;stroke:none;stroke-width:0"
               d="m 2.9375,-3.71875 h 1.671875 c 0.125,0 0.484375,0 0.484375,-0.34375 0,-0.234375 -0.203125,-0.234375 -0.40625,-0.234375 H 1.90625 c -0.203125,0 -0.59375,0 -1.03125,0.46875 -0.328125,0.359375 -0.609375,0.84375 -0.609375,0.890625 0,0.015625 0,0.109375 0.125,0.109375 0.078125,0 0.09375,-0.046875 0.15625,-0.125 C 1.03125,-3.71875 1.609375,-3.71875 1.8125,-3.71875 h 0.828125 l -0.96875,3.203125 C 1.625,-0.40625 1.5625,-0.1875 1.5625,-0.15625 c 0,0.109375 0.078125,0.28125 0.296875,0.28125 0.328125,0 0.375,-0.28125 0.40625,-0.4375 z m 0,0"
               id="id-d3e0393f-ff44-47f9-a903-fe540b230da8" />
          </g>
        </g>
        <g
           style="fill:#240f9e;fill-opacity:1"
           id="id-7479ee07-b6b7-47af-8976-a872db22fbcb">
          <g
             transform="translate(312.918,146.72)"
             id="g5"
             style="fill:#240f9e;fill-opacity:1">
            <path
               style="fill:#240f9e;fill-opacity:1;stroke:none;stroke-width:0"
               d="m 2.875,-2.5 c 0,-0.765625 -0.109375,-1.96875 -0.65625,-3.109375 -0.59375,-1.21875 -1.453125,-1.875 -1.546875,-1.875 -0.0625,0 -0.109375,0.046875 -0.109375,0.109375 0,0.03125 0,0.046875 0.1875,0.234375 0.984375,0.984375 1.546875,2.5625 1.546875,4.640625 0,1.71875 -0.359375,3.46875 -1.59375,4.71875 C 0.5625,2.34375 0.5625,2.359375 0.5625,2.390625 0.5625,2.453125 0.609375,2.5 0.671875,2.5 0.765625,2.5 1.671875,1.8125 2.25,0.546875 2.765625,-0.546875 2.875,-1.65625 2.875,-2.5 Z m 0,0"
               id="id-b538400f-b6fc-4dce-afd7-a09c0ad4a2b1" />
          </g>
        </g>
      </g>
    </g>
    <g
       transform="matrix(0.67137228,0,0,0.67137228,37.968965,54.867386)"
       ns2:version="1.11.0"
       ns2:texconverter="pdflatex"
       ns2:pdfconverter="inkscape"
       ns2:text="$$e_2(\\tau)$$"
       ns2:preamble="/home/msurov/.config/inkscape/extensions/textext/default_packages.tex"
       ns2:scale="4.0"
       ns2:alignment="middle center"
       ns2:jacobian_sqrt="1.41111"
       id="g12"
       style="fill:#9e0f0f;fill-opacity:1;stroke:none;stroke-opacity:0.8098;filter:url(#filter63)">
      <defs
         id="id-6cb13fe1-b59e-4e46-afc3-c85dda100154">
        <g
           id="id-4cd2a783-74f6-4bb2-9c41-e62a7c0442e4">
          <symbol
             overflow="visible"
             id="id-59da7136-8bed-44ad-b095-1cb4cbf06f38">
            <path
               style="stroke:none;stroke-width:0"
               d=""
               id="id-5b2022ef-9c6a-481a-95de-4116a3bd7867" />
          </symbol>
          <symbol
             overflow="visible"
             id="id-82e621e8-ed31-4fed-84bb-8aa5436eb0b8">
            <path
               style="stroke:none;stroke-width:0"
               d="m 1.859375,-2.296875 c 0.296875,0 1.03125,-0.03125 1.53125,-0.234375 0.703125,-0.296875 0.75,-0.890625 0.75,-1.03125 0,-0.4375 -0.375,-0.84375 -1.0625,-0.84375 -1.109375,0 -2.625,0.96875 -2.625,2.71875 0,1.015625 0.59375,1.796875 1.578125,1.796875 1.421875,0 2.25,-1.0625 2.25,-1.171875 0,-0.0625 -0.046875,-0.140625 -0.109375,-0.140625 -0.0625,0 -0.078125,0.03125 -0.140625,0.109375 -0.78125,0.984375 -1.875,0.984375 -1.984375,0.984375 -0.78125,0 -0.875,-0.84375 -0.875,-1.15625 0,-0.125 0.015625,-0.421875 0.15625,-1.03125 z m -0.46875,-0.21875 C 1.78125,-4.03125 2.8125,-4.1875 3.078125,-4.1875 c 0.453125,0 0.734375,0.296875 0.734375,0.625 0,1.046875 -1.59375,1.046875 -2.015625,1.046875 z m 0,0"
               id="id-3a912a96-0e5e-4b93-9384-193fc23b1257" />
          </symbol>
          <symbol
             overflow="visible"
             id="id-a27c4395-b6e7-4865-be3d-f0c71c9cbc7c">
            <path
               style="stroke:none;stroke-width:0"
               d="m 2.9375,-3.71875 h 1.671875 c 0.125,0 0.484375,0 0.484375,-0.34375 0,-0.234375 -0.203125,-0.234375 -0.40625,-0.234375 H 1.90625 c -0.203125,0 -0.59375,0 -1.03125,0.46875 -0.328125,0.359375 -0.609375,0.84375 -0.609375,0.890625 0,0.015625 0,0.109375 0.125,0.109375 0.078125,0 0.09375,-0.046875 0.15625,-0.125 C 1.03125,-3.71875 1.609375,-3.71875 1.8125,-3.71875 h 0.828125 l -0.96875,3.203125 C 1.625,-0.40625 1.5625,-0.1875 1.5625,-0.15625 c 0,0.109375 0.078125,0.28125 0.296875,0.28125 0.328125,0 0.375,-0.28125 0.40625,-0.4375 z m 0,0"
               id="id-94a3d4f4-b9da-4e91-bab1-c39c16e8a3d8" />
          </symbol>
          <symbol
             overflow="visible"
             id="id-39f72c4c-cea0-4c02-9f6a-edf0279a717f">
            <path
               style="stroke:none;stroke-width:0"
               d=""
               id="id-f0b790be-ea17-4848-9d64-199af500b7dc" />
          </symbol>
          <symbol
             overflow="visible"
             id="id-bf908e50-7354-4df2-8a11-202fcd1671d0">
            <path
               style="stroke:none;stroke-width:0"
               d="M 3.515625,-1.265625 H 3.28125 c -0.015625,0.15625 -0.09375,0.5625 -0.1875,0.625 C 3.046875,-0.59375 2.515625,-0.59375 2.40625,-0.59375 H 1.125 c 0.734375,-0.640625 0.984375,-0.84375 1.390625,-1.171875 0.515625,-0.40625 1,-0.84375 1,-1.5 0,-0.84375 -0.734375,-1.359375 -1.625,-1.359375 -0.859375,0 -1.453125,0.609375 -1.453125,1.25 0,0.34375 0.296875,0.390625 0.375,0.390625 0.15625,0 0.359375,-0.125 0.359375,-0.375 0,-0.125 -0.046875,-0.375 -0.40625,-0.375 C 0.984375,-4.21875 1.453125,-4.375 1.78125,-4.375 c 0.703125,0 1.0625,0.546875 1.0625,1.109375 0,0.609375 -0.4375,1.078125 -0.65625,1.328125 L 0.515625,-0.265625 C 0.4375,-0.203125 0.4375,-0.1875 0.4375,0 h 2.875 z m 0,0"
               id="id-404fab08-e6d6-4776-925e-e166d181991d" />
          </symbol>
          <symbol
             overflow="visible"
             id="id-b87898cd-2674-4b76-8256-2a32126b771f">
            <path
               style="stroke:none;stroke-width:0"
               d=""
               id="id-74fb9103-e480-45c7-9e20-2af796fee2f6" />
          </symbol>
          <symbol
             overflow="visible"
             id="id-cf92fa7c-c09a-4105-b8ca-e7cc90bb5b29">
            <path
               style="stroke:none;stroke-width:0"
               d="m 3.296875,2.390625 c 0,-0.03125 0,-0.046875 -0.171875,-0.21875 C 1.890625,0.921875 1.5625,-0.96875 1.5625,-2.5 c 0,-1.734375 0.375,-3.46875 1.609375,-4.703125 0.125,-0.125 0.125,-0.140625 0.125,-0.171875 0,-0.078125 -0.03125,-0.109375 -0.09375,-0.109375 -0.109375,0 -1,0.6875 -1.59375,1.953125 -0.5,1.09375 -0.625,2.203125 -0.625,3.03125 0,0.78125 0.109375,1.984375 0.65625,3.125 C 2.25,1.84375 3.09375,2.5 3.203125,2.5 c 0.0625,0 0.09375,-0.03125 0.09375,-0.109375 z m 0,0"
               id="id-fb00b488-30e3-4682-8e9b-92cc6030622a" />
          </symbol>
          <symbol
             overflow="visible"
             id="id-3c3df1c2-a93d-456f-8a01-167077e5f3f3">
            <path
               style="stroke:none;stroke-width:0"
               d="m 2.875,-2.5 c 0,-0.765625 -0.109375,-1.96875 -0.65625,-3.109375 -0.59375,-1.21875 -1.453125,-1.875 -1.546875,-1.875 -0.0625,0 -0.109375,0.046875 -0.109375,0.109375 0,0.03125 0,0.046875 0.1875,0.234375 0.984375,0.984375 1.546875,2.5625 1.546875,4.640625 0,1.71875 -0.359375,3.46875 -1.59375,4.71875 C 0.5625,2.34375 0.5625,2.359375 0.5625,2.390625 0.5625,2.453125 0.609375,2.5 0.671875,2.5 0.765625,2.5 1.671875,1.8125 2.25,0.546875 2.765625,-0.546875 2.875,-1.65625 2.875,-2.5 Z m 0,0"
               id="id-dac017f8-bc5d-4955-9656-0ee7aeff4fb3" />
          </symbol>
        </g>
      </defs>
      <g
         id="id-27cc745a-d9e0-4be1-8da8-2048364ea328"
         transform="translate(-294.907,-139.236)"
         style="fill:#9e0f0f;fill-opacity:1;stroke:none;stroke-opacity:0.8098">
        <g
           style="fill:#9e0f0f;fill-opacity:1;stroke:none;stroke-opacity:0.8098"
           id="id-c298b94a-e872-415d-8ca2-f2a849534b81">
          <g
             transform="translate(294.454,146.72)"
             id="g7"
             style="fill:#9e0f0f;fill-opacity:1;stroke:none;stroke-opacity:0.8098">
            <path
               style="fill:#9e0f0f;fill-opacity:1;stroke:none;stroke-width:0;stroke-opacity:0.8098"
               d="m 1.859375,-2.296875 c 0.296875,0 1.03125,-0.03125 1.53125,-0.234375 0.703125,-0.296875 0.75,-0.890625 0.75,-1.03125 0,-0.4375 -0.375,-0.84375 -1.0625,-0.84375 -1.109375,0 -2.625,0.96875 -2.625,2.71875 0,1.015625 0.59375,1.796875 1.578125,1.796875 1.421875,0 2.25,-1.0625 2.25,-1.171875 0,-0.0625 -0.046875,-0.140625 -0.109375,-0.140625 -0.0625,0 -0.078125,0.03125 -0.140625,0.109375 -0.78125,0.984375 -1.875,0.984375 -1.984375,0.984375 -0.78125,0 -0.875,-0.84375 -0.875,-1.15625 0,-0.125 0.015625,-0.421875 0.15625,-1.03125 z m -0.46875,-0.21875 C 1.78125,-4.03125 2.8125,-4.1875 3.078125,-4.1875 c 0.453125,0 0.734375,0.296875 0.734375,0.625 0,1.046875 -1.59375,1.046875 -2.015625,1.046875 z m 0,0"
               id="id-41808d2e-ec00-4aa4-99f1-278c4e5d522c" />
          </g>
        </g>
        <g
           style="fill:#9e0f0f;fill-opacity:1;stroke:none;stroke-opacity:0.8098"
           id="id-b82b26a4-3285-4e23-8665-761f64f98fdd">
          <g
             transform="translate(299.093,148.214)"
             id="g8"
             style="fill:#9e0f0f;fill-opacity:1;stroke:none;stroke-opacity:0.8098">
            <path
               style="fill:#9e0f0f;fill-opacity:1;stroke:none;stroke-width:0;stroke-opacity:0.8098"
               d="M 3.515625,-1.265625 H 3.28125 c -0.015625,0.15625 -0.09375,0.5625 -0.1875,0.625 C 3.046875,-0.59375 2.515625,-0.59375 2.40625,-0.59375 H 1.125 c 0.734375,-0.640625 0.984375,-0.84375 1.390625,-1.171875 0.515625,-0.40625 1,-0.84375 1,-1.5 0,-0.84375 -0.734375,-1.359375 -1.625,-1.359375 -0.859375,0 -1.453125,0.609375 -1.453125,1.25 0,0.34375 0.296875,0.390625 0.375,0.390625 0.15625,0 0.359375,-0.125 0.359375,-0.375 0,-0.125 -0.046875,-0.375 -0.40625,-0.375 C 0.984375,-4.21875 1.453125,-4.375 1.78125,-4.375 c 0.703125,0 1.0625,0.546875 1.0625,1.109375 0,0.609375 -0.4375,1.078125 -0.65625,1.328125 L 0.515625,-0.265625 C 0.4375,-0.203125 0.4375,-0.1875 0.4375,0 h 2.875 z m 0,0"
               id="id-c8c9e2b1-0073-4c69-b943-40fa7dc4b025" />
          </g>
        </g>
        <g
           style="fill:#9e0f0f;fill-opacity:1;stroke:none;stroke-opacity:0.8098"
           id="id-66848073-849d-40dc-a1ad-ce93d1a25c47">
          <g
             transform="translate(303.562,146.72)"
             id="g9"
             style="fill:#9e0f0f;fill-opacity:1;stroke:none;stroke-opacity:0.8098">
            <path
               style="fill:#9e0f0f;fill-opacity:1;stroke:none;stroke-width:0;stroke-opacity:0.8098"
               d="m 3.296875,2.390625 c 0,-0.03125 0,-0.046875 -0.171875,-0.21875 C 1.890625,0.921875 1.5625,-0.96875 1.5625,-2.5 c 0,-1.734375 0.375,-3.46875 1.609375,-4.703125 0.125,-0.125 0.125,-0.140625 0.125,-0.171875 0,-0.078125 -0.03125,-0.109375 -0.09375,-0.109375 -0.109375,0 -1,0.6875 -1.59375,1.953125 -0.5,1.09375 -0.625,2.203125 -0.625,3.03125 0,0.78125 0.109375,1.984375 0.65625,3.125 C 2.25,1.84375 3.09375,2.5 3.203125,2.5 c 0.0625,0 0.09375,-0.03125 0.09375,-0.109375 z m 0,0"
               id="id-1bb92ad1-bb1e-435d-9b43-949efba76708" />
          </g>
        </g>
        <g
           style="fill:#9e0f0f;fill-opacity:1;stroke:none;stroke-opacity:0.8098"
           id="id-13a5389b-a50e-4cc6-b283-4116f2fe4cc4">
          <g
             transform="translate(307.436,146.72)"
             id="g10"
             style="fill:#9e0f0f;fill-opacity:1;stroke:none;stroke-opacity:0.8098">
            <path
               style="fill:#9e0f0f;fill-opacity:1;stroke:none;stroke-width:0;stroke-opacity:0.8098"
               d="m 2.9375,-3.71875 h 1.671875 c 0.125,0 0.484375,0 0.484375,-0.34375 0,-0.234375 -0.203125,-0.234375 -0.40625,-0.234375 H 1.90625 c -0.203125,0 -0.59375,0 -1.03125,0.46875 -0.328125,0.359375 -0.609375,0.84375 -0.609375,0.890625 0,0.015625 0,0.109375 0.125,0.109375 0.078125,0 0.09375,-0.046875 0.15625,-0.125 C 1.03125,-3.71875 1.609375,-3.71875 1.8125,-3.71875 h 0.828125 l -0.96875,3.203125 C 1.625,-0.40625 1.5625,-0.1875 1.5625,-0.15625 c 0,0.109375 0.078125,0.28125 0.296875,0.28125 0.328125,0 0.375,-0.28125 0.40625,-0.4375 z m 0,0"
               id="id-a93fb803-799b-49cd-9621-22a15c05f56e" />
          </g>
        </g>
        <g
           style="fill:#9e0f0f;fill-opacity:1;stroke:none;stroke-opacity:0.8098"
           id="id-b707de0f-d625-4397-b85a-2d1b1b40dc67">
          <g
             transform="translate(312.918,146.72)"
             id="g11"
             style="fill:#9e0f0f;fill-opacity:1;stroke:none;stroke-opacity:0.8098">
            <path
               style="fill:#9e0f0f;fill-opacity:1;stroke:none;stroke-width:0;stroke-opacity:0.8098"
               d="m 2.875,-2.5 c 0,-0.765625 -0.109375,-1.96875 -0.65625,-3.109375 -0.59375,-1.21875 -1.453125,-1.875 -1.546875,-1.875 -0.0625,0 -0.109375,0.046875 -0.109375,0.109375 0,0.03125 0,0.046875 0.1875,0.234375 0.984375,0.984375 1.546875,2.5625 1.546875,4.640625 0,1.71875 -0.359375,3.46875 -1.59375,4.71875 C 0.5625,2.34375 0.5625,2.359375 0.5625,2.390625 0.5625,2.453125 0.609375,2.5 0.671875,2.5 0.765625,2.5 1.671875,1.8125 2.25,0.546875 2.765625,-0.546875 2.875,-1.65625 2.875,-2.5 Z m 0,0"
               id="id-a04c768b-ce8c-4d56-9b3c-304d5ed93c1c" />
          </g>
        </g>
      </g>
    </g>
    <path
       style="fill:none;fill-opacity:0.321768;stroke:#240f9e;stroke-width:0.600001;stroke-miterlimit:3;stroke-opacity:0.8098;marker-end:url(#ConcaveTriangle)"
       d="M 33.590533,62.335018 24.4672,82.029592"
       id="path1"
       sodipodi:nodetypes="cc" />
    <path
       style="fill:none;fill-opacity:0.321768;stroke:#9e0f0f;stroke-width:0.600001;stroke-miterlimit:3;stroke-opacity:0.8098;marker-end:url(#ConcaveTriangle-2)"
       d="m 33.560239,62.414484 9.06244,2.55798"
       id="path1-4"
       sodipodi:nodetypes="cc" />
    <path
       style="fill:none;fill-opacity:0.321768;stroke:#0f919e;stroke-width:0.600001;stroke-miterlimit:3;stroke-opacity:0.8098;marker-end:url(#ConcaveTriangle-0)"
       d="M 33.54928,62.611531 36.299071,39.661452"
       id="path1-8"
       sodipodi:nodetypes="cc" />
    <g
       transform="matrix(0.67137228,0,0,0.67137228,21.833322,39.821964)"
       ns2:version="1.11.0"
       ns2:texconverter="pdflatex"
       ns2:pdfconverter="inkscape"
       ns2:text="$$n(\\tau)$$"
       ns2:preamble="/home/msurov/.config/inkscape/extensions/textext/default_packages.tex"
       ns2:scale="4.0"
       ns2:alignment="middle center"
       ns2:jacobian_sqrt="1.41111"
       id="g18"
       style="fill:#0f919e;fill-opacity:1;stroke:#000000;stroke-opacity:0.897213;filter:url(#filter59)">
      <defs
         id="id-88faa530-e0a4-40ac-9fd3-ccc298930003">
        <g
           id="id-53c959bf-c529-4e19-9a0e-6fe3e8e07240">
          <symbol
             overflow="visible"
             id="id-3bd95f78-09bc-4a3c-b607-9db638ac364a">
            <path
               style="stroke:none;stroke-width:0"
               d=""
               id="id-5b8f1b58-5ed6-4333-b9a9-cea89d03f828" />
          </symbol>
          <symbol
             overflow="visible"
             id="id-00db41f2-e422-4c51-9577-c463e888ed29">
            <path
               style="stroke:none;stroke-width:0"
               d="m 0.875,-0.59375 c -0.03125,0.15625 -0.09375,0.390625 -0.09375,0.4375 0,0.171875 0.140625,0.265625 0.296875,0.265625 0.125,0 0.296875,-0.078125 0.375,-0.28125 0,-0.015625 0.125,-0.484375 0.1875,-0.734375 l 0.21875,-0.890625 C 1.90625,-2.03125 1.96875,-2.25 2.03125,-2.46875 c 0.03125,-0.171875 0.109375,-0.46875 0.125,-0.5 0.140625,-0.3125 0.671875,-1.21875 1.625,-1.21875 0.453125,0 0.53125,0.375 0.53125,0.703125 0,0.609375 -0.484375,1.890625 -0.640625,2.3125 C 3.578125,-0.9375 3.5625,-0.8125 3.5625,-0.703125 c 0,0.46875 0.359375,0.8125 0.828125,0.8125 0.9375,0 1.296875,-1.453125 1.296875,-1.53125 0,-0.109375 -0.078125,-0.109375 -0.109375,-0.109375 -0.109375,0 -0.109375,0.03125 -0.15625,0.1875 -0.203125,0.671875 -0.53125,1.234375 -1.015625,1.234375 -0.171875,0 -0.234375,-0.09375 -0.234375,-0.328125 0,-0.25 0.078125,-0.484375 0.171875,-0.703125 0.1875,-0.53125 0.609375,-1.625 0.609375,-2.203125 0,-0.65625 -0.421875,-1.0625 -1.140625,-1.0625 -0.90625,0 -1.390625,0.640625 -1.5625,0.875 -0.046875,-0.5625 -0.453125,-0.875 -0.921875,-0.875 -0.453125,0 -0.640625,0.390625 -0.734375,0.5625 C 0.421875,-3.5 0.296875,-2.90625 0.296875,-2.875 c 0,0.109375 0.09375,0.109375 0.109375,0.109375 0.109375,0 0.109375,-0.015625 0.171875,-0.234375 0.171875,-0.703125 0.375,-1.1875 0.734375,-1.1875 0.1875,0 0.296875,0.125 0.296875,0.453125 0,0.21875 -0.03125,0.328125 -0.15625,0.84375 z m 0,0"
               id="id-6613974c-3663-43b4-8983-097d34c6d269" />
          </symbol>
          <symbol
             overflow="visible"
             id="id-1d2463f8-7984-4f0e-9677-30b6bb3d1cbc">
            <path
               style="stroke:none;stroke-width:0"
               d="m 2.9375,-3.71875 h 1.671875 c 0.125,0 0.484375,0 0.484375,-0.34375 0,-0.234375 -0.203125,-0.234375 -0.40625,-0.234375 H 1.90625 c -0.203125,0 -0.59375,0 -1.03125,0.46875 -0.328125,0.359375 -0.609375,0.84375 -0.609375,0.890625 0,0.015625 0,0.109375 0.125,0.109375 0.078125,0 0.09375,-0.046875 0.15625,-0.125 C 1.03125,-3.71875 1.609375,-3.71875 1.8125,-3.71875 h 0.828125 l -0.96875,3.203125 C 1.625,-0.40625 1.5625,-0.1875 1.5625,-0.15625 c 0,0.109375 0.078125,0.28125 0.296875,0.28125 0.328125,0 0.375,-0.28125 0.40625,-0.4375 z m 0,0"
               id="id-d6116fbe-9399-462c-b861-e232d7ae1473" />
          </symbol>
          <symbol
             overflow="visible"
             id="id-f1723640-7e05-4b0d-8477-c2bd7dc03071">
            <path
               style="stroke:none;stroke-width:0"
               d=""
               id="id-790b5c9c-47c9-4208-a5e3-9c605e578e01" />
          </symbol>
          <symbol
             overflow="visible"
             id="id-777effab-fe46-4178-aa14-23823a3ac8c4">
            <path
               style="stroke:none;stroke-width:0"
               d="m 3.296875,2.390625 c 0,-0.03125 0,-0.046875 -0.171875,-0.21875 C 1.890625,0.921875 1.5625,-0.96875 1.5625,-2.5 c 0,-1.734375 0.375,-3.46875 1.609375,-4.703125 0.125,-0.125 0.125,-0.140625 0.125,-0.171875 0,-0.078125 -0.03125,-0.109375 -0.09375,-0.109375 -0.109375,0 -1,0.6875 -1.59375,1.953125 -0.5,1.09375 -0.625,2.203125 -0.625,3.03125 0,0.78125 0.109375,1.984375 0.65625,3.125 C 2.25,1.84375 3.09375,2.5 3.203125,2.5 c 0.0625,0 0.09375,-0.03125 0.09375,-0.109375 z m 0,0"
               id="id-4f7ea246-20a4-4340-abcf-cd60045885e3" />
          </symbol>
          <symbol
             overflow="visible"
             id="id-725d059d-715a-4d13-89f3-dd902ec68fe7">
            <path
               style="stroke:none;stroke-width:0"
               d="m 2.875,-2.5 c 0,-0.765625 -0.109375,-1.96875 -0.65625,-3.109375 -0.59375,-1.21875 -1.453125,-1.875 -1.546875,-1.875 -0.0625,0 -0.109375,0.046875 -0.109375,0.109375 0,0.03125 0,0.046875 0.1875,0.234375 0.984375,0.984375 1.546875,2.5625 1.546875,4.640625 0,1.71875 -0.359375,3.46875 -1.59375,4.71875 C 0.5625,2.34375 0.5625,2.359375 0.5625,2.390625 0.5625,2.453125 0.609375,2.5 0.671875,2.5 0.765625,2.5 1.671875,1.8125 2.25,0.546875 2.765625,-0.546875 2.875,-1.65625 2.875,-2.5 Z m 0,0"
               id="id-86878c7b-3162-48c7-ae14-6e4943a94c77" />
          </symbol>
        </g>
      </defs>
      <g
         id="id-172fda4c-0c92-4454-bb6b-37a2d2f9cb6e"
         transform="translate(-296.315,-139.236)"
         style="fill:#0f919e;fill-opacity:1;stroke:#000000;stroke-opacity:0.897213">
        <g
           style="fill:#0f919e;fill-opacity:1;stroke:#000000;stroke-opacity:0.897213"
           id="id-8243d293-e0ba-4661-ac42-45e6d4f0ecb0">
          <g
             transform="translate(296.018,146.72)"
             id="g14"
             style="fill:#0f919e;fill-opacity:1;stroke:#000000;stroke-opacity:0.897213">
            <path
               style="fill:#0f919e;fill-opacity:1;stroke:#000000;stroke-width:0;stroke-opacity:0.897213"
               d="m 0.875,-0.59375 c -0.03125,0.15625 -0.09375,0.390625 -0.09375,0.4375 0,0.171875 0.140625,0.265625 0.296875,0.265625 0.125,0 0.296875,-0.078125 0.375,-0.28125 0,-0.015625 0.125,-0.484375 0.1875,-0.734375 l 0.21875,-0.890625 C 1.90625,-2.03125 1.96875,-2.25 2.03125,-2.46875 c 0.03125,-0.171875 0.109375,-0.46875 0.125,-0.5 0.140625,-0.3125 0.671875,-1.21875 1.625,-1.21875 0.453125,0 0.53125,0.375 0.53125,0.703125 0,0.609375 -0.484375,1.890625 -0.640625,2.3125 C 3.578125,-0.9375 3.5625,-0.8125 3.5625,-0.703125 c 0,0.46875 0.359375,0.8125 0.828125,0.8125 0.9375,0 1.296875,-1.453125 1.296875,-1.53125 0,-0.109375 -0.078125,-0.109375 -0.109375,-0.109375 -0.109375,0 -0.109375,0.03125 -0.15625,0.1875 -0.203125,0.671875 -0.53125,1.234375 -1.015625,1.234375 -0.171875,0 -0.234375,-0.09375 -0.234375,-0.328125 0,-0.25 0.078125,-0.484375 0.171875,-0.703125 0.1875,-0.53125 0.609375,-1.625 0.609375,-2.203125 0,-0.65625 -0.421875,-1.0625 -1.140625,-1.0625 -0.90625,0 -1.390625,0.640625 -1.5625,0.875 -0.046875,-0.5625 -0.453125,-0.875 -0.921875,-0.875 -0.453125,0 -0.640625,0.390625 -0.734375,0.5625 C 0.421875,-3.5 0.296875,-2.90625 0.296875,-2.875 c 0,0.109375 0.09375,0.109375 0.109375,0.109375 0.109375,0 0.109375,-0.015625 0.171875,-0.234375 0.171875,-0.703125 0.375,-1.1875 0.734375,-1.1875 0.1875,0 0.296875,0.125 0.296875,0.453125 0,0.21875 -0.03125,0.328125 -0.15625,0.84375 z m 0,0"
               id="id-cd68d6d6-170e-458c-a535-54eac833d706" />
          </g>
        </g>
        <g
           style="fill:#0f919e;fill-opacity:1;stroke:#000000;stroke-opacity:0.897213"
           id="id-b5287f34-4139-40c2-a3f3-0b57eb14608d">
          <g
             transform="translate(301.998,146.72)"
             id="g15"
             style="fill:#0f919e;fill-opacity:1;stroke:#000000;stroke-opacity:0.897213">
            <path
               style="fill:#0f919e;fill-opacity:1;stroke:#000000;stroke-width:0;stroke-opacity:0.897213"
               d="m 3.296875,2.390625 c 0,-0.03125 0,-0.046875 -0.171875,-0.21875 C 1.890625,0.921875 1.5625,-0.96875 1.5625,-2.5 c 0,-1.734375 0.375,-3.46875 1.609375,-4.703125 0.125,-0.125 0.125,-0.140625 0.125,-0.171875 0,-0.078125 -0.03125,-0.109375 -0.09375,-0.109375 -0.109375,0 -1,0.6875 -1.59375,1.953125 -0.5,1.09375 -0.625,2.203125 -0.625,3.03125 0,0.78125 0.109375,1.984375 0.65625,3.125 C 2.25,1.84375 3.09375,2.5 3.203125,2.5 c 0.0625,0 0.09375,-0.03125 0.09375,-0.109375 z m 0,0"
               id="id-48b91c16-e090-4463-870c-d0cc2d53583d" />
          </g>
        </g>
        <g
           style="fill:#0f919e;fill-opacity:1;stroke:#000000;stroke-opacity:0.897213"
           id="id-08b2dfb7-7dd8-4e26-a406-2966c64cf6e8">
          <g
             transform="translate(305.872,146.72)"
             id="g16"
             style="fill:#0f919e;fill-opacity:1;stroke:#000000;stroke-opacity:0.897213">
            <path
               style="fill:#0f919e;fill-opacity:1;stroke:#000000;stroke-width:0;stroke-opacity:0.897213"
               d="m 2.9375,-3.71875 h 1.671875 c 0.125,0 0.484375,0 0.484375,-0.34375 0,-0.234375 -0.203125,-0.234375 -0.40625,-0.234375 H 1.90625 c -0.203125,0 -0.59375,0 -1.03125,0.46875 -0.328125,0.359375 -0.609375,0.84375 -0.609375,0.890625 0,0.015625 0,0.109375 0.125,0.109375 0.078125,0 0.09375,-0.046875 0.15625,-0.125 C 1.03125,-3.71875 1.609375,-3.71875 1.8125,-3.71875 h 0.828125 l -0.96875,3.203125 C 1.625,-0.40625 1.5625,-0.1875 1.5625,-0.15625 c 0,0.109375 0.078125,0.28125 0.296875,0.28125 0.328125,0 0.375,-0.28125 0.40625,-0.4375 z m 0,0"
               id="id-796c683f-3f95-49cb-87ac-6954d162ab74" />
          </g>
        </g>
        <g
           style="fill:#0f919e;fill-opacity:1;stroke:#000000;stroke-opacity:0.897213"
           id="id-939a202e-d8c6-47b2-866a-42ba5d0fe0fa">
          <g
             transform="translate(311.353,146.72)"
             id="g17"
             style="fill:#0f919e;fill-opacity:1;stroke:#000000;stroke-opacity:0.897213">
            <path
               style="fill:#0f919e;fill-opacity:1;stroke:#000000;stroke-width:0;stroke-opacity:0.897213"
               d="m 2.875,-2.5 c 0,-0.765625 -0.109375,-1.96875 -0.65625,-3.109375 -0.59375,-1.21875 -1.453125,-1.875 -1.546875,-1.875 -0.0625,0 -0.109375,0.046875 -0.109375,0.109375 0,0.03125 0,0.046875 0.1875,0.234375 0.984375,0.984375 1.546875,2.5625 1.546875,4.640625 0,1.71875 -0.359375,3.46875 -1.59375,4.71875 C 0.5625,2.34375 0.5625,2.359375 0.5625,2.390625 0.5625,2.453125 0.609375,2.5 0.671875,2.5 0.765625,2.5 1.671875,1.8125 2.25,0.546875 2.765625,-0.546875 2.875,-1.65625 2.875,-2.5 Z m 0,0"
               id="id-2a42eaac-bd8e-4321-9211-dae1fc0fb2ec" />
          </g>
        </g>
      </g>
    </g>
    <path
       id="rect1-9"
       style="fill:#09a209;fill-opacity:0.11764706;stroke:#349e0f;stroke-width:0.600001;stroke-miterlimit:3;stroke-opacity:0.8098"
       d="M 77.299212,52.139401 100.12933,32.030132 V 71.374351 L 77.299212,118.26255 Z"
       sodipodi:nodetypes="ccccc" />
    <path
       style="fill:none;fill-opacity:0.321768;stroke:#240f9e;stroke-width:0.600001;stroke-miterlimit:3;stroke-opacity:0.8098;marker-end:url(#ConcaveTriangle-3)"
       d="M 88.430295,69.8843 83.59111,87.218221"
       id="path1-1"
       sodipodi:nodetypes="cc" />
    <path
       style="fill:none;fill-opacity:0.321768;stroke:#9e0f0f;stroke-width:0.600001;stroke-miterlimit:3;stroke-opacity:0.8098;marker-end:url(#ConcaveTriangle-2-4)"
       d="m 88.400005,69.963766 6.96408,-3.212506"
       id="path1-4-0"
       sodipodi:nodetypes="cc" />
    <path
       style="fill:none;fill-opacity:0.321768;stroke:#0f919e;stroke-width:0.600001;stroke-miterlimit:3;stroke-opacity:0.8098;marker-end:url(#ConcaveTriangle-0-2)"
       d="m 88.389045,70.160813 0.30171,-20.064836"
       id="path1-8-3"
       sodipodi:nodetypes="cc" />
    <path
       id="rect1-9-8"
       style="fill:#09a209;fill-opacity:0.117647;stroke:#349e0f;stroke-width:0.600001;stroke-miterlimit:3;stroke-opacity:0.8098"
       d="M 168.5797,56.311683 143.14757,34.36635 v 39.344219 l 25.43213,48.724261 z"
       sodipodi:nodetypes="ccccc" />
    <path
       style="fill:none;fill-opacity:0.321768;stroke:#240f9e;stroke-width:0.600001;stroke-miterlimit:3;stroke-opacity:0.8098;marker-end:url(#ConcaveTriangle-3-3)"
       d="m 156.06053,70.821613 2.41765,18.995122"
       id="path1-1-8"
       sodipodi:nodetypes="cc" />
    <path
       style="fill:none;fill-opacity:0.321768;stroke:#9e0f0f;stroke-width:0.600001;stroke-miterlimit:3;stroke-opacity:0.8098;marker-end:url(#ConcaveTriangle-2-4-3)"
       d="M 156.24882,71.250806 150.18559,68.0383"
       id="path1-4-0-9"
       sodipodi:nodetypes="cc" />
    <path
       style="fill:none;fill-opacity:0.321768;stroke:#0f919e;stroke-width:0.600001;stroke-miterlimit:3;stroke-opacity:0.8098;marker-end:url(#ConcaveTriangle-0-2-6)"
       d="M 155.97557,70.835832 149.37018,50.333838"
       id="path1-8-3-7"
       sodipodi:nodetypes="cc" />
  </g>
</svg>
