<?xml version="1.0" encoding="UTF-8" standalone="no"?>
<!-- Created with Inkscape (http://www.inkscape.org/) -->

<svg
   width="210mm"
   height="297mm"
   viewBox="0 0 210 297"
   version="1.1"
   id="svg1"
   inkscape:version="1.4 (e7c3feb, 2024-10-09)"
   sodipodi:docname="sliding-surface.svg"
   xmlns:inkscape="http://www.inkscape.org/namespaces/inkscape"
   xmlns:sodipodi="http://sodipodi.sourceforge.net/DTD/sodipodi-0.dtd"
   xmlns="http://www.w3.org/2000/svg"
   xmlns:svg="http://www.w3.org/2000/svg"
   xmlns:ns2="http://www.iki.fi/pav/software/textext/">
  <sodipodi:namedview
     id="namedview1"
     pagecolor="#ffffff"
     bordercolor="#000000"
     borderopacity="0.25"
     inkscape:showpageshadow="2"
     inkscape:pageopacity="0.0"
     inkscape:pagecheckerboard="0"
     inkscape:deskcolor="#d1d1d1"
     inkscape:document-units="mm"
     inkscape:zoom="1.0699144"
     inkscape:cx="439.28747"
     inkscape:cy="443.49341"
     inkscape:window-width="2195"
     inkscape:window-height="1412"
     inkscape:window-x="0"
     inkscape:window-y="0"
     inkscape:window-maximized="0"
     inkscape:current-layer="layer1" />
  <defs
     id="defs1">
    <inkscape:path-effect
       effect="spiro"
       id="path-effect16"
       is_visible="true"
       lpeversion="1" />
    <inkscape:path-effect
       effect="spiro"
       id="path-effect15"
       is_visible="true"
       lpeversion="1" />
    <inkscape:path-effect
       effect="spiro"
       id="path-effect14"
       is_visible="true"
       lpeversion="1" />
    <inkscape:path-effect
       effect="spiro"
       id="path-effect13"
       is_visible="true"
       lpeversion="1" />
    <marker
       style="overflow:visible"
       id="RoundedArrow"
       refX="0"
       refY="0"
       orient="auto-start-reverse"
       inkscape:stockid="Rounded arrow"
       markerWidth="1"
       markerHeight="1"
       viewBox="0 0 1 1"
       inkscape:isstock="true"
       inkscape:collect="always"
       preserveAspectRatio="xMidYMid">
      <path
         transform="scale(0.7)"
         d="m -0.21114562,-4.1055728 6.42229122,3.21114561 a 1,1 90 0 1 0,1.78885438 L -0.21114562,4.1055728 A 1.236068,1.236068 31.717474 0 1 -2,3 v -6 a 1.236068,1.236068 148.28253 0 1 1.78885438,-1.1055728 z"
         style="fill:context-stroke;fill-rule:evenodd;stroke:none"
         id="path9" />
    </marker>
    <marker
       style="overflow:visible"
       id="RoundedArrow-2"
       refX="0"
       refY="0"
       orient="auto-start-reverse"
       inkscape:stockid="Rounded arrow"
       markerWidth="1"
       markerHeight="1"
       viewBox="0 0 1 1"
       inkscape:isstock="true"
       inkscape:collect="always"
       preserveAspectRatio="xMidYMid">
      <path
         transform="scale(0.7)"
         d="m -0.21114562,-4.1055728 6.42229122,3.21114561 a 1,1 90 0 1 0,1.78885438 L -0.21114562,4.1055728 A 1.236068,1.236068 31.717474 0 1 -2,3 v -6 a 1.236068,1.236068 148.28253 0 1 1.78885438,-1.1055728 z"
         style="fill:context-stroke;fill-rule:evenodd;stroke:none"
         id="path9-6" />
    </marker>
  </defs>
  <g
     inkscape:label="Layer 1"
     inkscape:groupmode="layer"
     id="layer1">
    <path
       style="fill:#2788f9;fill-opacity:0.321768;stroke:none;stroke-width:1;stroke-miterlimit:3;stroke-dasharray:none;stroke-opacity:1"
       d="m 20.051262,156.82194 c 36.196679,-2.97268 70.377729,-0.34973 99.230158,29.37702 l 24.25854,-23.97561 C 118.70938,124.45289 90.300335,99.088321 45.535357,101.01181 Z"
       id="path4-7"
       sodipodi:nodetypes="ccccc" />
    <path
       style="fill:none;fill-opacity:0.760218;stroke:#0f1b9e;stroke-width:1;stroke-miterlimit:3;stroke-dasharray:none;stroke-opacity:1"
       d="m 31.206293,132.4088 c 46.688473,-1.74863 73.005377,7.25684 100.808637,41.35516"
       id="path4-6"
       sodipodi:nodetypes="cc" />
    <path
       style="fill:none;fill-opacity:0.321768;stroke:#000000;stroke-width:0.5;stroke-miterlimit:3;stroke-dasharray:none;stroke-opacity:1;marker-end:url(#RoundedArrow)"
       d="m 59.31045,132.86733 -6.484941,20.39535"
       id="path8"
       sodipodi:nodetypes="cc" />
    <path
       style="fill:none;fill-opacity:0.321768;stroke:#000000;stroke-width:0.5;stroke-miterlimit:3;stroke-dasharray:none;stroke-opacity:1;marker-end:url(#RoundedArrow-2)"
       d="m 59.334961,132.99836 0.217382,-20.52558"
       id="path8-8"
       sodipodi:nodetypes="cc" />
    <g
       transform="matrix(0.80394146,0,0,0.80394146,36.691716,143.51199)"
       ns2:version="1.11.0"
       ns2:texconverter="pdflatex"
       ns2:pdfconverter="inkscape"
       ns2:text="$$e(\\tau)$$"
       ns2:preamble="/home/msurov/.config/inkscape/extensions/textext/default_packages.tex"
       ns2:scale="4.0"
       ns2:alignment="middle center"
       ns2:inkscapeversion="1.4"
       ns2:jacobian_sqrt="1.41111"
       id="g13">
      <defs
         id="id-ecdc17ca-9327-4ca9-85f6-ad3ef6f037ea">
        <g
           id="id-fe7185e5-47b0-4f5a-a01e-904a15df4855">
          <symbol
             overflow="visible"
             id="id-17ca030c-7947-425d-a582-708518b06a79">
            <path
               style="stroke:none;stroke-width:0"
               d=""
               id="id-9aa8ddf1-4c06-47c0-9c03-40416ec2efc8" />
          </symbol>
          <symbol
             overflow="visible"
             id="id-a16494d6-be69-4005-8347-970fd215d8d2">
            <path
               style="stroke:none;stroke-width:0"
               d="m 1.859375,-2.296875 c 0.296875,0 1.03125,-0.03125 1.53125,-0.234375 0.703125,-0.296875 0.75,-0.890625 0.75,-1.03125 0,-0.4375 -0.375,-0.84375 -1.0625,-0.84375 -1.109375,0 -2.625,0.96875 -2.625,2.71875 0,1.015625 0.59375,1.796875 1.578125,1.796875 1.421875,0 2.25,-1.0625 2.25,-1.171875 0,-0.0625 -0.046875,-0.140625 -0.109375,-0.140625 -0.0625,0 -0.078125,0.03125 -0.140625,0.109375 -0.78125,0.984375 -1.875,0.984375 -1.984375,0.984375 -0.78125,0 -0.875,-0.84375 -0.875,-1.15625 0,-0.125 0.015625,-0.421875 0.15625,-1.03125 z m -0.46875,-0.21875 C 1.78125,-4.03125 2.8125,-4.1875 3.078125,-4.1875 c 0.453125,0 0.734375,0.296875 0.734375,0.625 0,1.046875 -1.59375,1.046875 -2.015625,1.046875 z m 0,0"
               id="id-f3ebf3f7-cc45-4fe9-9fb3-b6f04e074e73" />
          </symbol>
          <symbol
             overflow="visible"
             id="id-c0cc7dde-8790-4bbc-90ed-be22bd2d91c0">
            <path
               style="stroke:none;stroke-width:0"
               d="m 2.9375,-3.71875 h 1.671875 c 0.125,0 0.484375,0 0.484375,-0.34375 0,-0.234375 -0.203125,-0.234375 -0.40625,-0.234375 H 1.90625 c -0.203125,0 -0.59375,0 -1.03125,0.46875 -0.328125,0.359375 -0.609375,0.84375 -0.609375,0.890625 0,0.015625 0,0.109375 0.125,0.109375 0.078125,0 0.09375,-0.046875 0.15625,-0.125 C 1.03125,-3.71875 1.609375,-3.71875 1.8125,-3.71875 h 0.828125 l -0.96875,3.203125 C 1.625,-0.40625 1.5625,-0.1875 1.5625,-0.15625 c 0,0.109375 0.078125,0.28125 0.296875,0.28125 0.328125,0 0.375,-0.28125 0.40625,-0.4375 z m 0,0"
               id="id-c51a63e0-0584-4595-a325-3d7a32f329c1" />
          </symbol>
          <symbol
             overflow="visible"
             id="id-eafee2ed-f559-4d56-9b14-4dbe13482756">
            <path
               style="stroke:none;stroke-width:0"
               d=""
               id="id-1b35e671-fa46-4474-84a7-569d07a94e68" />
          </symbol>
          <symbol
             overflow="visible"
             id="id-872e7a10-ffb0-4fe4-bf0d-e2434b10d545">
            <path
               style="stroke:none;stroke-width:0"
               d="m 3.296875,2.390625 c 0,-0.03125 0,-0.046875 -0.171875,-0.21875 C 1.890625,0.921875 1.5625,-0.96875 1.5625,-2.5 c 0,-1.734375 0.375,-3.46875 1.609375,-4.703125 0.125,-0.125 0.125,-0.140625 0.125,-0.171875 0,-0.078125 -0.03125,-0.109375 -0.09375,-0.109375 -0.109375,0 -1,0.6875 -1.59375,1.953125 -0.5,1.09375 -0.625,2.203125 -0.625,3.03125 0,0.78125 0.109375,1.984375 0.65625,3.125 C 2.25,1.84375 3.09375,2.5 3.203125,2.5 c 0.0625,0 0.09375,-0.03125 0.09375,-0.109375 z m 0,0"
               id="id-2efab3e8-be1a-4898-845f-4089791f214b" />
          </symbol>
          <symbol
             overflow="visible"
             id="id-77678239-3529-4394-a7fe-1f600f6b64f7">
            <path
               style="stroke:none;stroke-width:0"
               d="m 2.875,-2.5 c 0,-0.765625 -0.109375,-1.96875 -0.65625,-3.109375 -0.59375,-1.21875 -1.453125,-1.875 -1.546875,-1.875 -0.0625,0 -0.109375,0.046875 -0.109375,0.109375 0,0.03125 0,0.046875 0.1875,0.234375 0.984375,0.984375 1.546875,2.5625 1.546875,4.640625 0,1.71875 -0.359375,3.46875 -1.59375,4.71875 C 0.5625,2.34375 0.5625,2.359375 0.5625,2.390625 0.5625,2.453125 0.609375,2.5 0.671875,2.5 0.765625,2.5 1.671875,1.8125 2.25,0.546875 2.765625,-0.546875 2.875,-1.65625 2.875,-2.5 Z m 0,0"
               id="id-30f8c08b-13d8-4c2e-b39e-12f5e7103b30" />
          </symbol>
        </g>
      </defs>
      <g
         id="id-37f500e0-bef0-4149-b2e2-85d00025fe4a"
         transform="translate(-297.142,-139.236)">
        <g
           style="fill:#000000;fill-opacity:1"
           id="id-035fdddb-8463-4021-879f-722e096d80ee">
          <g
             transform="translate(296.689,146.72)"
             id="g9">
            <path
               style="stroke:none;stroke-width:0"
               d="m 1.859375,-2.296875 c 0.296875,0 1.03125,-0.03125 1.53125,-0.234375 0.703125,-0.296875 0.75,-0.890625 0.75,-1.03125 0,-0.4375 -0.375,-0.84375 -1.0625,-0.84375 -1.109375,0 -2.625,0.96875 -2.625,2.71875 0,1.015625 0.59375,1.796875 1.578125,1.796875 1.421875,0 2.25,-1.0625 2.25,-1.171875 0,-0.0625 -0.046875,-0.140625 -0.109375,-0.140625 -0.0625,0 -0.078125,0.03125 -0.140625,0.109375 -0.78125,0.984375 -1.875,0.984375 -1.984375,0.984375 -0.78125,0 -0.875,-0.84375 -0.875,-1.15625 0,-0.125 0.015625,-0.421875 0.15625,-1.03125 z m -0.46875,-0.21875 C 1.78125,-4.03125 2.8125,-4.1875 3.078125,-4.1875 c 0.453125,0 0.734375,0.296875 0.734375,0.625 0,1.046875 -1.59375,1.046875 -2.015625,1.046875 z m 0,0"
               id="id-c3c489a6-e14f-42b9-83e7-feaeb9532237" />
          </g>
        </g>
        <g
           style="fill:#000000;fill-opacity:1"
           id="id-00e83a3a-641c-41cf-b34b-d95ab7d86fc6">
          <g
             transform="translate(301.328,146.72)"
             id="g10">
            <path
               style="stroke:none;stroke-width:0"
               d="m 3.296875,2.390625 c 0,-0.03125 0,-0.046875 -0.171875,-0.21875 C 1.890625,0.921875 1.5625,-0.96875 1.5625,-2.5 c 0,-1.734375 0.375,-3.46875 1.609375,-4.703125 0.125,-0.125 0.125,-0.140625 0.125,-0.171875 0,-0.078125 -0.03125,-0.109375 -0.09375,-0.109375 -0.109375,0 -1,0.6875 -1.59375,1.953125 -0.5,1.09375 -0.625,2.203125 -0.625,3.03125 0,0.78125 0.109375,1.984375 0.65625,3.125 C 2.25,1.84375 3.09375,2.5 3.203125,2.5 c 0.0625,0 0.09375,-0.03125 0.09375,-0.109375 z m 0,0"
               id="id-a8adc1e8-db3e-41ba-9f17-2b541e16f8c1" />
          </g>
        </g>
        <g
           style="fill:#000000;fill-opacity:1"
           id="id-d5bb48f0-2df7-4766-abf4-1da20a037ace">
          <g
             transform="translate(305.202,146.72)"
             id="g11">
            <path
               style="stroke:none;stroke-width:0"
               d="m 2.9375,-3.71875 h 1.671875 c 0.125,0 0.484375,0 0.484375,-0.34375 0,-0.234375 -0.203125,-0.234375 -0.40625,-0.234375 H 1.90625 c -0.203125,0 -0.59375,0 -1.03125,0.46875 -0.328125,0.359375 -0.609375,0.84375 -0.609375,0.890625 0,0.015625 0,0.109375 0.125,0.109375 0.078125,0 0.09375,-0.046875 0.15625,-0.125 C 1.03125,-3.71875 1.609375,-3.71875 1.8125,-3.71875 h 0.828125 l -0.96875,3.203125 C 1.625,-0.40625 1.5625,-0.1875 1.5625,-0.15625 c 0,0.109375 0.078125,0.28125 0.296875,0.28125 0.328125,0 0.375,-0.28125 0.40625,-0.4375 z m 0,0"
               id="id-a9c5fab7-efde-48c4-bf4b-d22bfe3ec253" />
          </g>
        </g>
        <g
           style="fill:#000000;fill-opacity:1"
           id="id-0f74cfa1-87eb-41cb-92f2-245d8d875003">
          <g
             transform="translate(310.683,146.72)"
             id="g12">
            <path
               style="stroke:none;stroke-width:0"
               d="m 2.875,-2.5 c 0,-0.765625 -0.109375,-1.96875 -0.65625,-3.109375 -0.59375,-1.21875 -1.453125,-1.875 -1.546875,-1.875 -0.0625,0 -0.109375,0.046875 -0.109375,0.109375 0,0.03125 0,0.046875 0.1875,0.234375 0.984375,0.984375 1.546875,2.5625 1.546875,4.640625 0,1.71875 -0.359375,3.46875 -1.59375,4.71875 C 0.5625,2.34375 0.5625,2.359375 0.5625,2.390625 0.5625,2.453125 0.609375,2.5 0.671875,2.5 0.765625,2.5 1.671875,1.8125 2.25,0.546875 2.765625,-0.546875 2.875,-1.65625 2.875,-2.5 Z m 0,0"
               id="id-d669128d-95e6-41ce-b616-8f36c09422fb" />
          </g>
        </g>
      </g>
    </g>
    <path
       style="fill:none;fill-opacity:0.321768;stroke:#9e0f0f;stroke-width:1;stroke-miterlimit:3;stroke-dasharray:none;stroke-opacity:0.8098"
       d="m 46.063587,69.034309 c 3.937903,3.895957 7.184297,8.48889 9.542913,13.501125 2.482261,5.27499 3.968956,10.958355 6.145066,16.366838 2.280071,5.666868 5.320635,11.027198 9.014542,15.892098 1.488224,-1.41705 3.699783,-2.03057 5.705348,-1.58275 2.005565,0.44782 3.7461,1.94379 4.490208,3.85929 0.493108,1.26937 0.56108,2.67466 0.377869,4.02406 -0.183211,1.34941 -0.608166,2.6538 -1.07732,3.93222 -1.557559,4.24426 -3.64126,8.359 -4.288886,12.83341 -0.323814,2.2372 -0.272915,4.55365 0.387701,6.71548 0.660615,2.16183 1.960541,4.16213 3.813755,5.45655 1.487572,1.03903 3.283754,1.5943 5.093317,1.72823 1.809562,0.13393 3.633924,-0.14065 5.374329,-0.65392 3.480812,-1.02653 6.601965,-2.97475 9.816481,-4.659 2.15897,-1.1312 4.41917,-2.16312 6.83447,-2.4904 1.20764,-0.16363 2.44589,-0.14638 3.63455,0.12247 1.18866,0.26885 2.32694,0.7944 3.25774,1.58104 1.44817,1.22387 2.3436,3.08763 2.36065,4.98361 0.0169,1.8798 -0.776,3.65616 -1.3276,5.4533 -0.2758,0.89857 -0.4945,1.82296 -0.51998,2.76255 -0.0255,0.9396 0.15138,1.90035 0.62354,2.71309 0.35787,0.61602 0.87563,1.13071 1.46235,1.53482 0.58673,0.40411 1.2419,0.70107 1.91537,0.93345 1.34693,0.46476 2.76872,0.67591 4.12913,1.0996 3.97663,1.2385 7.31216,4.38292 8.78286,8.27965"
       id="path16"
       inkscape:path-effect="#path-effect16"
       inkscape:original-d="m 46.063587,69.034309 c -3.511384,35.502331 2.520847,-1.905864 9.542913,13.501125 5.807995,12.743218 2.892338,10.074499 6.145066,16.366838 4.418026,8.546588 1.869043,11.689128 9.014542,15.892098 4.107078,-2.52333 8.972404,-2.31028 10.195556,2.27654 0.659871,2.47451 -0.897441,5.38242 -0.699451,7.95628 0.474737,6.1716 -4.062296,19.70562 -0.08743,25.00544 2.749783,3.66638 25.128207,-14.17518 20.284127,-3.58469 -0.77073,1.68504 12.09556,-1.8744 13.72676,-0.78689 1.34502,0.89667 1.2893,3.69798 2.36065,4.98361 1.01647,1.21976 -1.66403,9.4623 -1.22404,10.92894 0.87887,2.92958 5.71711,1.58499 7.50685,3.56787 1.78974,1.98288 5.33178,5.40927 8.78286,8.27965"
       sodipodi:nodetypes="csscsssscsszc" />
    <g
       transform="matrix(0.75475555,0,0,0.75475555,42.498574,115.71991)"
       ns2:version="1.11.0"
       ns2:texconverter="pdflatex"
       ns2:pdfconverter="inkscape"
       ns2:text="$$n(\\tau)$$"
       ns2:preamble="/home/msurov/.config/inkscape/extensions/textext/default_packages.tex"
       ns2:scale="4.0"
       ns2:alignment="middle center"
       ns2:inkscapeversion="1.4"
       ns2:jacobian_sqrt="1.41111"
       id="g20">
      <defs
         id="id-bbd86e61-7ebd-4dcc-893f-90ad833b57ae">
        <g
           id="id-cb7fdbe7-342e-4cf4-ba27-77d90c5010a6">
          <symbol
             overflow="visible"
             id="id-27ac8b76-4a2b-4382-93b0-d5602aef4b0e">
            <path
               style="stroke:none;stroke-width:0"
               d=""
               id="id-25d4bea3-a74f-4207-859a-c1ab9932c38e" />
          </symbol>
          <symbol
             overflow="visible"
             id="id-b7268c35-1ee4-48d2-9767-abd58c44a0ff">
            <path
               style="stroke:none;stroke-width:0"
               d="m 0.875,-0.59375 c -0.03125,0.15625 -0.09375,0.390625 -0.09375,0.4375 0,0.171875 0.140625,0.265625 0.296875,0.265625 0.125,0 0.296875,-0.078125 0.375,-0.28125 0,-0.015625 0.125,-0.484375 0.1875,-0.734375 l 0.21875,-0.890625 C 1.90625,-2.03125 1.96875,-2.25 2.03125,-2.46875 c 0.03125,-0.171875 0.109375,-0.46875 0.125,-0.5 0.140625,-0.3125 0.671875,-1.21875 1.625,-1.21875 0.453125,0 0.53125,0.375 0.53125,0.703125 0,0.609375 -0.484375,1.890625 -0.640625,2.3125 C 3.578125,-0.9375 3.5625,-0.8125 3.5625,-0.703125 c 0,0.46875 0.359375,0.8125 0.828125,0.8125 0.9375,0 1.296875,-1.453125 1.296875,-1.53125 0,-0.109375 -0.078125,-0.109375 -0.109375,-0.109375 -0.109375,0 -0.109375,0.03125 -0.15625,0.1875 -0.203125,0.671875 -0.53125,1.234375 -1.015625,1.234375 -0.171875,0 -0.234375,-0.09375 -0.234375,-0.328125 0,-0.25 0.078125,-0.484375 0.171875,-0.703125 0.1875,-0.53125 0.609375,-1.625 0.609375,-2.203125 0,-0.65625 -0.421875,-1.0625 -1.140625,-1.0625 -0.90625,0 -1.390625,0.640625 -1.5625,0.875 -0.046875,-0.5625 -0.453125,-0.875 -0.921875,-0.875 -0.453125,0 -0.640625,0.390625 -0.734375,0.5625 C 0.421875,-3.5 0.296875,-2.90625 0.296875,-2.875 c 0,0.109375 0.09375,0.109375 0.109375,0.109375 0.109375,0 0.109375,-0.015625 0.171875,-0.234375 0.171875,-0.703125 0.375,-1.1875 0.734375,-1.1875 0.1875,0 0.296875,0.125 0.296875,0.453125 0,0.21875 -0.03125,0.328125 -0.15625,0.84375 z m 0,0"
               id="id-5eef025c-1991-4a15-88c9-850fd8aa20a3" />
          </symbol>
          <symbol
             overflow="visible"
             id="id-e9938187-f5bc-4f94-a4b7-4d382ec66039">
            <path
               style="stroke:none;stroke-width:0"
               d="m 2.9375,-3.71875 h 1.671875 c 0.125,0 0.484375,0 0.484375,-0.34375 0,-0.234375 -0.203125,-0.234375 -0.40625,-0.234375 H 1.90625 c -0.203125,0 -0.59375,0 -1.03125,0.46875 -0.328125,0.359375 -0.609375,0.84375 -0.609375,0.890625 0,0.015625 0,0.109375 0.125,0.109375 0.078125,0 0.09375,-0.046875 0.15625,-0.125 C 1.03125,-3.71875 1.609375,-3.71875 1.8125,-3.71875 h 0.828125 l -0.96875,3.203125 C 1.625,-0.40625 1.5625,-0.1875 1.5625,-0.15625 c 0,0.109375 0.078125,0.28125 0.296875,0.28125 0.328125,0 0.375,-0.28125 0.40625,-0.4375 z m 0,0"
               id="id-338da05f-f445-4920-ba6c-840fa0ce5dd6" />
          </symbol>
          <symbol
             overflow="visible"
             id="id-c3bf179b-1f14-46fa-8040-f717e8fc3129">
            <path
               style="stroke:none;stroke-width:0"
               d=""
               id="id-261c5beb-5856-4dd7-8850-5d3ec01beea8" />
          </symbol>
          <symbol
             overflow="visible"
             id="id-05708c93-6de2-45b5-beac-655ad079842c">
            <path
               style="stroke:none;stroke-width:0"
               d="m 3.296875,2.390625 c 0,-0.03125 0,-0.046875 -0.171875,-0.21875 C 1.890625,0.921875 1.5625,-0.96875 1.5625,-2.5 c 0,-1.734375 0.375,-3.46875 1.609375,-4.703125 0.125,-0.125 0.125,-0.140625 0.125,-0.171875 0,-0.078125 -0.03125,-0.109375 -0.09375,-0.109375 -0.109375,0 -1,0.6875 -1.59375,1.953125 -0.5,1.09375 -0.625,2.203125 -0.625,3.03125 0,0.78125 0.109375,1.984375 0.65625,3.125 C 2.25,1.84375 3.09375,2.5 3.203125,2.5 c 0.0625,0 0.09375,-0.03125 0.09375,-0.109375 z m 0,0"
               id="id-211a8328-2dad-42f8-ab50-e5916dc8f10d" />
          </symbol>
          <symbol
             overflow="visible"
             id="id-fab539af-bda9-4cc3-b829-ce0297f88002">
            <path
               style="stroke:none;stroke-width:0"
               d="m 2.875,-2.5 c 0,-0.765625 -0.109375,-1.96875 -0.65625,-3.109375 -0.59375,-1.21875 -1.453125,-1.875 -1.546875,-1.875 -0.0625,0 -0.109375,0.046875 -0.109375,0.109375 0,0.03125 0,0.046875 0.1875,0.234375 0.984375,0.984375 1.546875,2.5625 1.546875,4.640625 0,1.71875 -0.359375,3.46875 -1.59375,4.71875 C 0.5625,2.34375 0.5625,2.359375 0.5625,2.390625 0.5625,2.453125 0.609375,2.5 0.671875,2.5 0.765625,2.5 1.671875,1.8125 2.25,0.546875 2.765625,-0.546875 2.875,-1.65625 2.875,-2.5 Z m 0,0"
               id="id-826541c8-350e-43e9-b141-5bee37516d69" />
          </symbol>
        </g>
      </defs>
      <g
         id="id-ad302775-87d9-442f-95d6-2accf63e2d78"
         transform="translate(-296.315,-139.236)">
        <g
           style="fill:#000000;fill-opacity:1"
           id="id-b09c30fa-2c73-4191-893b-1e8532e2d5b1">
          <g
             transform="translate(296.018,146.72)"
             id="g16">
            <path
               style="stroke:none;stroke-width:0"
               d="m 0.875,-0.59375 c -0.03125,0.15625 -0.09375,0.390625 -0.09375,0.4375 0,0.171875 0.140625,0.265625 0.296875,0.265625 0.125,0 0.296875,-0.078125 0.375,-0.28125 0,-0.015625 0.125,-0.484375 0.1875,-0.734375 l 0.21875,-0.890625 C 1.90625,-2.03125 1.96875,-2.25 2.03125,-2.46875 c 0.03125,-0.171875 0.109375,-0.46875 0.125,-0.5 0.140625,-0.3125 0.671875,-1.21875 1.625,-1.21875 0.453125,0 0.53125,0.375 0.53125,0.703125 0,0.609375 -0.484375,1.890625 -0.640625,2.3125 C 3.578125,-0.9375 3.5625,-0.8125 3.5625,-0.703125 c 0,0.46875 0.359375,0.8125 0.828125,0.8125 0.9375,0 1.296875,-1.453125 1.296875,-1.53125 0,-0.109375 -0.078125,-0.109375 -0.109375,-0.109375 -0.109375,0 -0.109375,0.03125 -0.15625,0.1875 -0.203125,0.671875 -0.53125,1.234375 -1.015625,1.234375 -0.171875,0 -0.234375,-0.09375 -0.234375,-0.328125 0,-0.25 0.078125,-0.484375 0.171875,-0.703125 0.1875,-0.53125 0.609375,-1.625 0.609375,-2.203125 0,-0.65625 -0.421875,-1.0625 -1.140625,-1.0625 -0.90625,0 -1.390625,0.640625 -1.5625,0.875 -0.046875,-0.5625 -0.453125,-0.875 -0.921875,-0.875 -0.453125,0 -0.640625,0.390625 -0.734375,0.5625 C 0.421875,-3.5 0.296875,-2.90625 0.296875,-2.875 c 0,0.109375 0.09375,0.109375 0.109375,0.109375 0.109375,0 0.109375,-0.015625 0.171875,-0.234375 0.171875,-0.703125 0.375,-1.1875 0.734375,-1.1875 0.1875,0 0.296875,0.125 0.296875,0.453125 0,0.21875 -0.03125,0.328125 -0.15625,0.84375 z m 0,0"
               id="id-c9d32091-647b-4904-b0a7-14ab492b9dc2" />
          </g>
        </g>
        <g
           style="fill:#000000;fill-opacity:1"
           id="id-a92e5c0d-a050-455f-9d68-2ae5eadf3d5d">
          <g
             transform="translate(301.998,146.72)"
             id="g17">
            <path
               style="stroke:none;stroke-width:0"
               d="m 3.296875,2.390625 c 0,-0.03125 0,-0.046875 -0.171875,-0.21875 C 1.890625,0.921875 1.5625,-0.96875 1.5625,-2.5 c 0,-1.734375 0.375,-3.46875 1.609375,-4.703125 0.125,-0.125 0.125,-0.140625 0.125,-0.171875 0,-0.078125 -0.03125,-0.109375 -0.09375,-0.109375 -0.109375,0 -1,0.6875 -1.59375,1.953125 -0.5,1.09375 -0.625,2.203125 -0.625,3.03125 0,0.78125 0.109375,1.984375 0.65625,3.125 C 2.25,1.84375 3.09375,2.5 3.203125,2.5 c 0.0625,0 0.09375,-0.03125 0.09375,-0.109375 z m 0,0"
               id="id-fad930fc-b021-42b9-9e95-8b9b08d20011" />
          </g>
        </g>
        <g
           style="fill:#000000;fill-opacity:1"
           id="id-6ea6b98a-620d-4ae7-88c5-8fdfa9a5422f">
          <g
             transform="translate(305.872,146.72)"
             id="g18">
            <path
               style="stroke:none;stroke-width:0"
               d="m 2.9375,-3.71875 h 1.671875 c 0.125,0 0.484375,0 0.484375,-0.34375 0,-0.234375 -0.203125,-0.234375 -0.40625,-0.234375 H 1.90625 c -0.203125,0 -0.59375,0 -1.03125,0.46875 -0.328125,0.359375 -0.609375,0.84375 -0.609375,0.890625 0,0.015625 0,0.109375 0.125,0.109375 0.078125,0 0.09375,-0.046875 0.15625,-0.125 C 1.03125,-3.71875 1.609375,-3.71875 1.8125,-3.71875 h 0.828125 l -0.96875,3.203125 C 1.625,-0.40625 1.5625,-0.1875 1.5625,-0.15625 c 0,0.109375 0.078125,0.28125 0.296875,0.28125 0.328125,0 0.375,-0.28125 0.40625,-0.4375 z m 0,0"
               id="id-c28493df-f8fb-46a1-9891-fa3c639beeea" />
          </g>
        </g>
        <g
           style="fill:#000000;fill-opacity:1"
           id="id-d0516c13-a3ca-4319-bdba-bc06a660fff1">
          <g
             transform="translate(311.353,146.72)"
             id="g19">
            <path
               style="stroke:none;stroke-width:0"
               d="m 2.875,-2.5 c 0,-0.765625 -0.109375,-1.96875 -0.65625,-3.109375 -0.59375,-1.21875 -1.453125,-1.875 -1.546875,-1.875 -0.0625,0 -0.109375,0.046875 -0.109375,0.109375 0,0.03125 0,0.046875 0.1875,0.234375 0.984375,0.984375 1.546875,2.5625 1.546875,4.640625 0,1.71875 -0.359375,3.46875 -1.59375,4.71875 C 0.5625,2.34375 0.5625,2.359375 0.5625,2.390625 0.5625,2.453125 0.609375,2.5 0.671875,2.5 0.765625,2.5 1.671875,1.8125 2.25,0.546875 2.765625,-0.546875 2.875,-1.65625 2.875,-2.5 Z m 0,0"
               id="id-34e7bc98-86c1-4ce9-868e-1e8cc73ae0a2" />
          </g>
        </g>
      </g>
    </g>
  </g>
  <g
     transform="matrix(1.41111,0,0,1.41111,89.187655,121.07023)"
     ns2:version="1.11.0"
     ns2:texconverter="pdflatex"
     ns2:pdfconverter="inkscape"
     ns2:text="$$\\mathcal{S}_\\tau$$"
     ns2:preamble="/home/msurov/.config/inkscape/extensions/textext/default_packages.tex"
     ns2:scale="4.0"
     ns2:alignment="middle center"
     ns2:inkscapeversion="1.4"
     ns2:jacobian_sqrt="1.41111"
     id="g8">
    <defs
       id="id-c435ef95-879f-4286-8ac2-b38fdeb67dfd">
      <g
         id="id-432703cc-4b4d-4d79-ac6b-68df356b999a">
        <symbol
           overflow="visible"
           id="id-3de4afa0-f4f1-4529-a80a-560f43fbcc0a">
          <path
             style="stroke:none;stroke-width:0"
             d=""
             id="id-8cfdbd33-bb4b-48eb-9ad6-9798c7a693c5" />
        </symbol>
        <symbol
           overflow="visible"
           id="id-410488f1-2af5-4862-b031-fcc8514f6cca">
          <path
             style="stroke:none;stroke-width:0"
             d="m 1.140625,-2.1875 c 0.125,-0.046875 0.46875,-0.265625 0.46875,-0.40625 0,-0.0625 -0.046875,-0.0625 -0.109375,-0.0625 -0.34375,0 -1.328125,0.421875 -1.328125,1.421875 0,0.71875 0.8125,1.453125 2.03125,1.453125 1.625,0 3.515625,-1.125 3.515625,-2.484375 0,-0.9375 -1,-1.40625 -1.8125,-1.765625 C 3.203125,-4.34375 2.75,-4.75 2.75,-5.328125 2.75,-5.53125 2.84375,-5.921875 3.15625,-6.1875 3.453125,-6.453125 4,-6.484375 4.140625,-6.484375 c 0.109375,0 0.53125,0.015625 0.96875,0.203125 0.1875,0.09375 0.4375,0.203125 0.4375,0.640625 0,0.140625 0,0.1875 -0.03125,0.296875 C 5.5,-5.3125 5.5,-5.28125 5.5,-5.25 c 0,0.078125 0.046875,0.078125 0.09375,0.078125 0.125,0 0.375,-0.109375 0.5625,-0.265625 0.140625,-0.109375 0.25,-0.234375 0.25,-0.625 0,-0.484375 -0.265625,-0.625 -0.53125,-0.75 -0.46875,-0.21875 -0.9375,-0.21875 -1.0625,-0.21875 -1.3125,0 -2.90625,1 -2.90625,2.140625 0,0.828125 0.859375,1.234375 1.34375,1.4375 0.703125,0.328125 1.609375,0.78125 1.609375,1.625 0,0.65625 -0.484375,1.5 -2,1.5 -1.015625,0 -1.828125,-0.65625 -1.828125,-1.34375 0,-0.171875 0.046875,-0.359375 0.109375,-0.515625 z m 0,0"
             id="id-6544125b-b650-4704-971f-bc40889ad69a" />
        </symbol>
        <symbol
           overflow="visible"
           id="id-b5467685-eec8-47a6-884f-63f1afc48634">
          <path
             style="stroke:none;stroke-width:0"
             d=""
             id="id-716e31cc-661d-4289-aa8a-5a543f24f60d" />
        </symbol>
        <symbol
           overflow="visible"
           id="id-3ee8a0bc-362f-48b4-9cfa-14d30ca16296">
          <path
             style="stroke:none;stroke-width:0"
             d="M 2.390625,-2.53125 H 3.6875 c 0.078125,0 0.375,0 0.375,-0.28125 C 4.0625,-3 3.875,-3 3.75,-3 H 1.5625 c -0.203125,0 -0.421875,0.015625 -0.78125,0.34375 -0.203125,0.1875 -0.46875,0.546875 -0.46875,0.609375 0,0.078125 0.09375,0.078125 0.125,0.078125 0.078125,0 0.078125,-0.015625 0.125,-0.078125 C 0.90625,-2.53125 1.34375,-2.53125 1.5,-2.53125 h 0.625 l -0.703125,2.234375 c -0.03125,0.109375 -0.03125,0.109375 -0.03125,0.15625 0,0.1875 0.171875,0.21875 0.234375,0.21875 0.265625,0 0.3125,-0.25 0.328125,-0.34375 z m 0,0"
             id="id-bca108e8-f69a-4ec2-b243-8ce5419780b0" />
        </symbol>
      </g>
    </defs>
    <g
       id="id-4b6881a1-4e87-469c-b6c6-52fc5868155f"
       transform="translate(-300.29,-139.689)">
      <g
         style="fill:#000000;fill-opacity:1"
         id="id-3ebff3cf-c230-4523-b78d-eaacf0ff38ca">
        <g
           transform="translate(300.118,146.72)"
           id="g6">
          <path
             style="stroke:none;stroke-width:0"
             d="m 1.140625,-2.1875 c 0.125,-0.046875 0.46875,-0.265625 0.46875,-0.40625 0,-0.0625 -0.046875,-0.0625 -0.109375,-0.0625 -0.34375,0 -1.328125,0.421875 -1.328125,1.421875 0,0.71875 0.8125,1.453125 2.03125,1.453125 1.625,0 3.515625,-1.125 3.515625,-2.484375 0,-0.9375 -1,-1.40625 -1.8125,-1.765625 C 3.203125,-4.34375 2.75,-4.75 2.75,-5.328125 2.75,-5.53125 2.84375,-5.921875 3.15625,-6.1875 3.453125,-6.453125 4,-6.484375 4.140625,-6.484375 c 0.109375,0 0.53125,0.015625 0.96875,0.203125 0.1875,0.09375 0.4375,0.203125 0.4375,0.640625 0,0.140625 0,0.1875 -0.03125,0.296875 C 5.5,-5.3125 5.5,-5.28125 5.5,-5.25 c 0,0.078125 0.046875,0.078125 0.09375,0.078125 0.125,0 0.375,-0.109375 0.5625,-0.265625 0.140625,-0.109375 0.25,-0.234375 0.25,-0.625 0,-0.484375 -0.265625,-0.625 -0.53125,-0.75 -0.46875,-0.21875 -0.9375,-0.21875 -1.0625,-0.21875 -1.3125,0 -2.90625,1 -2.90625,2.140625 0,0.828125 0.859375,1.234375 1.34375,1.4375 0.703125,0.328125 1.609375,0.78125 1.609375,1.625 0,0.65625 -0.484375,1.5 -2,1.5 -1.015625,0 -1.828125,-0.65625 -1.828125,-1.34375 0,-0.171875 0.046875,-0.359375 0.109375,-0.515625 z m 0,0"
             id="id-84a8c299-5e51-4c97-a243-35b4f766e6d9" />
        </g>
      </g>
      <g
         style="fill:#000000;fill-opacity:1"
         id="id-c2b8edda-9196-4501-9a7b-d551231adb59">
        <g
           transform="translate(306.151,148.214)"
           id="g7">
          <path
             style="stroke:none;stroke-width:0"
             d="M 2.390625,-2.53125 H 3.6875 c 0.078125,0 0.375,0 0.375,-0.28125 C 4.0625,-3 3.875,-3 3.75,-3 H 1.5625 c -0.203125,0 -0.421875,0.015625 -0.78125,0.34375 -0.203125,0.1875 -0.46875,0.546875 -0.46875,0.609375 0,0.078125 0.09375,0.078125 0.125,0.078125 0.078125,0 0.078125,-0.015625 0.125,-0.078125 C 0.90625,-2.53125 1.34375,-2.53125 1.5,-2.53125 h 0.625 l -0.703125,2.234375 c -0.03125,0.109375 -0.03125,0.109375 -0.03125,0.15625 0,0.1875 0.171875,0.21875 0.234375,0.21875 0.265625,0 0.3125,-0.25 0.328125,-0.34375 z m 0,0"
             id="id-b5f7fde3-0308-4598-a517-51d6497f69ec" />
        </g>
      </g>
    </g>
  </g>
</svg>
