<?xml version="1.0" encoding="utf-8" standalone="no"?>
<!DOCTYPE svg PUBLIC "-//W3C//DTD SVG 1.1//EN"
  "http://www.w3.org/Graphics/SVG/1.1/DTD/svg11.dtd">
<svg xmlns:xlink="http://www.w3.org/1999/xlink" width="437.392015pt" height="219.592875pt" viewBox="0 0 437.392015 219.592875" xmlns="http://www.w3.org/2000/svg" version="1.1">
 <metadata>
  <rdf:RDF xmlns:dc="http://purl.org/dc/elements/1.1/" xmlns:cc="http://creativecommons.org/ns#" xmlns:rdf="http://www.w3.org/1999/02/22-rdf-syntax-ns#">
   <cc:Work>
    <dc:type rdf:resource="http://purl.org/dc/dcmitype/StillImage"/>
    <dc:date>2025-11-08T19:26:43.854846</dc:date>
    <dc:format>image/svg+xml</dc:format>
    <dc:creator>
     <cc:Agent>
      <dc:title>Matplotlib v3.10.3, https://matplotlib.org/</dc:title>
     </cc:Agent>
    </dc:creator>
   </cc:Work>
  </rdf:RDF>
 </metadata>
 <defs>
  <style type="text/css">*{stroke-linejoin: round; stroke-linecap: butt}</style>
 </defs>
 <g id="figure_1">
  <g id="patch_1">
   <path d="M 0 219.592875 
L 437.392015 219.592875 
L 437.392015 -0 
L 0 -0 
z
" style="fill: #ffffff"/>
  </g>
  <g id="axes_1">
   <g id="patch_2">
    <path d="M 22.057642 187.468194 
L 214.01512 187.468194 
L 214.01512 3.6 
L 22.057642 3.6 
z
" style="fill: #ffffff"/>
   </g>
   <g id="matplotlib.axis_1">
    <g id="xtick_1">
     <g id="line2d_1">
      <path d="M 30.782982 187.468194 
L 30.782982 3.6 
" clip-path="url(#p726ed33933)" style="fill: none; stroke: #b0b0b0; stroke-width: 0.5; stroke-linecap: square"/>
     </g>
     <g id="line2d_2">
      <defs>
       <path id="m94c5d58a64" d="M 0 0 
L 0 -3 
" style="stroke: #000000; stroke-width: 0.5"/>
      </defs>
      <g>
       <use xlink:href="#m94c5d58a64" x="30.782982" y="187.468194" style="stroke: #000000; stroke-width: 0.5"/>
      </g>
     </g>
     <g id="line2d_3">
      <defs>
       <path id="mc900730a4b" d="M 0 0 
L 0 3 
" style="stroke: #000000; stroke-width: 0.5"/>
      </defs>
      <g>
       <use xlink:href="#mc900730a4b" x="30.782982" y="3.6" style="stroke: #000000; stroke-width: 0.5"/>
      </g>
     </g>
     <g id="text_1">
      <!-- 0 -->
      <g transform="translate(27.856487 199.270374) scale(0.12 -0.12)">
       <defs>
        <path id="CMR17-30" d="M 2688 2025 
C 2688 2416 2682 3080 2413 3591 
C 2176 4039 1798 4198 1466 4198 
C 1158 4198 768 4058 525 3597 
C 269 3118 243 2524 243 2025 
C 243 1661 250 1106 448 619 
C 723 -39 1216 -128 1466 -128 
C 1760 -128 2208 -7 2470 600 
C 2662 1042 2688 1559 2688 2025 
z
M 1466 -26 
C 1056 -26 813 325 723 812 
C 653 1188 653 1738 653 2096 
C 653 2588 653 2997 736 3387 
C 858 3929 1216 4096 1466 4096 
C 1728 4096 2067 3923 2189 3400 
C 2272 3036 2278 2607 2278 2096 
C 2278 1680 2278 1169 2202 792 
C 2067 95 1690 -26 1466 -26 
z
" transform="scale(0.015625)"/>
       </defs>
       <use xlink:href="#CMR17-30" transform="scale(0.996264)"/>
      </g>
     </g>
    </g>
    <g id="xtick_2">
     <g id="line2d_4">
      <path d="M 74.409681 187.468194 
L 74.409681 3.6 
" clip-path="url(#p726ed33933)" style="fill: none; stroke: #b0b0b0; stroke-width: 0.5; stroke-linecap: square"/>
     </g>
     <g id="line2d_5">
      <g>
       <use xlink:href="#m94c5d58a64" x="74.409681" y="187.468194" style="stroke: #000000; stroke-width: 0.5"/>
      </g>
     </g>
     <g id="line2d_6">
      <g>
       <use xlink:href="#mc900730a4b" x="74.409681" y="3.6" style="stroke: #000000; stroke-width: 0.5"/>
      </g>
     </g>
     <g id="text_2">
      <!-- 0.523 -->
      <g transform="translate(61.07787 199.270374) scale(0.12 -0.12)">
       <defs>
        <path id="CMR17-2e" d="M 1062 261 
C 1062 420 934 522 800 522 
C 672 522 538 420 538 261 
C 538 102 666 0 800 0 
C 928 0 1062 102 1062 261 
z
" transform="scale(0.015625)"/>
        <path id="CMR17-35" d="M 730 3692 
C 794 3666 1056 3584 1325 3584 
C 1920 3584 2246 3911 2432 4100 
C 2432 4157 2432 4192 2394 4192 
C 2387 4192 2374 4192 2323 4163 
C 2099 4058 1837 3973 1517 3973 
C 1325 3973 1037 3999 723 4139 
C 653 4171 640 4171 634 4171 
C 602 4171 595 4164 595 4037 
L 595 2203 
C 595 2089 595 2057 659 2057 
C 691 2057 704 2070 736 2114 
C 941 2401 1222 2522 1542 2522 
C 1766 2522 2246 2382 2246 1289 
C 2246 1085 2246 715 2054 421 
C 1894 159 1645 25 1370 25 
C 947 25 518 320 403 814 
C 429 807 480 795 506 795 
C 589 795 749 840 749 1038 
C 749 1210 627 1280 506 1280 
C 358 1280 262 1190 262 1011 
C 262 454 704 -128 1382 -128 
C 2042 -128 2669 440 2669 1264 
C 2669 2030 2170 2624 1549 2624 
C 1222 2624 947 2503 730 2274 
L 730 3692 
z
" transform="scale(0.015625)"/>
        <path id="CMR17-32" d="M 2669 989 
L 2554 989 
C 2490 536 2438 459 2413 420 
C 2381 369 1920 369 1830 369 
L 602 369 
C 832 619 1280 1072 1824 1597 
C 2214 1967 2669 2402 2669 3035 
C 2669 3790 2067 4224 1395 4224 
C 691 4224 262 3604 262 3030 
C 262 2780 448 2748 525 2748 
C 589 2748 781 2787 781 3010 
C 781 3207 614 3264 525 3264 
C 486 3264 448 3258 422 3245 
C 544 3790 915 4058 1306 4058 
C 1862 4058 2227 3617 2227 3035 
C 2227 2479 1901 2000 1536 1584 
L 262 146 
L 262 0 
L 2515 0 
L 2669 989 
z
" transform="scale(0.015625)"/>
        <path id="CMR17-33" d="M 1414 2157 
C 1984 2157 2234 1662 2234 1090 
C 2234 320 1824 25 1453 25 
C 1114 25 563 194 390 693 
C 422 680 454 680 486 680 
C 640 680 755 782 755 948 
C 755 1133 614 1216 486 1216 
C 378 1216 211 1165 211 926 
C 211 335 787 -128 1466 -128 
C 2176 -128 2720 430 2720 1085 
C 2720 1707 2208 2157 1600 2227 
C 2086 2328 2554 2756 2554 3329 
C 2554 3820 2048 4179 1472 4179 
C 890 4179 378 3829 378 3329 
C 378 3110 544 3072 627 3072 
C 762 3072 877 3155 877 3321 
C 877 3486 762 3569 627 3569 
C 602 3569 570 3569 544 3557 
C 730 3959 1235 4032 1459 4032 
C 1683 4032 2106 3925 2106 3320 
C 2106 3143 2080 2828 1862 2550 
C 1670 2304 1453 2304 1242 2284 
C 1210 2284 1062 2269 1037 2269 
C 992 2263 966 2257 966 2208 
C 966 2163 973 2157 1101 2157 
L 1414 2157 
z
" transform="scale(0.015625)"/>
       </defs>
       <use xlink:href="#CMR17-30" transform="scale(0.996264)"/>
       <use xlink:href="#CMR17-2e" transform="translate(45.690477 0) scale(0.996264)"/>
       <use xlink:href="#CMR17-35" transform="translate(70.561536 0) scale(0.996264)"/>
       <use xlink:href="#CMR17-32" transform="translate(116.252013 0) scale(0.996264)"/>
       <use xlink:href="#CMR17-33" transform="translate(161.94249 0) scale(0.996264)"/>
      </g>
     </g>
    </g>
    <g id="xtick_3">
     <g id="line2d_7">
      <path d="M 118.036381 187.468194 
L 118.036381 3.6 
" clip-path="url(#p726ed33933)" style="fill: none; stroke: #b0b0b0; stroke-width: 0.5; stroke-linecap: square"/>
     </g>
     <g id="line2d_8">
      <g>
       <use xlink:href="#m94c5d58a64" x="118.036381" y="187.468194" style="stroke: #000000; stroke-width: 0.5"/>
      </g>
     </g>
     <g id="line2d_9">
      <g>
       <use xlink:href="#mc900730a4b" x="118.036381" y="3.6" style="stroke: #000000; stroke-width: 0.5"/>
      </g>
     </g>
     <g id="text_3">
      <!-- 1.05 -->
      <g transform="translate(107.631065 199.270374) scale(0.12 -0.12)">
       <defs>
        <path id="CMR17-31" d="M 1702 4058 
C 1702 4192 1696 4192 1606 4192 
C 1357 3916 979 3827 621 3827 
C 602 3827 570 3827 563 3808 
C 557 3795 557 3782 557 3648 
C 755 3648 1088 3686 1344 3839 
L 1344 461 
C 1344 236 1331 160 781 160 
L 589 160 
L 589 0 
C 896 0 1216 0 1523 0 
C 1830 0 2150 0 2458 0 
L 2458 160 
L 2266 160 
C 1715 160 1702 230 1702 458 
L 1702 4058 
z
" transform="scale(0.015625)"/>
       </defs>
       <use xlink:href="#CMR17-31" transform="scale(0.996264)"/>
       <use xlink:href="#CMR17-2e" transform="translate(45.690477 0) scale(0.996264)"/>
       <use xlink:href="#CMR17-30" transform="translate(70.561536 0) scale(0.996264)"/>
       <use xlink:href="#CMR17-35" transform="translate(116.252013 0) scale(0.996264)"/>
      </g>
     </g>
    </g>
    <g id="xtick_4">
     <g id="line2d_10">
      <path d="M 161.663081 187.468194 
L 161.663081 3.6 
" clip-path="url(#p726ed33933)" style="fill: none; stroke: #b0b0b0; stroke-width: 0.5; stroke-linecap: square"/>
     </g>
     <g id="line2d_11">
      <g>
       <use xlink:href="#m94c5d58a64" x="161.663081" y="187.468194" style="stroke: #000000; stroke-width: 0.5"/>
      </g>
     </g>
     <g id="line2d_12">
      <g>
       <use xlink:href="#mc900730a4b" x="161.663081" y="3.6" style="stroke: #000000; stroke-width: 0.5"/>
      </g>
     </g>
     <g id="text_4">
      <!-- 1.57 -->
      <g transform="translate(151.257765 199.270374) scale(0.12 -0.12)">
       <defs>
        <path id="CMR17-37" d="M 2886 3941 
L 2886 4081 
L 1382 4081 
C 634 4081 621 4165 595 4288 
L 480 4288 
L 294 3094 
L 410 3094 
C 429 3215 474 3540 550 3661 
C 589 3712 1062 3712 1171 3712 
L 2579 3712 
L 1869 2661 
C 1395 1954 1069 999 1069 165 
C 1069 89 1069 -128 1299 -128 
C 1530 -128 1530 89 1530 171 
L 1530 465 
C 1530 1508 1709 2196 2003 2636 
L 2886 3941 
z
" transform="scale(0.015625)"/>
       </defs>
       <use xlink:href="#CMR17-31" transform="scale(0.996264)"/>
       <use xlink:href="#CMR17-2e" transform="translate(45.690477 0) scale(0.996264)"/>
       <use xlink:href="#CMR17-35" transform="translate(70.561536 0) scale(0.996264)"/>
       <use xlink:href="#CMR17-37" transform="translate(116.252013 0) scale(0.996264)"/>
      </g>
     </g>
    </g>
    <g id="xtick_5">
     <g id="line2d_13">
      <path d="M 205.28978 187.468194 
L 205.28978 3.6 
" clip-path="url(#p726ed33933)" style="fill: none; stroke: #b0b0b0; stroke-width: 0.5; stroke-linecap: square"/>
     </g>
     <g id="line2d_14">
      <g>
       <use xlink:href="#m94c5d58a64" x="205.28978" y="187.468194" style="stroke: #000000; stroke-width: 0.5"/>
      </g>
     </g>
     <g id="line2d_15">
      <g>
       <use xlink:href="#mc900730a4b" x="205.28978" y="3.6" style="stroke: #000000; stroke-width: 0.5"/>
      </g>
     </g>
     <g id="text_5">
      <!-- 2.09 -->
      <g transform="translate(194.884464 199.270374) scale(0.12 -0.12)">
       <defs>
        <path id="CMR17-39" d="M 2253 1864 
C 2253 464 1670 31 1190 31 
C 1043 31 685 31 538 294 
C 704 268 826 357 826 518 
C 826 692 685 749 595 749 
C 538 749 365 723 365 506 
C 365 71 742 -128 1203 -128 
C 1939 -128 2688 674 2688 2073 
C 2688 3817 1971 4179 1485 4179 
C 851 4179 243 3628 243 2778 
C 243 1991 762 1408 1414 1408 
C 1952 1408 2189 1903 2253 2112 
L 2253 1864 
z
M 1427 1510 
C 1254 1510 1011 1542 813 1922 
C 678 2169 678 2461 678 2771 
C 678 3146 678 3405 858 3684 
C 947 3817 1114 4032 1485 4032 
C 2240 4032 2240 2885 2240 2632 
C 2240 2182 2035 1510 1427 1510 
z
" transform="scale(0.015625)"/>
       </defs>
       <use xlink:href="#CMR17-32" transform="scale(0.996264)"/>
       <use xlink:href="#CMR17-2e" transform="translate(45.690477 0) scale(0.996264)"/>
       <use xlink:href="#CMR17-30" transform="translate(70.561536 0) scale(0.996264)"/>
       <use xlink:href="#CMR17-39" transform="translate(116.252013 0) scale(0.996264)"/>
      </g>
     </g>
    </g>
    <g id="xtick_6">
     <g id="line2d_16">
      <defs>
       <path id="mcc290b746d" d="M 0 0 
L 0 -1.5 
" style="stroke: #000000; stroke-width: 0.5"/>
      </defs>
      <g>
       <use xlink:href="#mcc290b746d" x="41.689657" y="187.468194" style="stroke: #000000; stroke-width: 0.5"/>
      </g>
     </g>
     <g id="line2d_17">
      <defs>
       <path id="mb34d4116b3" d="M 0 0 
L 0 1.5 
" style="stroke: #000000; stroke-width: 0.5"/>
      </defs>
      <g>
       <use xlink:href="#mb34d4116b3" x="41.689657" y="3.6" style="stroke: #000000; stroke-width: 0.5"/>
      </g>
     </g>
    </g>
    <g id="xtick_7">
     <g id="line2d_18">
      <g>
       <use xlink:href="#mcc290b746d" x="52.596332" y="187.468194" style="stroke: #000000; stroke-width: 0.5"/>
      </g>
     </g>
     <g id="line2d_19">
      <g>
       <use xlink:href="#mb34d4116b3" x="52.596332" y="3.6" style="stroke: #000000; stroke-width: 0.5"/>
      </g>
     </g>
    </g>
    <g id="xtick_8">
     <g id="line2d_20">
      <g>
       <use xlink:href="#mcc290b746d" x="63.503006" y="187.468194" style="stroke: #000000; stroke-width: 0.5"/>
      </g>
     </g>
     <g id="line2d_21">
      <g>
       <use xlink:href="#mb34d4116b3" x="63.503006" y="3.6" style="stroke: #000000; stroke-width: 0.5"/>
      </g>
     </g>
    </g>
    <g id="xtick_9">
     <g id="line2d_22">
      <g>
       <use xlink:href="#mcc290b746d" x="85.316356" y="187.468194" style="stroke: #000000; stroke-width: 0.5"/>
      </g>
     </g>
     <g id="line2d_23">
      <g>
       <use xlink:href="#mb34d4116b3" x="85.316356" y="3.6" style="stroke: #000000; stroke-width: 0.5"/>
      </g>
     </g>
    </g>
    <g id="xtick_10">
     <g id="line2d_24">
      <g>
       <use xlink:href="#mcc290b746d" x="96.223031" y="187.468194" style="stroke: #000000; stroke-width: 0.5"/>
      </g>
     </g>
     <g id="line2d_25">
      <g>
       <use xlink:href="#mb34d4116b3" x="96.223031" y="3.6" style="stroke: #000000; stroke-width: 0.5"/>
      </g>
     </g>
    </g>
    <g id="xtick_11">
     <g id="line2d_26">
      <g>
       <use xlink:href="#mcc290b746d" x="107.129706" y="187.468194" style="stroke: #000000; stroke-width: 0.5"/>
      </g>
     </g>
     <g id="line2d_27">
      <g>
       <use xlink:href="#mb34d4116b3" x="107.129706" y="3.6" style="stroke: #000000; stroke-width: 0.5"/>
      </g>
     </g>
    </g>
    <g id="xtick_12">
     <g id="line2d_28">
      <g>
       <use xlink:href="#mcc290b746d" x="128.943056" y="187.468194" style="stroke: #000000; stroke-width: 0.5"/>
      </g>
     </g>
     <g id="line2d_29">
      <g>
       <use xlink:href="#mb34d4116b3" x="128.943056" y="3.6" style="stroke: #000000; stroke-width: 0.5"/>
      </g>
     </g>
    </g>
    <g id="xtick_13">
     <g id="line2d_30">
      <g>
       <use xlink:href="#mcc290b746d" x="139.849731" y="187.468194" style="stroke: #000000; stroke-width: 0.5"/>
      </g>
     </g>
     <g id="line2d_31">
      <g>
       <use xlink:href="#mb34d4116b3" x="139.849731" y="3.6" style="stroke: #000000; stroke-width: 0.5"/>
      </g>
     </g>
    </g>
    <g id="xtick_14">
     <g id="line2d_32">
      <g>
       <use xlink:href="#mcc290b746d" x="150.756406" y="187.468194" style="stroke: #000000; stroke-width: 0.5"/>
      </g>
     </g>
     <g id="line2d_33">
      <g>
       <use xlink:href="#mb34d4116b3" x="150.756406" y="3.6" style="stroke: #000000; stroke-width: 0.5"/>
      </g>
     </g>
    </g>
    <g id="xtick_15">
     <g id="line2d_34">
      <g>
       <use xlink:href="#mcc290b746d" x="172.569756" y="187.468194" style="stroke: #000000; stroke-width: 0.5"/>
      </g>
     </g>
     <g id="line2d_35">
      <g>
       <use xlink:href="#mb34d4116b3" x="172.569756" y="3.6" style="stroke: #000000; stroke-width: 0.5"/>
      </g>
     </g>
    </g>
    <g id="xtick_16">
     <g id="line2d_36">
      <g>
       <use xlink:href="#mcc290b746d" x="183.476431" y="187.468194" style="stroke: #000000; stroke-width: 0.5"/>
      </g>
     </g>
     <g id="line2d_37">
      <g>
       <use xlink:href="#mb34d4116b3" x="183.476431" y="3.6" style="stroke: #000000; stroke-width: 0.5"/>
      </g>
     </g>
    </g>
    <g id="xtick_17">
     <g id="line2d_38">
      <g>
       <use xlink:href="#mcc290b746d" x="194.383106" y="187.468194" style="stroke: #000000; stroke-width: 0.5"/>
      </g>
     </g>
     <g id="line2d_39">
      <g>
       <use xlink:href="#mb34d4116b3" x="194.383106" y="3.6" style="stroke: #000000; stroke-width: 0.5"/>
      </g>
     </g>
    </g>
    <g id="text_6">
     <!-- $\tau$, sec -->
     <g transform="translate(101.355815 213.280846) scale(0.14 -0.14)">
      <defs>
       <path id="CMMI12-1c" d="M 1837 2408 
L 2899 2408 
C 2982 2408 3194 2408 3194 2612 
C 3194 2752 3072 2752 2957 2752 
L 1197 2752 
C 1050 2752 832 2752 538 2440 
C 371 2255 166 1917 166 1879 
C 166 1841 198 1828 237 1828 
C 282 1828 288 1847 320 1885 
C 653 2408 986 2408 1146 2408 
L 1677 2408 
L 1011 223 
C 979 127 979 114 979 95 
C 979 25 1024 -64 1152 -64 
C 1350 -64 1382 108 1402 203 
L 1837 2408 
z
" transform="scale(0.015625)"/>
       <path id="CMR17-2c" d="M 1011 102 
C 1024 45 1024 25 1024 -77 
C 1024 -463 896 -817 627 -1139 
C 595 -1170 595 -1183 595 -1197 
C 595 -1222 621 -1248 646 -1248 
C 685 -1248 1126 -799 1126 -87 
C 1126 124 1101 522 800 522 
C 659 522 538 427 538 261 
C 538 96 659 0 800 0 
C 877 0 960 32 1011 102 
z
" transform="scale(0.015625)"/>
       <path id="CMR17-73" d="M 1978 2697 
C 1978 2813 1971 2819 1933 2819 
C 1907 2819 1901 2813 1824 2717 
C 1805 2691 1747 2626 1728 2601 
C 1523 2819 1235 2819 1126 2819 
C 416 2819 160 2447 160 2076 
C 160 1498 813 1365 998 1325 
C 1402 1243 1542 1217 1677 1101 
C 1760 1025 1901 884 1901 654 
C 1901 384 1747 38 1158 38 
C 602 38 403 460 288 1021 
C 269 1110 269 1117 218 1117 
C 166 1117 160 1110 160 983 
L 160 63 
C 160 -51 166 -58 205 -58 
C 237 -58 243 -51 275 0 
C 314 57 410 211 448 276 
C 576 103 800 -64 1158 -64 
C 1792 -64 2131 283 2131 784 
C 2131 1112 1958 1285 1875 1362 
C 1683 1561 1459 1606 1190 1657 
C 838 1735 390 1825 390 2217 
C 390 2383 480 2737 1126 2737 
C 1811 2737 1850 2094 1862 1888 
C 1869 1856 1901 1849 1920 1849 
C 1978 1849 1978 1869 1978 1978 
L 1978 2697 
z
" transform="scale(0.015625)"/>
       <path id="CMR17-65" d="M 2438 1472 
C 2464 1498 2464 1511 2464 1576 
C 2464 2238 2118 2816 1389 2816 
C 710 2816 173 2169 173 1383 
C 173 551 781 -64 1459 -64 
C 2176 -64 2458 607 2458 740 
C 2458 784 2419 784 2406 784 
C 2362 784 2355 771 2330 696 
C 2189 265 1837 51 1504 51 
C 1229 51 954 203 781 480 
C 582 803 582 1176 582 1472 
L 2438 1472 
z
M 589 1568 
C 634 2505 1126 2714 1382 2714 
C 1818 2714 2112 2297 2118 1568 
L 589 1568 
z
" transform="scale(0.015625)"/>
       <path id="CMR17-63" d="M 2234 2240 
C 2112 2240 1933 2240 1933 2017 
C 1933 1838 2080 1787 2163 1787 
C 2208 1787 2394 1807 2394 2024 
C 2394 2467 1958 2803 1466 2803 
C 787 2803 211 2178 211 1363 
C 211 516 813 -64 1466 -64 
C 2259 -64 2458 677 2458 748 
C 2458 774 2451 793 2406 793 
C 2362 793 2355 787 2330 703 
C 2163 180 1798 51 1523 51 
C 1114 51 621 427 621 1369 
C 621 2338 1094 2688 1472 2688 
C 1722 2688 2093 2573 2234 2240 
z
" transform="scale(0.015625)"/>
      </defs>
      <use xlink:href="#CMMI12-1c" transform="scale(0.996264)"/>
      <use xlink:href="#CMR17-2c" transform="translate(53.491165 0) scale(0.996264)"/>
      <use xlink:href="#CMR17-73" transform="translate(108.43819 0) scale(0.996264)"/>
      <use xlink:href="#CMR17-65" transform="translate(144.239528 0) scale(0.996264)"/>
      <use xlink:href="#CMR17-63" transform="translate(184.725188 0) scale(0.996264)"/>
     </g>
    </g>
   </g>
   <g id="matplotlib.axis_2">
    <g id="ytick_1">
     <g id="line2d_40">
      <path d="M 22.057642 169.955413 
L 214.01512 169.955413 
" clip-path="url(#p726ed33933)" style="fill: none; stroke: #b0b0b0; stroke-width: 0.5; stroke-linecap: square"/>
     </g>
     <g id="line2d_41">
      <defs>
       <path id="m38e36867c9" d="M 0 0 
L 3 0 
" style="stroke: #000000; stroke-width: 0.5"/>
      </defs>
      <g>
       <use xlink:href="#m38e36867c9" x="22.057642" y="169.955413" style="stroke: #000000; stroke-width: 0.5"/>
      </g>
     </g>
     <g id="line2d_42">
      <defs>
       <path id="m8e8f6a9b38" d="M 0 0 
L -3 0 
" style="stroke: #000000; stroke-width: 0.5"/>
      </defs>
      <g>
       <use xlink:href="#m8e8f6a9b38" x="214.01512" y="169.955413" style="stroke: #000000; stroke-width: 0.5"/>
      </g>
     </g>
    </g>
    <g id="ytick_2">
     <g id="line2d_43">
      <path d="M 22.057642 142.936332 
L 214.01512 142.936332 
" clip-path="url(#p726ed33933)" style="fill: none; stroke: #b0b0b0; stroke-width: 0.5; stroke-linecap: square"/>
     </g>
     <g id="line2d_44">
      <g>
       <use xlink:href="#m38e36867c9" x="22.057642" y="142.936332" style="stroke: #000000; stroke-width: 0.5"/>
      </g>
     </g>
     <g id="line2d_45">
      <g>
       <use xlink:href="#m8e8f6a9b38" x="214.01512" y="142.936332" style="stroke: #000000; stroke-width: 0.5"/>
      </g>
     </g>
     <g id="text_7">
      <!-- $0$ -->
      <g transform="translate(12.704652 147.087422) scale(0.12 -0.12)">
       <use xlink:href="#CMR17-30" transform="scale(0.996264)"/>
      </g>
     </g>
    </g>
    <g id="ytick_3">
     <g id="line2d_46">
      <path d="M 22.057642 115.917251 
L 214.01512 115.917251 
" clip-path="url(#p726ed33933)" style="fill: none; stroke: #b0b0b0; stroke-width: 0.5; stroke-linecap: square"/>
     </g>
     <g id="line2d_47">
      <g>
       <use xlink:href="#m38e36867c9" x="22.057642" y="115.917251" style="stroke: #000000; stroke-width: 0.5"/>
      </g>
     </g>
     <g id="line2d_48">
      <g>
       <use xlink:href="#m8e8f6a9b38" x="214.01512" y="115.917251" style="stroke: #000000; stroke-width: 0.5"/>
      </g>
     </g>
    </g>
    <g id="ytick_4">
     <g id="line2d_49">
      <path d="M 22.057642 88.89817 
L 214.01512 88.89817 
" clip-path="url(#p726ed33933)" style="fill: none; stroke: #b0b0b0; stroke-width: 0.5; stroke-linecap: square"/>
     </g>
     <g id="line2d_50">
      <g>
       <use xlink:href="#m38e36867c9" x="22.057642" y="88.89817" style="stroke: #000000; stroke-width: 0.5"/>
      </g>
     </g>
     <g id="line2d_51">
      <g>
       <use xlink:href="#m8e8f6a9b38" x="214.01512" y="88.89817" style="stroke: #000000; stroke-width: 0.5"/>
      </g>
     </g>
     <g id="text_8">
      <!-- $0.4$ -->
      <g transform="translate(3.6 93.04926) scale(0.12 -0.12)">
       <defs>
        <path id="CMMI12-3a" d="M 1178 307 
C 1178 492 1024 619 870 619 
C 685 619 557 466 557 313 
C 557 128 710 0 864 0 
C 1050 0 1178 153 1178 307 
z
" transform="scale(0.015625)"/>
        <path id="CMR17-34" d="M 2150 4122 
C 2150 4256 2144 4256 2029 4256 
L 128 1254 
L 128 1088 
L 1779 1088 
L 1779 457 
C 1779 224 1766 160 1318 160 
L 1197 160 
L 1197 0 
C 1402 0 1747 0 1965 0 
C 2182 0 2528 0 2733 0 
L 2733 160 
L 2611 160 
C 2163 160 2150 224 2150 457 
L 2150 1088 
L 2803 1088 
L 2803 1254 
L 2150 1254 
L 2150 4122 
z
M 1798 3703 
L 1798 1254 
L 256 1254 
L 1798 3703 
z
" transform="scale(0.015625)"/>
       </defs>
       <use xlink:href="#CMR17-30" transform="scale(0.996264)"/>
       <use xlink:href="#CMMI12-3a" transform="translate(45.690477 0) scale(0.996264)"/>
       <use xlink:href="#CMR17-34" transform="translate(72.787654 0) scale(0.996264)"/>
      </g>
     </g>
    </g>
    <g id="ytick_5">
     <g id="line2d_52">
      <path d="M 22.057642 61.87909 
L 214.01512 61.87909 
" clip-path="url(#p726ed33933)" style="fill: none; stroke: #b0b0b0; stroke-width: 0.5; stroke-linecap: square"/>
     </g>
     <g id="line2d_53">
      <g>
       <use xlink:href="#m38e36867c9" x="22.057642" y="61.87909" style="stroke: #000000; stroke-width: 0.5"/>
      </g>
     </g>
     <g id="line2d_54">
      <g>
       <use xlink:href="#m8e8f6a9b38" x="214.01512" y="61.87909" style="stroke: #000000; stroke-width: 0.5"/>
      </g>
     </g>
    </g>
    <g id="ytick_6">
     <g id="line2d_55">
      <path d="M 22.057642 34.860009 
L 214.01512 34.860009 
" clip-path="url(#p726ed33933)" style="fill: none; stroke: #b0b0b0; stroke-width: 0.5; stroke-linecap: square"/>
     </g>
     <g id="line2d_56">
      <g>
       <use xlink:href="#m38e36867c9" x="22.057642" y="34.860009" style="stroke: #000000; stroke-width: 0.5"/>
      </g>
     </g>
     <g id="line2d_57">
      <g>
       <use xlink:href="#m8e8f6a9b38" x="214.01512" y="34.860009" style="stroke: #000000; stroke-width: 0.5"/>
      </g>
     </g>
     <g id="text_9">
      <!-- $0.8$ -->
      <g transform="translate(3.6 39.011099) scale(0.12 -0.12)">
       <defs>
        <path id="CMR17-38" d="M 1741 2264 
C 2144 2467 2554 2773 2554 3263 
C 2554 3841 1990 4179 1472 4179 
C 890 4179 378 3759 378 3180 
C 378 3021 416 2747 666 2505 
C 730 2442 998 2251 1171 2130 
C 883 1983 211 1634 211 934 
C 211 279 838 -128 1459 -128 
C 2144 -128 2720 362 2720 1010 
C 2720 1590 2330 1857 2074 2029 
L 1741 2264 
z
M 902 2822 
C 851 2854 595 3051 595 3351 
C 595 3739 998 4032 1459 4032 
C 1965 4032 2336 3676 2336 3262 
C 2336 2669 1670 2331 1638 2331 
C 1632 2331 1626 2331 1574 2370 
L 902 2822 
z
M 2080 1519 
C 2176 1449 2483 1240 2483 851 
C 2483 381 2010 25 1472 25 
C 890 25 448 438 448 940 
C 448 1443 838 1862 1280 2060 
L 2080 1519 
z
" transform="scale(0.015625)"/>
       </defs>
       <use xlink:href="#CMR17-30" transform="scale(0.996264)"/>
       <use xlink:href="#CMMI12-3a" transform="translate(45.690477 0) scale(0.996264)"/>
       <use xlink:href="#CMR17-38" transform="translate(72.787654 0) scale(0.996264)"/>
      </g>
     </g>
    </g>
    <g id="ytick_7">
     <g id="line2d_58">
      <path d="M 22.057642 7.840928 
L 214.01512 7.840928 
" clip-path="url(#p726ed33933)" style="fill: none; stroke: #b0b0b0; stroke-width: 0.5; stroke-linecap: square"/>
     </g>
     <g id="line2d_59">
      <g>
       <use xlink:href="#m38e36867c9" x="22.057642" y="7.840928" style="stroke: #000000; stroke-width: 0.5"/>
      </g>
     </g>
     <g id="line2d_60">
      <g>
       <use xlink:href="#m8e8f6a9b38" x="214.01512" y="7.840928" style="stroke: #000000; stroke-width: 0.5"/>
      </g>
     </g>
    </g>
    <g id="ytick_8">
     <g id="line2d_61">
      <defs>
       <path id="m161c0f09d4" d="M 0 0 
L 1.5 0 
" style="stroke: #000000; stroke-width: 0.5"/>
      </defs>
      <g>
       <use xlink:href="#m161c0f09d4" x="22.057642" y="183.464953" style="stroke: #000000; stroke-width: 0.5"/>
      </g>
     </g>
     <g id="line2d_62">
      <defs>
       <path id="mc32469108d" d="M 0 0 
L -1.5 0 
" style="stroke: #000000; stroke-width: 0.5"/>
      </defs>
      <g>
       <use xlink:href="#mc32469108d" x="214.01512" y="183.464953" style="stroke: #000000; stroke-width: 0.5"/>
      </g>
     </g>
    </g>
    <g id="ytick_9">
     <g id="line2d_63">
      <g>
       <use xlink:href="#m161c0f09d4" x="22.057642" y="176.710183" style="stroke: #000000; stroke-width: 0.5"/>
      </g>
     </g>
     <g id="line2d_64">
      <g>
       <use xlink:href="#mc32469108d" x="214.01512" y="176.710183" style="stroke: #000000; stroke-width: 0.5"/>
      </g>
     </g>
    </g>
    <g id="ytick_10">
     <g id="line2d_65">
      <g>
       <use xlink:href="#m161c0f09d4" x="22.057642" y="163.200643" style="stroke: #000000; stroke-width: 0.5"/>
      </g>
     </g>
     <g id="line2d_66">
      <g>
       <use xlink:href="#mc32469108d" x="214.01512" y="163.200643" style="stroke: #000000; stroke-width: 0.5"/>
      </g>
     </g>
    </g>
    <g id="ytick_11">
     <g id="line2d_67">
      <g>
       <use xlink:href="#m161c0f09d4" x="22.057642" y="156.445873" style="stroke: #000000; stroke-width: 0.5"/>
      </g>
     </g>
     <g id="line2d_68">
      <g>
       <use xlink:href="#mc32469108d" x="214.01512" y="156.445873" style="stroke: #000000; stroke-width: 0.5"/>
      </g>
     </g>
    </g>
    <g id="ytick_12">
     <g id="line2d_69">
      <g>
       <use xlink:href="#m161c0f09d4" x="22.057642" y="149.691102" style="stroke: #000000; stroke-width: 0.5"/>
      </g>
     </g>
     <g id="line2d_70">
      <g>
       <use xlink:href="#mc32469108d" x="214.01512" y="149.691102" style="stroke: #000000; stroke-width: 0.5"/>
      </g>
     </g>
    </g>
    <g id="ytick_13">
     <g id="line2d_71">
      <g>
       <use xlink:href="#m161c0f09d4" x="22.057642" y="136.181562" style="stroke: #000000; stroke-width: 0.5"/>
      </g>
     </g>
     <g id="line2d_72">
      <g>
       <use xlink:href="#mc32469108d" x="214.01512" y="136.181562" style="stroke: #000000; stroke-width: 0.5"/>
      </g>
     </g>
    </g>
    <g id="ytick_14">
     <g id="line2d_73">
      <g>
       <use xlink:href="#m161c0f09d4" x="22.057642" y="129.426792" style="stroke: #000000; stroke-width: 0.5"/>
      </g>
     </g>
     <g id="line2d_74">
      <g>
       <use xlink:href="#mc32469108d" x="214.01512" y="129.426792" style="stroke: #000000; stroke-width: 0.5"/>
      </g>
     </g>
    </g>
    <g id="ytick_15">
     <g id="line2d_75">
      <g>
       <use xlink:href="#m161c0f09d4" x="22.057642" y="122.672022" style="stroke: #000000; stroke-width: 0.5"/>
      </g>
     </g>
     <g id="line2d_76">
      <g>
       <use xlink:href="#mc32469108d" x="214.01512" y="122.672022" style="stroke: #000000; stroke-width: 0.5"/>
      </g>
     </g>
    </g>
    <g id="ytick_16">
     <g id="line2d_77">
      <g>
       <use xlink:href="#m161c0f09d4" x="22.057642" y="109.162481" style="stroke: #000000; stroke-width: 0.5"/>
      </g>
     </g>
     <g id="line2d_78">
      <g>
       <use xlink:href="#mc32469108d" x="214.01512" y="109.162481" style="stroke: #000000; stroke-width: 0.5"/>
      </g>
     </g>
    </g>
    <g id="ytick_17">
     <g id="line2d_79">
      <g>
       <use xlink:href="#m161c0f09d4" x="22.057642" y="102.407711" style="stroke: #000000; stroke-width: 0.5"/>
      </g>
     </g>
     <g id="line2d_80">
      <g>
       <use xlink:href="#mc32469108d" x="214.01512" y="102.407711" style="stroke: #000000; stroke-width: 0.5"/>
      </g>
     </g>
    </g>
    <g id="ytick_18">
     <g id="line2d_81">
      <g>
       <use xlink:href="#m161c0f09d4" x="22.057642" y="95.652941" style="stroke: #000000; stroke-width: 0.5"/>
      </g>
     </g>
     <g id="line2d_82">
      <g>
       <use xlink:href="#mc32469108d" x="214.01512" y="95.652941" style="stroke: #000000; stroke-width: 0.5"/>
      </g>
     </g>
    </g>
    <g id="ytick_19">
     <g id="line2d_83">
      <g>
       <use xlink:href="#m161c0f09d4" x="22.057642" y="82.1434" style="stroke: #000000; stroke-width: 0.5"/>
      </g>
     </g>
     <g id="line2d_84">
      <g>
       <use xlink:href="#mc32469108d" x="214.01512" y="82.1434" style="stroke: #000000; stroke-width: 0.5"/>
      </g>
     </g>
    </g>
    <g id="ytick_20">
     <g id="line2d_85">
      <g>
       <use xlink:href="#m161c0f09d4" x="22.057642" y="75.38863" style="stroke: #000000; stroke-width: 0.5"/>
      </g>
     </g>
     <g id="line2d_86">
      <g>
       <use xlink:href="#mc32469108d" x="214.01512" y="75.38863" style="stroke: #000000; stroke-width: 0.5"/>
      </g>
     </g>
    </g>
    <g id="ytick_21">
     <g id="line2d_87">
      <g>
       <use xlink:href="#m161c0f09d4" x="22.057642" y="68.63386" style="stroke: #000000; stroke-width: 0.5"/>
      </g>
     </g>
     <g id="line2d_88">
      <g>
       <use xlink:href="#mc32469108d" x="214.01512" y="68.63386" style="stroke: #000000; stroke-width: 0.5"/>
      </g>
     </g>
    </g>
    <g id="ytick_22">
     <g id="line2d_89">
      <g>
       <use xlink:href="#m161c0f09d4" x="22.057642" y="55.124319" style="stroke: #000000; stroke-width: 0.5"/>
      </g>
     </g>
     <g id="line2d_90">
      <g>
       <use xlink:href="#mc32469108d" x="214.01512" y="55.124319" style="stroke: #000000; stroke-width: 0.5"/>
      </g>
     </g>
    </g>
    <g id="ytick_23">
     <g id="line2d_91">
      <g>
       <use xlink:href="#m161c0f09d4" x="22.057642" y="48.369549" style="stroke: #000000; stroke-width: 0.5"/>
      </g>
     </g>
     <g id="line2d_92">
      <g>
       <use xlink:href="#mc32469108d" x="214.01512" y="48.369549" style="stroke: #000000; stroke-width: 0.5"/>
      </g>
     </g>
    </g>
    <g id="ytick_24">
     <g id="line2d_93">
      <g>
       <use xlink:href="#m161c0f09d4" x="22.057642" y="41.614779" style="stroke: #000000; stroke-width: 0.5"/>
      </g>
     </g>
     <g id="line2d_94">
      <g>
       <use xlink:href="#mc32469108d" x="214.01512" y="41.614779" style="stroke: #000000; stroke-width: 0.5"/>
      </g>
     </g>
    </g>
    <g id="ytick_25">
     <g id="line2d_95">
      <g>
       <use xlink:href="#m161c0f09d4" x="22.057642" y="28.105239" style="stroke: #000000; stroke-width: 0.5"/>
      </g>
     </g>
     <g id="line2d_96">
      <g>
       <use xlink:href="#mc32469108d" x="214.01512" y="28.105239" style="stroke: #000000; stroke-width: 0.5"/>
      </g>
     </g>
    </g>
    <g id="ytick_26">
     <g id="line2d_97">
      <g>
       <use xlink:href="#m161c0f09d4" x="22.057642" y="21.350468" style="stroke: #000000; stroke-width: 0.5"/>
      </g>
     </g>
     <g id="line2d_98">
      <g>
       <use xlink:href="#mc32469108d" x="214.01512" y="21.350468" style="stroke: #000000; stroke-width: 0.5"/>
      </g>
     </g>
    </g>
    <g id="ytick_27">
     <g id="line2d_99">
      <g>
       <use xlink:href="#m161c0f09d4" x="22.057642" y="14.595698" style="stroke: #000000; stroke-width: 0.5"/>
      </g>
     </g>
     <g id="line2d_100">
      <g>
       <use xlink:href="#mc32469108d" x="214.01512" y="14.595698" style="stroke: #000000; stroke-width: 0.5"/>
      </g>
     </g>
    </g>
   </g>
   <g id="line2d_101">
    <path d="M 30.782982 187.468194 
L 30.782982 3.6 
" clip-path="url(#p726ed33933)" style="fill: none; stroke-dasharray: 3.7,1.6; stroke-dashoffset: 0; stroke: #000000; stroke-opacity: 0.6"/>
   </g>
   <g id="line2d_102">
    <path d="M 205.28978 187.468194 
L 205.28978 3.6 
" clip-path="url(#p726ed33933)" style="fill: none; stroke-dasharray: 3.7,1.6; stroke-dashoffset: 0; stroke: #000000; stroke-opacity: 0.6"/>
   </g>
   <g id="line2d_103">
    <path d="M -1 16.531247 
L 0.051275 16.811172 
L 1.719796 17.058375 
L 4.222578 17.162678 
L 28.416137 16.90095 
L 34.402284 16.493786 
L 43.579151 15.57814 
L 51.921758 14.799092 
L 61.098625 14.099973 
L 62.767146 13.773896 
L 65.269928 13.016396 
L 67.77271 12.32544 
L 69.441231 12.09296 
L 71.944013 11.96672 
L 76.949577 12.012059 
L 82.789402 12.272509 
L 87.794966 12.700217 
L 91.966269 13.247036 
L 96.137572 14.006941 
L 100.308876 14.996801 
L 105.31444 16.443708 
L 112.822785 18.677684 
L 116.159828 19.431002 
L 118.66261 19.815545 
L 121.165392 20.022865 
L 123.668174 20.050444 
L 127.005217 19.834159 
L 130.342259 19.389654 
L 135.347823 18.463572 
L 147.861733 16.020348 
L 153.701558 15.145611 
L 159.541382 14.496449 
L 163.712685 14.200624 
L 166.215467 14.203595 
L 167.883989 14.402559 
L 169.55251 14.889983 
L 173.723813 16.603576 
L 175.392335 16.959297 
L 177.895117 17.15171 
L 182.06642 17.110273 
L 191.243287 17.087807 
L 199.585894 17.025825 
L 205.57204 16.749051 
L 212.246125 16.184042 
L 228.931338 14.628272 
L 234.771163 14.215137 
L 237.273945 13.773896 
L 239.776727 13.016396 
L 242.279509 12.32544 
L 243.94803 12.09296 
L 246.450812 11.96672 
L 251.456376 12.012059 
L 257.296201 12.272509 
L 262.301765 12.700217 
L 266.473068 13.247036 
L 270.644371 14.006941 
L 274.815674 14.996801 
L 279.821238 16.443708 
L 287.329584 18.677684 
L 290.666627 19.431002 
L 293.169409 19.815545 
L 295.672191 20.022865 
L 298.174973 20.050444 
L 301.512015 19.834159 
L 304.849058 19.389654 
L 309.854622 18.463572 
L 322.368532 16.020348 
L 328.208356 15.145611 
L 334.048181 14.496449 
L 338.219484 14.200624 
L 340.722266 14.203595 
L 342.390787 14.402559 
L 344.059309 14.889983 
L 348.230612 16.603576 
L 349.899133 16.959297 
L 352.401915 17.15171 
L 356.573219 17.110273 
L 365.750086 17.087807 
L 374.092692 17.025825 
L 379.796579 16.767501 
L 379.796579 16.767501 
" clip-path="url(#p726ed33933)" style="fill: none; stroke: #0c5da5; stroke-opacity: 0.8; stroke-width: 2; stroke-linecap: square"/>
   </g>
   <g id="line2d_104">
    <path d="M -1 110.156739 
L 0.051275 110.048083 
L 2.554057 109.586839 
L 6.72536 108.499366 
L 18.40501 105.283032 
L 21.742052 104.613916 
L 25.079095 104.171802 
L 28.416137 104.002502 
L 31.065241 104.078272 
L 34.402284 104.439435 
L 37.739327 105.079989 
L 41.076369 105.965333 
L 45.247672 107.347058 
L 50.253236 109.286409 
L 62.767146 114.342256 
L 65.269928 114.988598 
L 67.77271 115.349819 
L 70.275492 115.47816 
L 73.612535 115.394769 
L 76.949577 115.071167 
L 80.28662 114.484389 
L 82.789402 113.847865 
L 85.292184 113.023443 
L 87.794966 111.99467 
L 90.297748 110.748549 
L 92.80053 109.278635 
L 95.303312 107.588267 
L 98.640354 105.022174 
L 102.811658 101.446361 
L 109.485743 95.657951 
L 111.988525 93.771507 
L 114.491307 92.185806 
L 116.159828 91.331843 
L 117.828349 90.658279 
L 119.496871 90.173804 
L 121.165392 89.880812 
L 122.833913 89.775968 
L 124.502435 89.851058 
L 126.170956 90.093883 
L 128.673738 90.738554 
L 131.17652 91.665876 
L 133.679302 92.812945 
L 137.016344 94.58046 
L 142.856169 97.987299 
L 150.364515 102.314975 
L 155.370079 104.90357 
L 159.541382 106.797853 
L 162.878425 108.110059 
L 166.215467 109.205135 
L 168.718249 109.822986 
L 171.221031 110.170366 
L 172.889553 110.196531 
L 174.558074 110.048083 
L 177.060856 109.586839 
L 181.232159 108.499366 
L 192.911808 105.283032 
L 196.248851 104.613916 
L 199.585894 104.171802 
L 202.922936 104.002502 
L 205.57204 104.078272 
L 208.909083 104.439435 
L 212.246125 105.079989 
L 215.583168 105.965333 
L 219.754471 107.347058 
L 224.760035 109.286409 
L 237.273945 114.342256 
L 239.776727 114.988598 
L 242.279509 115.349819 
L 244.782291 115.47816 
L 248.119333 115.394769 
L 251.456376 115.071167 
L 254.793419 114.484389 
L 257.296201 113.847865 
L 259.798983 113.023443 
L 262.301765 111.99467 
L 264.804547 110.748549 
L 267.307329 109.278635 
L 269.81011 107.588267 
L 273.147153 105.022174 
L 277.318456 101.446361 
L 283.992542 95.657951 
L 286.495324 93.771507 
L 288.998106 92.185806 
L 290.666627 91.331843 
L 292.335148 90.658279 
L 294.003669 90.173804 
L 295.672191 89.880812 
L 297.340712 89.775968 
L 299.009233 89.851058 
L 300.677755 90.093883 
L 303.180537 90.738554 
L 305.683319 91.665876 
L 308.186101 92.812945 
L 311.523143 94.58046 
L 317.362968 97.987299 
L 324.871314 102.314975 
L 329.876878 104.90357 
L 334.048181 106.797853 
L 337.385224 108.110059 
L 340.722266 109.205135 
L 343.225048 109.822986 
L 345.72783 110.170366 
L 347.396351 110.196531 
L 349.064873 110.048083 
L 351.567655 109.586839 
L 355.738958 108.499366 
L 367.418607 105.283032 
L 370.75565 104.613916 
L 374.092692 104.171802 
L 377.429735 104.002502 
L 379.796579 104.061229 
L 379.796579 104.061229 
" clip-path="url(#p726ed33933)" style="fill: none; stroke: #00b945; stroke-opacity: 0.8; stroke-width: 2; stroke-linecap: square"/>
   </g>
   <g id="line2d_105">
    <path d="M -1 177.545923 
L -0.782986 177.79869 
L 0.051275 178.454992 
L 0.885536 178.859488 
L 1.719796 179.062949 
L 2.554057 179.110549 
L 4.222578 178.887157 
L 6.72536 178.097686 
L 13.399446 175.913169 
L 18.40501 174.507866 
L 25.913355 172.652767 
L 32.733763 171.19567 
L 37.739327 170.350244 
L 41.91063 169.906022 
L 45.247672 169.766074 
L 48.584715 169.866701 
L 51.921758 170.235501 
L 55.2588 170.867544 
L 57.761582 171.40118 
L 59.430104 171.517474 
L 60.264364 171.444259 
L 61.098625 171.245583 
L 61.932886 170.887118 
L 62.767146 170.326331 
L 63.601407 169.510929 
L 65.269928 167.236591 
L 66.938449 164.713533 
L 67.77271 163.68597 
L 68.606971 162.888064 
L 69.441231 162.318024 
L 71.109753 161.639494 
L 72.778274 161.355679 
L 75.281056 161.220244 
L 83.623663 161.145707 
L 97.806094 161.263052 
L 110.320003 161.342417 
L 118.66261 161.133714 
L 127.839477 160.911214 
L 133.679302 161.022798 
L 138.684866 161.341175 
L 144.52469 161.937628 
L 152.033036 162.945161 
L 160.375643 164.244241 
L 162.878425 164.744999 
L 164.546946 165.262993 
L 165.381207 165.659535 
L 166.215467 166.192663 
L 167.049728 166.896554 
L 167.883989 167.860982 
L 168.718249 169.135574 
L 170.386771 172.337263 
L 172.055292 175.536514 
L 172.889553 176.826987 
L 173.723813 177.79869 
L 174.558074 178.454992 
L 175.392335 178.859488 
L 176.226595 179.062949 
L 177.060856 179.110549 
L 178.729377 178.887157 
L 181.232159 178.097686 
L 187.906244 175.913169 
L 192.911808 174.507866 
L 200.420154 172.652767 
L 207.240561 171.19567 
L 212.246125 170.350244 
L 216.417429 169.906022 
L 219.754471 169.766074 
L 223.091514 169.866701 
L 226.428556 170.235501 
L 229.765599 170.867544 
L 232.268381 171.40118 
L 233.936902 171.517474 
L 234.771163 171.444259 
L 235.605424 171.245583 
L 236.439684 170.887118 
L 237.273945 170.326331 
L 238.108206 169.510929 
L 239.776727 167.236591 
L 241.445248 164.713533 
L 242.279509 163.68597 
L 243.11377 162.888064 
L 243.94803 162.318024 
L 245.616551 161.639494 
L 247.285073 161.355679 
L 249.787855 161.220244 
L 258.130461 161.145707 
L 272.312892 161.263052 
L 284.826802 161.342417 
L 293.169409 161.133714 
L 302.346276 160.911214 
L 308.186101 161.022798 
L 313.191665 161.341175 
L 319.031489 161.937628 
L 326.539835 162.945161 
L 334.882442 164.244241 
L 337.385224 164.744999 
L 339.053745 165.262993 
L 339.888005 165.659535 
L 340.722266 166.192663 
L 341.556527 166.896554 
L 342.390787 167.860982 
L 343.225048 169.135574 
L 344.893569 172.337263 
L 346.562091 175.536514 
L 347.396351 176.826987 
L 348.230612 177.79869 
L 349.064873 178.454992 
L 349.899133 178.859488 
L 350.733394 179.062949 
L 351.567655 179.110549 
L 353.236176 178.887157 
L 355.738958 178.097686 
L 362.413043 175.913169 
L 367.418607 174.507866 
L 374.926953 172.652767 
L 379.796579 171.588046 
L 379.796579 171.588046 
" clip-path="url(#p726ed33933)" style="fill: none; stroke: #ff9500; stroke-opacity: 0.8; stroke-width: 2; stroke-linecap: square"/>
   </g>
   <g id="patch_3">
    <path d="M 22.057642 187.468194 
L 22.057642 3.6 
" style="fill: none; stroke: #000000; stroke-width: 0.5; stroke-linejoin: miter; stroke-linecap: square"/>
   </g>
   <g id="patch_4">
    <path d="M 214.01512 187.468194 
L 214.01512 3.6 
" style="fill: none; stroke: #000000; stroke-width: 0.5; stroke-linejoin: miter; stroke-linecap: square"/>
   </g>
   <g id="patch_5">
    <path d="M 22.057642 187.468194 
L 214.01512 187.468194 
" style="fill: none; stroke: #000000; stroke-width: 0.5; stroke-linejoin: miter; stroke-linecap: square"/>
   </g>
   <g id="patch_6">
    <path d="M 22.057642 3.6 
L 214.01512 3.6 
" style="fill: none; stroke: #000000; stroke-width: 0.5; stroke-linejoin: miter; stroke-linecap: square"/>
   </g>
   <g id="legend_1">
    <g id="patch_7">
     <path d="M 43.25339 77.147278 
L 170.615303 77.147278 
Q 172.615303 77.147278 172.615303 75.147278 
L 172.615303 46.221998 
Q 172.615303 44.221998 170.615303 44.221998 
L 43.25339 44.221998 
Q 41.25339 44.221998 41.25339 46.221998 
L 41.25339 75.147278 
Q 41.25339 77.147278 43.25339 77.147278 
z
" style="fill: #ffffff; opacity: 0.8; stroke: #cccccc; stroke-linejoin: miter"/>
    </g>
    <g id="line2d_106">
     <path d="M 45.25339 52.193978 
L 55.25339 52.193978 
L 65.25339 52.193978 
" style="fill: none; stroke: #0c5da5; stroke-opacity: 0.8; stroke-width: 2; stroke-linecap: square"/>
    </g>
    <g id="text_10">
     <!-- $n_1(\tau)$ -->
     <g transform="translate(73.25339 55.693978) scale(0.1 -0.1)">
      <defs>
       <path id="CMMI12-6e" d="M 1318 1871 
C 1331 1910 1491 2229 1728 2433 
C 1894 2586 2112 2689 2362 2689 
C 2618 2689 2707 2497 2707 2242 
C 2707 1878 2445 1150 2317 805 
C 2259 651 2227 568 2227 453 
C 2227 166 2426 -64 2733 -64 
C 3328 -64 3552 875 3552 913 
C 3552 945 3526 971 3488 971 
C 3430 971 3424 952 3392 843 
C 3245 319 3002 64 2752 64 
C 2688 64 2586 64 2586 269 
C 2586 429 2656 621 2694 710 
C 2822 1063 3091 1780 3091 2145 
C 3091 2528 2867 2816 2381 2816 
C 1811 2816 1510 2415 1395 2255 
C 1376 2618 1114 2816 832 2816 
C 627 2816 486 2695 378 2478 
C 262 2248 173 1865 173 1839 
C 173 1814 198 1782 243 1782 
C 294 1782 301 1788 339 1935 
C 442 2325 557 2689 813 2689 
C 960 2689 1011 2586 1011 2395 
C 1011 2254 947 2005 902 1807 
L 723 1118 
C 698 996 627 709 595 594 
C 550 428 480 128 480 96 
C 480 6 550 -64 646 -64 
C 723 -64 813 -26 864 70 
C 877 102 934 326 966 453 
L 1107 1028 
L 1318 1871 
z
" transform="scale(0.015625)"/>
       <path id="CMR17-28" d="M 1958 -1561 
C 1958 -1555 1958 -1542 1939 -1523 
C 1645 -1224 858 -407 858 1581 
C 858 3569 1632 4379 1946 4697 
C 1946 4704 1958 4717 1958 4736 
C 1958 4755 1939 4768 1914 4768 
C 1843 4768 1299 4296 986 3594 
C 666 2887 576 2199 576 1588 
C 576 1128 621 351 1005 -471 
C 1312 -1135 1837 -1600 1914 -1600 
C 1946 -1600 1958 -1587 1958 -1561 
z
" transform="scale(0.015625)"/>
       <path id="CMR17-29" d="M 1683 1581 
C 1683 2040 1638 2817 1254 3639 
C 947 4303 422 4768 346 4768 
C 326 4768 301 4761 301 4729 
C 301 4717 307 4710 314 4697 
C 621 4378 1402 3568 1402 1584 
C 1402 -407 627 -1217 314 -1537 
C 307 -1549 301 -1556 301 -1568 
C 301 -1600 326 -1600 346 -1600 
C 416 -1600 960 -1128 1274 -426 
C 1594 281 1683 969 1683 1581 
z
" transform="scale(0.015625)"/>
      </defs>
      <use xlink:href="#CMMI12-6e" transform="scale(0.996264)"/>
      <use xlink:href="#CMR17-31" transform="translate(58.230047 -14.943915) scale(0.697382)"/>
      <use xlink:href="#CMR17-28" transform="translate(90.711361 0) scale(0.996264)"/>
      <use xlink:href="#CMMI12-1c" transform="translate(125.992129 0) scale(0.996264)"/>
      <use xlink:href="#CMR17-29" transform="translate(179.483294 0) scale(0.996264)"/>
     </g>
    </g>
    <g id="line2d_107">
     <path d="M 45.25339 67.156618 
L 55.25339 67.156618 
L 65.25339 67.156618 
" style="fill: none; stroke: #00b945; stroke-opacity: 0.8; stroke-width: 2; stroke-linecap: square"/>
    </g>
    <g id="text_11">
     <!-- $n_2(\tau)$ -->
     <g transform="translate(73.25339 70.656618) scale(0.1 -0.1)">
      <use xlink:href="#CMMI12-6e" transform="scale(0.996264)"/>
      <use xlink:href="#CMR17-32" transform="translate(58.230047 -14.943915) scale(0.697382)"/>
      <use xlink:href="#CMR17-28" transform="translate(90.711361 0) scale(0.996264)"/>
      <use xlink:href="#CMMI12-1c" transform="translate(125.992129 0) scale(0.996264)"/>
      <use xlink:href="#CMR17-29" transform="translate(179.483294 0) scale(0.996264)"/>
     </g>
    </g>
    <g id="line2d_108">
     <path d="M 116.934346 52.193978 
L 126.934346 52.193978 
L 136.934346 52.193978 
" style="fill: none; stroke: #ff9500; stroke-opacity: 0.8; stroke-width: 2; stroke-linecap: square"/>
    </g>
    <g id="text_12">
     <!-- $n_2(\tau)$ -->
     <g transform="translate(144.934346 55.693978) scale(0.1 -0.1)">
      <use xlink:href="#CMMI12-6e" transform="scale(0.996264)"/>
      <use xlink:href="#CMR17-32" transform="translate(58.230047 -14.943915) scale(0.697382)"/>
      <use xlink:href="#CMR17-28" transform="translate(90.711361 0) scale(0.996264)"/>
      <use xlink:href="#CMMI12-1c" transform="translate(125.992129 0) scale(0.996264)"/>
      <use xlink:href="#CMR17-29" transform="translate(179.483294 0) scale(0.996264)"/>
     </g>
    </g>
   </g>
  </g>
  <g id="axes_2">
   <g id="patch_8">
    <path d="M 240.154561 94.356259 
L 432.112039 94.356259 
L 432.112039 3.6 
L 240.154561 3.6 
z
" style="fill: #ffffff"/>
   </g>
   <g id="matplotlib.axis_3">
    <g id="xtick_18">
     <g id="line2d_109">
      <path d="M 248.879901 94.356259 
L 248.879901 3.6 
" clip-path="url(#pc8a1f0fc11)" style="fill: none; stroke: #b0b0b0; stroke-width: 0.5; stroke-linecap: square"/>
     </g>
     <g id="line2d_110">
      <g>
       <use xlink:href="#m94c5d58a64" x="248.879901" y="94.356259" style="stroke: #000000; stroke-width: 0.5"/>
      </g>
     </g>
     <g id="line2d_111">
      <g>
       <use xlink:href="#mc900730a4b" x="248.879901" y="3.6" style="stroke: #000000; stroke-width: 0.5"/>
      </g>
     </g>
     <g id="text_13">
      <!-- 0 -->
      <g transform="translate(246.389233 104.774757) scale(0.1 -0.1)">
       <use xlink:href="#CMR17-30" transform="scale(0.996264)"/>
      </g>
     </g>
    </g>
    <g id="xtick_19">
     <g id="line2d_112">
      <path d="M 292.5066 94.356259 
L 292.5066 3.6 
" clip-path="url(#pc8a1f0fc11)" style="fill: none; stroke: #b0b0b0; stroke-width: 0.5; stroke-linecap: square"/>
     </g>
     <g id="line2d_113">
      <g>
       <use xlink:href="#m94c5d58a64" x="292.5066" y="94.356259" style="stroke: #000000; stroke-width: 0.5"/>
      </g>
     </g>
     <g id="line2d_114">
      <g>
       <use xlink:href="#mc900730a4b" x="292.5066" y="3.6" style="stroke: #000000; stroke-width: 0.5"/>
      </g>
     </g>
     <g id="text_14">
      <!-- 0.523 -->
      <g transform="translate(281.160226 104.774757) scale(0.1 -0.1)">
       <use xlink:href="#CMR17-30" transform="scale(0.996264)"/>
       <use xlink:href="#CMR17-2e" transform="translate(45.690477 0) scale(0.996264)"/>
       <use xlink:href="#CMR17-35" transform="translate(70.561536 0) scale(0.996264)"/>
       <use xlink:href="#CMR17-32" transform="translate(116.252013 0) scale(0.996264)"/>
       <use xlink:href="#CMR17-33" transform="translate(161.94249 0) scale(0.996264)"/>
      </g>
     </g>
    </g>
    <g id="xtick_20">
     <g id="line2d_115">
      <path d="M 336.1333 94.356259 
L 336.1333 3.6 
" clip-path="url(#pc8a1f0fc11)" style="fill: none; stroke: #b0b0b0; stroke-width: 0.5; stroke-linecap: square"/>
     </g>
     <g id="line2d_116">
      <g>
       <use xlink:href="#m94c5d58a64" x="336.1333" y="94.356259" style="stroke: #000000; stroke-width: 0.5"/>
      </g>
     </g>
     <g id="line2d_117">
      <g>
       <use xlink:href="#mc900730a4b" x="336.1333" y="3.6" style="stroke: #000000; stroke-width: 0.5"/>
      </g>
     </g>
     <g id="text_15">
      <!-- 1.05 -->
      <g transform="translate(327.277593 104.774757) scale(0.1 -0.1)">
       <use xlink:href="#CMR17-31" transform="scale(0.996264)"/>
       <use xlink:href="#CMR17-2e" transform="translate(45.690477 0) scale(0.996264)"/>
       <use xlink:href="#CMR17-30" transform="translate(70.561536 0) scale(0.996264)"/>
       <use xlink:href="#CMR17-35" transform="translate(116.252013 0) scale(0.996264)"/>
      </g>
     </g>
    </g>
    <g id="xtick_21">
     <g id="line2d_118">
      <path d="M 379.76 94.356259 
L 379.76 3.6 
" clip-path="url(#pc8a1f0fc11)" style="fill: none; stroke: #b0b0b0; stroke-width: 0.5; stroke-linecap: square"/>
     </g>
     <g id="line2d_119">
      <g>
       <use xlink:href="#m94c5d58a64" x="379.76" y="94.356259" style="stroke: #000000; stroke-width: 0.5"/>
      </g>
     </g>
     <g id="line2d_120">
      <g>
       <use xlink:href="#mc900730a4b" x="379.76" y="3.6" style="stroke: #000000; stroke-width: 0.5"/>
      </g>
     </g>
     <g id="text_16">
      <!-- 1.57 -->
      <g transform="translate(370.904293 104.774757) scale(0.1 -0.1)">
       <use xlink:href="#CMR17-31" transform="scale(0.996264)"/>
       <use xlink:href="#CMR17-2e" transform="translate(45.690477 0) scale(0.996264)"/>
       <use xlink:href="#CMR17-35" transform="translate(70.561536 0) scale(0.996264)"/>
       <use xlink:href="#CMR17-37" transform="translate(116.252013 0) scale(0.996264)"/>
      </g>
     </g>
    </g>
    <g id="xtick_22">
     <g id="line2d_121">
      <path d="M 423.386699 94.356259 
L 423.386699 3.6 
" clip-path="url(#pc8a1f0fc11)" style="fill: none; stroke: #b0b0b0; stroke-width: 0.5; stroke-linecap: square"/>
     </g>
     <g id="line2d_122">
      <g>
       <use xlink:href="#m94c5d58a64" x="423.386699" y="94.356259" style="stroke: #000000; stroke-width: 0.5"/>
      </g>
     </g>
     <g id="line2d_123">
      <g>
       <use xlink:href="#mc900730a4b" x="423.386699" y="3.6" style="stroke: #000000; stroke-width: 0.5"/>
      </g>
     </g>
     <g id="text_17">
      <!-- 2.09 -->
      <g transform="translate(414.530992 104.774757) scale(0.1 -0.1)">
       <use xlink:href="#CMR17-32" transform="scale(0.996264)"/>
       <use xlink:href="#CMR17-2e" transform="translate(45.690477 0) scale(0.996264)"/>
       <use xlink:href="#CMR17-30" transform="translate(70.561536 0) scale(0.996264)"/>
       <use xlink:href="#CMR17-39" transform="translate(116.252013 0) scale(0.996264)"/>
      </g>
     </g>
    </g>
    <g id="xtick_23">
     <g id="line2d_124">
      <g>
       <use xlink:href="#mcc290b746d" x="259.786576" y="94.356259" style="stroke: #000000; stroke-width: 0.5"/>
      </g>
     </g>
     <g id="line2d_125">
      <g>
       <use xlink:href="#mb34d4116b3" x="259.786576" y="3.6" style="stroke: #000000; stroke-width: 0.5"/>
      </g>
     </g>
    </g>
    <g id="xtick_24">
     <g id="line2d_126">
      <g>
       <use xlink:href="#mcc290b746d" x="270.693251" y="94.356259" style="stroke: #000000; stroke-width: 0.5"/>
      </g>
     </g>
     <g id="line2d_127">
      <g>
       <use xlink:href="#mb34d4116b3" x="270.693251" y="3.6" style="stroke: #000000; stroke-width: 0.5"/>
      </g>
     </g>
    </g>
    <g id="xtick_25">
     <g id="line2d_128">
      <g>
       <use xlink:href="#mcc290b746d" x="281.599925" y="94.356259" style="stroke: #000000; stroke-width: 0.5"/>
      </g>
     </g>
     <g id="line2d_129">
      <g>
       <use xlink:href="#mb34d4116b3" x="281.599925" y="3.6" style="stroke: #000000; stroke-width: 0.5"/>
      </g>
     </g>
    </g>
    <g id="xtick_26">
     <g id="line2d_130">
      <g>
       <use xlink:href="#mcc290b746d" x="303.413275" y="94.356259" style="stroke: #000000; stroke-width: 0.5"/>
      </g>
     </g>
     <g id="line2d_131">
      <g>
       <use xlink:href="#mb34d4116b3" x="303.413275" y="3.6" style="stroke: #000000; stroke-width: 0.5"/>
      </g>
     </g>
    </g>
    <g id="xtick_27">
     <g id="line2d_132">
      <g>
       <use xlink:href="#mcc290b746d" x="314.31995" y="94.356259" style="stroke: #000000; stroke-width: 0.5"/>
      </g>
     </g>
     <g id="line2d_133">
      <g>
       <use xlink:href="#mb34d4116b3" x="314.31995" y="3.6" style="stroke: #000000; stroke-width: 0.5"/>
      </g>
     </g>
    </g>
    <g id="xtick_28">
     <g id="line2d_134">
      <g>
       <use xlink:href="#mcc290b746d" x="325.226625" y="94.356259" style="stroke: #000000; stroke-width: 0.5"/>
      </g>
     </g>
     <g id="line2d_135">
      <g>
       <use xlink:href="#mb34d4116b3" x="325.226625" y="3.6" style="stroke: #000000; stroke-width: 0.5"/>
      </g>
     </g>
    </g>
    <g id="xtick_29">
     <g id="line2d_136">
      <g>
       <use xlink:href="#mcc290b746d" x="347.039975" y="94.356259" style="stroke: #000000; stroke-width: 0.5"/>
      </g>
     </g>
     <g id="line2d_137">
      <g>
       <use xlink:href="#mb34d4116b3" x="347.039975" y="3.6" style="stroke: #000000; stroke-width: 0.5"/>
      </g>
     </g>
    </g>
    <g id="xtick_30">
     <g id="line2d_138">
      <g>
       <use xlink:href="#mcc290b746d" x="357.94665" y="94.356259" style="stroke: #000000; stroke-width: 0.5"/>
      </g>
     </g>
     <g id="line2d_139">
      <g>
       <use xlink:href="#mb34d4116b3" x="357.94665" y="3.6" style="stroke: #000000; stroke-width: 0.5"/>
      </g>
     </g>
    </g>
    <g id="xtick_31">
     <g id="line2d_140">
      <g>
       <use xlink:href="#mcc290b746d" x="368.853325" y="94.356259" style="stroke: #000000; stroke-width: 0.5"/>
      </g>
     </g>
     <g id="line2d_141">
      <g>
       <use xlink:href="#mb34d4116b3" x="368.853325" y="3.6" style="stroke: #000000; stroke-width: 0.5"/>
      </g>
     </g>
    </g>
    <g id="xtick_32">
     <g id="line2d_142">
      <g>
       <use xlink:href="#mcc290b746d" x="390.666675" y="94.356259" style="stroke: #000000; stroke-width: 0.5"/>
      </g>
     </g>
     <g id="line2d_143">
      <g>
       <use xlink:href="#mb34d4116b3" x="390.666675" y="3.6" style="stroke: #000000; stroke-width: 0.5"/>
      </g>
     </g>
    </g>
    <g id="xtick_33">
     <g id="line2d_144">
      <g>
       <use xlink:href="#mcc290b746d" x="401.57335" y="94.356259" style="stroke: #000000; stroke-width: 0.5"/>
      </g>
     </g>
     <g id="line2d_145">
      <g>
       <use xlink:href="#mb34d4116b3" x="401.57335" y="3.6" style="stroke: #000000; stroke-width: 0.5"/>
      </g>
     </g>
    </g>
    <g id="xtick_34">
     <g id="line2d_146">
      <g>
       <use xlink:href="#mcc290b746d" x="412.480025" y="94.356259" style="stroke: #000000; stroke-width: 0.5"/>
      </g>
     </g>
     <g id="line2d_147">
      <g>
       <use xlink:href="#mb34d4116b3" x="412.480025" y="3.6" style="stroke: #000000; stroke-width: 0.5"/>
      </g>
     </g>
    </g>
   </g>
   <g id="matplotlib.axis_4">
    <g id="ytick_28">
     <g id="line2d_148">
      <path d="M 240.154561 72.396908 
L 432.112039 72.396908 
" clip-path="url(#pc8a1f0fc11)" style="fill: none; stroke: #b0b0b0; stroke-width: 0.5; stroke-linecap: square"/>
     </g>
     <g id="line2d_149">
      <g>
       <use xlink:href="#m38e36867c9" x="240.154561" y="72.396908" style="stroke: #000000; stroke-width: 0.5"/>
      </g>
     </g>
     <g id="line2d_150">
      <g>
       <use xlink:href="#m8e8f6a9b38" x="432.112039" y="72.396908" style="stroke: #000000; stroke-width: 0.5"/>
      </g>
     </g>
     <g id="text_18">
      <!-- $0$ -->
      <g transform="translate(230.80157 76.547998) scale(0.12 -0.12)">
       <use xlink:href="#CMR17-30" transform="scale(0.996264)"/>
      </g>
     </g>
    </g>
    <g id="ytick_29">
     <g id="line2d_151">
      <path d="M 240.154561 33.358074 
L 432.112039 33.358074 
" clip-path="url(#pc8a1f0fc11)" style="fill: none; stroke: #b0b0b0; stroke-width: 0.5; stroke-linecap: square"/>
     </g>
     <g id="line2d_152">
      <g>
       <use xlink:href="#m38e36867c9" x="240.154561" y="33.358074" style="stroke: #000000; stroke-width: 0.5"/>
      </g>
     </g>
     <g id="line2d_153">
      <g>
       <use xlink:href="#m8e8f6a9b38" x="432.112039" y="33.358074" style="stroke: #000000; stroke-width: 0.5"/>
      </g>
     </g>
     <g id="text_19">
      <!-- $0.5$ -->
      <g transform="translate(221.696919 37.509164) scale(0.12 -0.12)">
       <use xlink:href="#CMR17-30" transform="scale(0.996264)"/>
       <use xlink:href="#CMMI12-3a" transform="translate(45.690477 0) scale(0.996264)"/>
       <use xlink:href="#CMR17-35" transform="translate(72.787654 0) scale(0.996264)"/>
      </g>
     </g>
    </g>
    <g id="ytick_30">
     <g id="line2d_154">
      <g>
       <use xlink:href="#m161c0f09d4" x="240.154561" y="88.012441" style="stroke: #000000; stroke-width: 0.5"/>
      </g>
     </g>
     <g id="line2d_155">
      <g>
       <use xlink:href="#mc32469108d" x="432.112039" y="88.012441" style="stroke: #000000; stroke-width: 0.5"/>
      </g>
     </g>
    </g>
    <g id="ytick_31">
     <g id="line2d_156">
      <g>
       <use xlink:href="#m161c0f09d4" x="240.154561" y="80.204674" style="stroke: #000000; stroke-width: 0.5"/>
      </g>
     </g>
     <g id="line2d_157">
      <g>
       <use xlink:href="#mc32469108d" x="432.112039" y="80.204674" style="stroke: #000000; stroke-width: 0.5"/>
      </g>
     </g>
    </g>
    <g id="ytick_32">
     <g id="line2d_158">
      <g>
       <use xlink:href="#m161c0f09d4" x="240.154561" y="64.589141" style="stroke: #000000; stroke-width: 0.5"/>
      </g>
     </g>
     <g id="line2d_159">
      <g>
       <use xlink:href="#mc32469108d" x="432.112039" y="64.589141" style="stroke: #000000; stroke-width: 0.5"/>
      </g>
     </g>
    </g>
    <g id="ytick_33">
     <g id="line2d_160">
      <g>
       <use xlink:href="#m161c0f09d4" x="240.154561" y="56.781374" style="stroke: #000000; stroke-width: 0.5"/>
      </g>
     </g>
     <g id="line2d_161">
      <g>
       <use xlink:href="#mc32469108d" x="432.112039" y="56.781374" style="stroke: #000000; stroke-width: 0.5"/>
      </g>
     </g>
    </g>
    <g id="ytick_34">
     <g id="line2d_162">
      <g>
       <use xlink:href="#m161c0f09d4" x="240.154561" y="48.973607" style="stroke: #000000; stroke-width: 0.5"/>
      </g>
     </g>
     <g id="line2d_163">
      <g>
       <use xlink:href="#mc32469108d" x="432.112039" y="48.973607" style="stroke: #000000; stroke-width: 0.5"/>
      </g>
     </g>
    </g>
    <g id="ytick_35">
     <g id="line2d_164">
      <g>
       <use xlink:href="#m161c0f09d4" x="240.154561" y="41.165841" style="stroke: #000000; stroke-width: 0.5"/>
      </g>
     </g>
     <g id="line2d_165">
      <g>
       <use xlink:href="#mc32469108d" x="432.112039" y="41.165841" style="stroke: #000000; stroke-width: 0.5"/>
      </g>
     </g>
    </g>
    <g id="ytick_36">
     <g id="line2d_166">
      <g>
       <use xlink:href="#m161c0f09d4" x="240.154561" y="25.550307" style="stroke: #000000; stroke-width: 0.5"/>
      </g>
     </g>
     <g id="line2d_167">
      <g>
       <use xlink:href="#mc32469108d" x="432.112039" y="25.550307" style="stroke: #000000; stroke-width: 0.5"/>
      </g>
     </g>
    </g>
    <g id="ytick_37">
     <g id="line2d_168">
      <g>
       <use xlink:href="#m161c0f09d4" x="240.154561" y="17.74254" style="stroke: #000000; stroke-width: 0.5"/>
      </g>
     </g>
     <g id="line2d_169">
      <g>
       <use xlink:href="#mc32469108d" x="432.112039" y="17.74254" style="stroke: #000000; stroke-width: 0.5"/>
      </g>
     </g>
    </g>
    <g id="ytick_38">
     <g id="line2d_170">
      <g>
       <use xlink:href="#m161c0f09d4" x="240.154561" y="9.934774" style="stroke: #000000; stroke-width: 0.5"/>
      </g>
     </g>
     <g id="line2d_171">
      <g>
       <use xlink:href="#mc32469108d" x="432.112039" y="9.934774" style="stroke: #000000; stroke-width: 0.5"/>
      </g>
     </g>
    </g>
   </g>
   <g id="line2d_172">
    <path d="M 248.879901 94.356259 
L 248.879901 3.6 
" clip-path="url(#pc8a1f0fc11)" style="fill: none; stroke-dasharray: 3.7,1.6; stroke-dashoffset: 0; stroke: #000000; stroke-opacity: 0.6"/>
   </g>
   <g id="line2d_173">
    <path d="M 423.386699 94.356259 
L 423.386699 3.6 
" clip-path="url(#pc8a1f0fc11)" style="fill: none; stroke-dasharray: 3.7,1.6; stroke-dashoffset: 0; stroke: #000000; stroke-opacity: 0.6"/>
   </g>
   <g id="line2d_174">
    <path d="M 248.879901 71.184405 
L 250.830682 70.233604 
L 253.333464 69.22441 
L 255.836245 68.448345 
L 258.339027 67.895577 
L 260.841809 67.551131 
L 263.344591 67.396037 
L 266.681634 67.445742 
L 270.018677 67.736566 
L 274.18998 68.35029 
L 280.029804 69.481167 
L 290.875193 71.647318 
L 296.715018 72.54583 
L 301.720581 73.088525 
L 306.726145 73.416063 
L 312.56597 73.554528 
L 319.240055 73.464572 
L 329.251183 73.054443 
L 345.936396 72.352338 
L 356.781785 72.15036 
L 369.295695 72.158421 
L 420.185594 72.448218 
L 423.386699 72.441077 
L 423.386699 72.441077 
" clip-path="url(#pc8a1f0fc11)" style="fill: none; stroke: #0c5da5; stroke-opacity: 0.8; stroke-width: 2; stroke-linecap: square"/>
   </g>
   <g id="line2d_175">
    <path d="M 248.879901 28.66782 
L 256.670506 52.781205 
L 259.173288 59.824504 
L 261.67607 66.253523 
L 264.178852 71.966262 
L 265.847373 75.342426 
L 267.515895 78.35811 
L 269.184416 81.007486 
L 270.852937 83.290158 
L 272.521459 85.210645 
L 274.18998 86.777859 
L 275.858501 88.004563 
L 277.527023 88.906835 
L 279.195544 89.503543 
L 280.864065 89.815826 
L 282.532586 89.866593 
L 284.201108 89.680056 
L 285.869629 89.281279 
L 287.53815 88.695767 
L 290.040932 87.523216 
L 292.543714 86.072687 
L 295.880757 83.845537 
L 308.394667 75.091214 
L 311.731709 73.174946 
L 315.068752 71.566732 
L 317.571534 70.578855 
L 320.074316 69.781623 
L 322.577098 69.171738 
L 325.07988 68.740899 
L 328.416922 68.423112 
L 331.753965 68.363682 
L 335.091008 68.518781 
L 339.262311 68.943117 
L 345.102136 69.806337 
L 359.284567 72.04893 
L 365.124391 72.701507 
L 370.964216 73.11792 
L 376.80404 73.308507 
L 383.478126 73.30126 
L 392.654993 73.045036 
L 416.014291 72.287165 
L 423.386699 72.197785 
L 423.386699 72.197785 
" clip-path="url(#pc8a1f0fc11)" style="fill: none; stroke: #00b945; stroke-opacity: 0.8; stroke-width: 2; stroke-linecap: square"/>
   </g>
   <g id="line2d_176">
    <path d="M 248.879901 7.725284 
L 249.996421 9.623026 
L 251.664942 13.01072 
L 253.333464 16.955947 
L 255.836245 23.653632 
L 259.173288 33.399933 
L 264.178852 47.981152 
L 266.681634 54.62394 
L 269.184416 60.55579 
L 270.852937 64.051192 
L 272.521459 67.157806 
L 274.18998 69.872216 
L 275.858501 72.202325 
L 277.527023 74.201558 
L 280.029804 76.806625 
L 281.698326 78.537152 
L 283.366847 80.553393 
L 287.53815 86.251755 
L 289.206672 87.861333 
L 290.875193 88.966697 
L 292.543714 89.678507 
L 294.212236 90.081556 
L 295.880757 90.230974 
L 297.549278 90.145184 
L 299.2178 89.838305 
L 300.886321 89.326092 
L 302.554842 88.623435 
L 304.223363 87.744799 
L 306.726145 86.128734 
L 309.228927 84.199911 
L 311.731709 82.014289 
L 315.903013 77.993492 
L 322.577098 71.441016 
L 325.07988 69.249981 
L 327.582662 67.34263 
L 330.085444 65.790677 
L 331.753965 64.977276 
L 333.422486 64.349415 
L 335.091008 63.908887 
L 336.759529 63.652909 
L 338.42805 63.572832 
L 340.096572 63.653845 
L 342.599354 64.037809 
L 345.102136 64.6764 
L 348.439178 65.795956 
L 360.118827 70.030399 
L 364.290131 71.155261 
L 368.461434 71.99704 
L 372.632737 72.584235 
L 376.80404 72.962034 
L 381.809604 73.19785 
L 385.980908 73.198311 
L 395.992035 72.944147 
L 407.671685 72.737821 
L 423.386699 72.321236 
L 423.386699 72.321236 
" clip-path="url(#pc8a1f0fc11)" style="fill: none; stroke: #ff9500; stroke-opacity: 0.8; stroke-width: 2; stroke-linecap: square"/>
   </g>
   <g id="patch_9">
    <path d="M 240.154561 94.356259 
L 240.154561 3.6 
" style="fill: none; stroke: #000000; stroke-width: 0.5; stroke-linejoin: miter; stroke-linecap: square"/>
   </g>
   <g id="patch_10">
    <path d="M 432.112039 94.356259 
L 432.112039 3.6 
" style="fill: none; stroke: #000000; stroke-width: 0.5; stroke-linejoin: miter; stroke-linecap: square"/>
   </g>
   <g id="patch_11">
    <path d="M 240.154561 94.356259 
L 432.112039 94.356259 
" style="fill: none; stroke: #000000; stroke-width: 0.5; stroke-linejoin: miter; stroke-linecap: square"/>
   </g>
   <g id="patch_12">
    <path d="M 240.154561 3.6 
L 432.112039 3.6 
" style="fill: none; stroke: #000000; stroke-width: 0.5; stroke-linejoin: miter; stroke-linecap: square"/>
   </g>
   <g id="legend_2">
    <g id="patch_13">
     <path d="M 347.731174 58.053755 
L 408.40844 58.053755 
Q 410.40844 58.053755 410.40844 56.053755 
L 410.40844 11.08663 
Q 410.40844 9.08663 408.40844 9.08663 
L 347.731174 9.08663 
Q 345.731174 9.08663 345.731174 11.08663 
L 345.731174 56.053755 
Q 345.731174 58.053755 347.731174 58.053755 
z
" style="fill: #ffffff; opacity: 0.8; stroke: #cccccc; stroke-linejoin: miter"/>
    </g>
    <g id="line2d_177">
     <path d="M 349.731174 17.05861 
L 359.731174 17.05861 
L 369.731174 17.05861 
" style="fill: none; stroke: #0c5da5; stroke-opacity: 0.8; stroke-width: 2; stroke-linecap: square"/>
    </g>
    <g id="text_20">
     <!-- $e_{1,1}(\tau)$ -->
     <g transform="translate(377.731174 20.55861) scale(0.1 -0.1)">
      <defs>
       <path id="CMMI12-65" d="M 1146 1479 
C 1318 1479 1754 1479 2061 1595 
C 2547 1783 2592 2158 2592 2274 
C 2592 2558 2349 2816 1926 2816 
C 1254 2816 288 2210 288 1073 
C 288 402 672 -64 1254 -64 
C 2125 -64 2675 609 2675 692 
C 2675 730 2637 762 2611 762 
C 2592 762 2586 756 2528 699 
C 2118 159 1510 64 1267 64 
C 902 64 710 350 710 822 
C 710 911 710 1071 806 1479 
L 1146 1479 
z
M 838 1600 
C 1114 2592 1722 2689 1926 2689 
C 2208 2689 2400 2522 2400 2277 
C 2400 1600 1376 1600 1107 1600 
L 838 1600 
z
" transform="scale(0.015625)"/>
       <path id="CMMI12-3b" d="M 1248 -31 
C 1248 343 1126 619 864 619 
C 659 619 557 453 557 313 
C 557 172 653 0 870 0 
C 954 0 1024 26 1082 83 
C 1094 96 1101 96 1107 96 
C 1120 96 1120 5 1120 -27 
C 1120 -240 1082 -659 710 -1080 
C 640 -1157 640 -1170 640 -1183 
C 640 -1216 672 -1248 704 -1248 
C 755 -1248 1248 -771 1248 -31 
z
" transform="scale(0.015625)"/>
      </defs>
      <use xlink:href="#CMMI12-65" transform="scale(0.996264)"/>
      <use xlink:href="#CMR17-31" transform="translate(45.212001 -14.943915) scale(0.697382)"/>
      <use xlink:href="#CMMI12-3b" transform="translate(77.195183 -14.943915) scale(0.697382)"/>
      <use xlink:href="#CMR17-31" transform="translate(96.163116 -14.943915) scale(0.697382)"/>
      <use xlink:href="#CMR17-28" transform="translate(128.64443 0) scale(0.996264)"/>
      <use xlink:href="#CMMI12-1c" transform="translate(163.925198 0) scale(0.996264)"/>
      <use xlink:href="#CMR17-29" transform="translate(217.416363 0) scale(0.996264)"/>
     </g>
    </g>
    <g id="line2d_178">
     <path d="M 349.731174 32.380985 
L 359.731174 32.380985 
L 369.731174 32.380985 
" style="fill: none; stroke: #00b945; stroke-opacity: 0.8; stroke-width: 2; stroke-linecap: square"/>
    </g>
    <g id="text_21">
     <!-- $e_{1,2}(\tau)$ -->
     <g transform="translate(377.731174 35.880985) scale(0.1 -0.1)">
      <use xlink:href="#CMMI12-65" transform="scale(0.996264)"/>
      <use xlink:href="#CMR17-31" transform="translate(45.212001 -14.943915) scale(0.697382)"/>
      <use xlink:href="#CMMI12-3b" transform="translate(77.195183 -14.943915) scale(0.697382)"/>
      <use xlink:href="#CMR17-32" transform="translate(96.163116 -14.943915) scale(0.697382)"/>
      <use xlink:href="#CMR17-28" transform="translate(128.64443 0) scale(0.996264)"/>
      <use xlink:href="#CMMI12-1c" transform="translate(163.925198 0) scale(0.996264)"/>
      <use xlink:href="#CMR17-29" transform="translate(217.416363 0) scale(0.996264)"/>
     </g>
    </g>
    <g id="line2d_179">
     <path d="M 349.731174 47.70336 
L 359.731174 47.70336 
L 369.731174 47.70336 
" style="fill: none; stroke: #ff9500; stroke-opacity: 0.8; stroke-width: 2; stroke-linecap: square"/>
    </g>
    <g id="text_22">
     <!-- $e_{1,3}(\tau)$ -->
     <g transform="translate(377.731174 51.20336) scale(0.1 -0.1)">
      <use xlink:href="#CMMI12-65" transform="scale(0.996264)"/>
      <use xlink:href="#CMR17-31" transform="translate(45.212001 -14.943915) scale(0.697382)"/>
      <use xlink:href="#CMMI12-3b" transform="translate(77.195183 -14.943915) scale(0.697382)"/>
      <use xlink:href="#CMR17-33" transform="translate(96.163116 -14.943915) scale(0.697382)"/>
      <use xlink:href="#CMR17-28" transform="translate(128.64443 0) scale(0.996264)"/>
      <use xlink:href="#CMMI12-1c" transform="translate(163.925198 0) scale(0.996264)"/>
      <use xlink:href="#CMR17-29" transform="translate(217.416363 0) scale(0.996264)"/>
     </g>
    </g>
   </g>
  </g>
  <g id="axes_3">
   <g id="patch_14">
    <path d="M 240.154561 187.468194 
L 432.112039 187.468194 
L 432.112039 96.711936 
L 240.154561 96.711936 
z
" style="fill: #ffffff"/>
   </g>
   <g id="matplotlib.axis_5">
    <g id="xtick_35">
     <g id="line2d_180">
      <path d="M 248.879901 187.468194 
L 248.879901 96.711936 
" clip-path="url(#p6161209bff)" style="fill: none; stroke: #b0b0b0; stroke-width: 0.5; stroke-linecap: square"/>
     </g>
     <g id="line2d_181">
      <g>
       <use xlink:href="#m94c5d58a64" x="248.879901" y="187.468194" style="stroke: #000000; stroke-width: 0.5"/>
      </g>
     </g>
     <g id="line2d_182">
      <g>
       <use xlink:href="#mc900730a4b" x="248.879901" y="96.711936" style="stroke: #000000; stroke-width: 0.5"/>
      </g>
     </g>
     <g id="text_23">
      <!-- 0 -->
      <g transform="translate(245.953406 199.270374) scale(0.12 -0.12)">
       <use xlink:href="#CMR17-30" transform="scale(0.996264)"/>
      </g>
     </g>
    </g>
    <g id="xtick_36">
     <g id="line2d_183">
      <path d="M 292.5066 187.468194 
L 292.5066 96.711936 
" clip-path="url(#p6161209bff)" style="fill: none; stroke: #b0b0b0; stroke-width: 0.5; stroke-linecap: square"/>
     </g>
     <g id="line2d_184">
      <g>
       <use xlink:href="#m94c5d58a64" x="292.5066" y="187.468194" style="stroke: #000000; stroke-width: 0.5"/>
      </g>
     </g>
     <g id="line2d_185">
      <g>
       <use xlink:href="#mc900730a4b" x="292.5066" y="96.711936" style="stroke: #000000; stroke-width: 0.5"/>
      </g>
     </g>
     <g id="text_24">
      <!-- 0.523 -->
      <g transform="translate(279.174789 199.270374) scale(0.12 -0.12)">
       <use xlink:href="#CMR17-30" transform="scale(0.996264)"/>
       <use xlink:href="#CMR17-2e" transform="translate(45.690477 0) scale(0.996264)"/>
       <use xlink:href="#CMR17-35" transform="translate(70.561536 0) scale(0.996264)"/>
       <use xlink:href="#CMR17-32" transform="translate(116.252013 0) scale(0.996264)"/>
       <use xlink:href="#CMR17-33" transform="translate(161.94249 0) scale(0.996264)"/>
      </g>
     </g>
    </g>
    <g id="xtick_37">
     <g id="line2d_186">
      <path d="M 336.1333 187.468194 
L 336.1333 96.711936 
" clip-path="url(#p6161209bff)" style="fill: none; stroke: #b0b0b0; stroke-width: 0.5; stroke-linecap: square"/>
     </g>
     <g id="line2d_187">
      <g>
       <use xlink:href="#m94c5d58a64" x="336.1333" y="187.468194" style="stroke: #000000; stroke-width: 0.5"/>
      </g>
     </g>
     <g id="line2d_188">
      <g>
       <use xlink:href="#mc900730a4b" x="336.1333" y="96.711936" style="stroke: #000000; stroke-width: 0.5"/>
      </g>
     </g>
     <g id="text_25">
      <!-- 1.05 -->
      <g transform="translate(325.727984 199.270374) scale(0.12 -0.12)">
       <use xlink:href="#CMR17-31" transform="scale(0.996264)"/>
       <use xlink:href="#CMR17-2e" transform="translate(45.690477 0) scale(0.996264)"/>
       <use xlink:href="#CMR17-30" transform="translate(70.561536 0) scale(0.996264)"/>
       <use xlink:href="#CMR17-35" transform="translate(116.252013 0) scale(0.996264)"/>
      </g>
     </g>
    </g>
    <g id="xtick_38">
     <g id="line2d_189">
      <path d="M 379.76 187.468194 
L 379.76 96.711936 
" clip-path="url(#p6161209bff)" style="fill: none; stroke: #b0b0b0; stroke-width: 0.5; stroke-linecap: square"/>
     </g>
     <g id="line2d_190">
      <g>
       <use xlink:href="#m94c5d58a64" x="379.76" y="187.468194" style="stroke: #000000; stroke-width: 0.5"/>
      </g>
     </g>
     <g id="line2d_191">
      <g>
       <use xlink:href="#mc900730a4b" x="379.76" y="96.711936" style="stroke: #000000; stroke-width: 0.5"/>
      </g>
     </g>
     <g id="text_26">
      <!-- 1.57 -->
      <g transform="translate(369.354684 199.270374) scale(0.12 -0.12)">
       <use xlink:href="#CMR17-31" transform="scale(0.996264)"/>
       <use xlink:href="#CMR17-2e" transform="translate(45.690477 0) scale(0.996264)"/>
       <use xlink:href="#CMR17-35" transform="translate(70.561536 0) scale(0.996264)"/>
       <use xlink:href="#CMR17-37" transform="translate(116.252013 0) scale(0.996264)"/>
      </g>
     </g>
    </g>
    <g id="xtick_39">
     <g id="line2d_192">
      <path d="M 423.386699 187.468194 
L 423.386699 96.711936 
" clip-path="url(#p6161209bff)" style="fill: none; stroke: #b0b0b0; stroke-width: 0.5; stroke-linecap: square"/>
     </g>
     <g id="line2d_193">
      <g>
       <use xlink:href="#m94c5d58a64" x="423.386699" y="187.468194" style="stroke: #000000; stroke-width: 0.5"/>
      </g>
     </g>
     <g id="line2d_194">
      <g>
       <use xlink:href="#mc900730a4b" x="423.386699" y="96.711936" style="stroke: #000000; stroke-width: 0.5"/>
      </g>
     </g>
     <g id="text_27">
      <!-- 2.09 -->
      <g transform="translate(412.981383 199.270374) scale(0.12 -0.12)">
       <use xlink:href="#CMR17-32" transform="scale(0.996264)"/>
       <use xlink:href="#CMR17-2e" transform="translate(45.690477 0) scale(0.996264)"/>
       <use xlink:href="#CMR17-30" transform="translate(70.561536 0) scale(0.996264)"/>
       <use xlink:href="#CMR17-39" transform="translate(116.252013 0) scale(0.996264)"/>
      </g>
     </g>
    </g>
    <g id="xtick_40">
     <g id="line2d_195">
      <g>
       <use xlink:href="#mcc290b746d" x="259.786576" y="187.468194" style="stroke: #000000; stroke-width: 0.5"/>
      </g>
     </g>
     <g id="line2d_196">
      <g>
       <use xlink:href="#mb34d4116b3" x="259.786576" y="96.711936" style="stroke: #000000; stroke-width: 0.5"/>
      </g>
     </g>
    </g>
    <g id="xtick_41">
     <g id="line2d_197">
      <g>
       <use xlink:href="#mcc290b746d" x="270.693251" y="187.468194" style="stroke: #000000; stroke-width: 0.5"/>
      </g>
     </g>
     <g id="line2d_198">
      <g>
       <use xlink:href="#mb34d4116b3" x="270.693251" y="96.711936" style="stroke: #000000; stroke-width: 0.5"/>
      </g>
     </g>
    </g>
    <g id="xtick_42">
     <g id="line2d_199">
      <g>
       <use xlink:href="#mcc290b746d" x="281.599925" y="187.468194" style="stroke: #000000; stroke-width: 0.5"/>
      </g>
     </g>
     <g id="line2d_200">
      <g>
       <use xlink:href="#mb34d4116b3" x="281.599925" y="96.711936" style="stroke: #000000; stroke-width: 0.5"/>
      </g>
     </g>
    </g>
    <g id="xtick_43">
     <g id="line2d_201">
      <g>
       <use xlink:href="#mcc290b746d" x="303.413275" y="187.468194" style="stroke: #000000; stroke-width: 0.5"/>
      </g>
     </g>
     <g id="line2d_202">
      <g>
       <use xlink:href="#mb34d4116b3" x="303.413275" y="96.711936" style="stroke: #000000; stroke-width: 0.5"/>
      </g>
     </g>
    </g>
    <g id="xtick_44">
     <g id="line2d_203">
      <g>
       <use xlink:href="#mcc290b746d" x="314.31995" y="187.468194" style="stroke: #000000; stroke-width: 0.5"/>
      </g>
     </g>
     <g id="line2d_204">
      <g>
       <use xlink:href="#mb34d4116b3" x="314.31995" y="96.711936" style="stroke: #000000; stroke-width: 0.5"/>
      </g>
     </g>
    </g>
    <g id="xtick_45">
     <g id="line2d_205">
      <g>
       <use xlink:href="#mcc290b746d" x="325.226625" y="187.468194" style="stroke: #000000; stroke-width: 0.5"/>
      </g>
     </g>
     <g id="line2d_206">
      <g>
       <use xlink:href="#mb34d4116b3" x="325.226625" y="96.711936" style="stroke: #000000; stroke-width: 0.5"/>
      </g>
     </g>
    </g>
    <g id="xtick_46">
     <g id="line2d_207">
      <g>
       <use xlink:href="#mcc290b746d" x="347.039975" y="187.468194" style="stroke: #000000; stroke-width: 0.5"/>
      </g>
     </g>
     <g id="line2d_208">
      <g>
       <use xlink:href="#mb34d4116b3" x="347.039975" y="96.711936" style="stroke: #000000; stroke-width: 0.5"/>
      </g>
     </g>
    </g>
    <g id="xtick_47">
     <g id="line2d_209">
      <g>
       <use xlink:href="#mcc290b746d" x="357.94665" y="187.468194" style="stroke: #000000; stroke-width: 0.5"/>
      </g>
     </g>
     <g id="line2d_210">
      <g>
       <use xlink:href="#mb34d4116b3" x="357.94665" y="96.711936" style="stroke: #000000; stroke-width: 0.5"/>
      </g>
     </g>
    </g>
    <g id="xtick_48">
     <g id="line2d_211">
      <g>
       <use xlink:href="#mcc290b746d" x="368.853325" y="187.468194" style="stroke: #000000; stroke-width: 0.5"/>
      </g>
     </g>
     <g id="line2d_212">
      <g>
       <use xlink:href="#mb34d4116b3" x="368.853325" y="96.711936" style="stroke: #000000; stroke-width: 0.5"/>
      </g>
     </g>
    </g>
    <g id="xtick_49">
     <g id="line2d_213">
      <g>
       <use xlink:href="#mcc290b746d" x="390.666675" y="187.468194" style="stroke: #000000; stroke-width: 0.5"/>
      </g>
     </g>
     <g id="line2d_214">
      <g>
       <use xlink:href="#mb34d4116b3" x="390.666675" y="96.711936" style="stroke: #000000; stroke-width: 0.5"/>
      </g>
     </g>
    </g>
    <g id="xtick_50">
     <g id="line2d_215">
      <g>
       <use xlink:href="#mcc290b746d" x="401.57335" y="187.468194" style="stroke: #000000; stroke-width: 0.5"/>
      </g>
     </g>
     <g id="line2d_216">
      <g>
       <use xlink:href="#mb34d4116b3" x="401.57335" y="96.711936" style="stroke: #000000; stroke-width: 0.5"/>
      </g>
     </g>
    </g>
    <g id="xtick_51">
     <g id="line2d_217">
      <g>
       <use xlink:href="#mcc290b746d" x="412.480025" y="187.468194" style="stroke: #000000; stroke-width: 0.5"/>
      </g>
     </g>
     <g id="line2d_218">
      <g>
       <use xlink:href="#mb34d4116b3" x="412.480025" y="96.711936" style="stroke: #000000; stroke-width: 0.5"/>
      </g>
     </g>
    </g>
    <g id="text_28">
     <!-- $\tau$, sec -->
     <g transform="translate(319.452734 213.280846) scale(0.14 -0.14)">
      <use xlink:href="#CMMI12-1c" transform="scale(0.996264)"/>
      <use xlink:href="#CMR17-2c" transform="translate(53.491165 0) scale(0.996264)"/>
      <use xlink:href="#CMR17-73" transform="translate(108.43819 0) scale(0.996264)"/>
      <use xlink:href="#CMR17-65" transform="translate(144.239528 0) scale(0.996264)"/>
      <use xlink:href="#CMR17-63" transform="translate(184.725188 0) scale(0.996264)"/>
     </g>
    </g>
   </g>
   <g id="matplotlib.axis_6">
    <g id="ytick_39">
     <g id="line2d_219">
      <path d="M 240.154561 171.932294 
L 432.112039 171.932294 
" clip-path="url(#p6161209bff)" style="fill: none; stroke: #b0b0b0; stroke-width: 0.5; stroke-linecap: square"/>
     </g>
     <g id="line2d_220">
      <g>
       <use xlink:href="#m38e36867c9" x="240.154561" y="171.932294" style="stroke: #000000; stroke-width: 0.5"/>
      </g>
     </g>
     <g id="line2d_221">
      <g>
       <use xlink:href="#m8e8f6a9b38" x="432.112039" y="171.932294" style="stroke: #000000; stroke-width: 0.5"/>
      </g>
     </g>
     <g id="text_29">
      <!-- $-1$ -->
      <g transform="translate(221.503081 176.083383) scale(0.12 -0.12)">
       <defs>
        <path id="CMSY10-0" d="M 4218 1472 
C 4326 1472 4442 1472 4442 1600 
C 4442 1728 4326 1728 4218 1728 
L 755 1728 
C 646 1728 531 1728 531 1600 
C 531 1472 646 1472 755 1472 
L 4218 1472 
z
" transform="scale(0.015625)"/>
       </defs>
       <use xlink:href="#CMSY10-0" transform="scale(0.996264)"/>
       <use xlink:href="#CMR17-31" transform="translate(77.487468 0) scale(0.996264)"/>
      </g>
     </g>
    </g>
    <g id="ytick_40">
     <g id="line2d_222">
      <path d="M 240.154561 146.873108 
L 432.112039 146.873108 
" clip-path="url(#p6161209bff)" style="fill: none; stroke: #b0b0b0; stroke-width: 0.5; stroke-linecap: square"/>
     </g>
     <g id="line2d_223">
      <g>
       <use xlink:href="#m38e36867c9" x="240.154561" y="146.873108" style="stroke: #000000; stroke-width: 0.5"/>
      </g>
     </g>
     <g id="line2d_224">
      <g>
       <use xlink:href="#m8e8f6a9b38" x="432.112039" y="146.873108" style="stroke: #000000; stroke-width: 0.5"/>
      </g>
     </g>
    </g>
    <g id="ytick_41">
     <g id="line2d_225">
      <path d="M 240.154561 121.813922 
L 432.112039 121.813922 
" clip-path="url(#p6161209bff)" style="fill: none; stroke: #b0b0b0; stroke-width: 0.5; stroke-linecap: square"/>
     </g>
     <g id="line2d_226">
      <g>
       <use xlink:href="#m38e36867c9" x="240.154561" y="121.813922" style="stroke: #000000; stroke-width: 0.5"/>
      </g>
     </g>
     <g id="line2d_227">
      <g>
       <use xlink:href="#m8e8f6a9b38" x="432.112039" y="121.813922" style="stroke: #000000; stroke-width: 0.5"/>
      </g>
     </g>
     <g id="text_30">
      <!-- $0$ -->
      <g transform="translate(230.80157 125.965012) scale(0.12 -0.12)">
       <use xlink:href="#CMR17-30" transform="scale(0.996264)"/>
      </g>
     </g>
    </g>
    <g id="ytick_42">
     <g id="line2d_228">
      <g>
       <use xlink:href="#m161c0f09d4" x="240.154561" y="186.967805" style="stroke: #000000; stroke-width: 0.5"/>
      </g>
     </g>
     <g id="line2d_229">
      <g>
       <use xlink:href="#mc32469108d" x="432.112039" y="186.967805" style="stroke: #000000; stroke-width: 0.5"/>
      </g>
     </g>
    </g>
    <g id="ytick_43">
     <g id="line2d_230">
      <g>
       <use xlink:href="#m161c0f09d4" x="240.154561" y="181.955968" style="stroke: #000000; stroke-width: 0.5"/>
      </g>
     </g>
     <g id="line2d_231">
      <g>
       <use xlink:href="#mc32469108d" x="432.112039" y="181.955968" style="stroke: #000000; stroke-width: 0.5"/>
      </g>
     </g>
    </g>
    <g id="ytick_44">
     <g id="line2d_232">
      <g>
       <use xlink:href="#m161c0f09d4" x="240.154561" y="176.944131" style="stroke: #000000; stroke-width: 0.5"/>
      </g>
     </g>
     <g id="line2d_233">
      <g>
       <use xlink:href="#mc32469108d" x="432.112039" y="176.944131" style="stroke: #000000; stroke-width: 0.5"/>
      </g>
     </g>
    </g>
    <g id="ytick_45">
     <g id="line2d_234">
      <g>
       <use xlink:href="#m161c0f09d4" x="240.154561" y="166.920456" style="stroke: #000000; stroke-width: 0.5"/>
      </g>
     </g>
     <g id="line2d_235">
      <g>
       <use xlink:href="#mc32469108d" x="432.112039" y="166.920456" style="stroke: #000000; stroke-width: 0.5"/>
      </g>
     </g>
    </g>
    <g id="ytick_46">
     <g id="line2d_236">
      <g>
       <use xlink:href="#m161c0f09d4" x="240.154561" y="161.908619" style="stroke: #000000; stroke-width: 0.5"/>
      </g>
     </g>
     <g id="line2d_237">
      <g>
       <use xlink:href="#mc32469108d" x="432.112039" y="161.908619" style="stroke: #000000; stroke-width: 0.5"/>
      </g>
     </g>
    </g>
    <g id="ytick_47">
     <g id="line2d_238">
      <g>
       <use xlink:href="#m161c0f09d4" x="240.154561" y="156.896782" style="stroke: #000000; stroke-width: 0.5"/>
      </g>
     </g>
     <g id="line2d_239">
      <g>
       <use xlink:href="#mc32469108d" x="432.112039" y="156.896782" style="stroke: #000000; stroke-width: 0.5"/>
      </g>
     </g>
    </g>
    <g id="ytick_48">
     <g id="line2d_240">
      <g>
       <use xlink:href="#m161c0f09d4" x="240.154561" y="151.884945" style="stroke: #000000; stroke-width: 0.5"/>
      </g>
     </g>
     <g id="line2d_241">
      <g>
       <use xlink:href="#mc32469108d" x="432.112039" y="151.884945" style="stroke: #000000; stroke-width: 0.5"/>
      </g>
     </g>
    </g>
    <g id="ytick_49">
     <g id="line2d_242">
      <g>
       <use xlink:href="#m161c0f09d4" x="240.154561" y="141.861271" style="stroke: #000000; stroke-width: 0.5"/>
      </g>
     </g>
     <g id="line2d_243">
      <g>
       <use xlink:href="#mc32469108d" x="432.112039" y="141.861271" style="stroke: #000000; stroke-width: 0.5"/>
      </g>
     </g>
    </g>
    <g id="ytick_50">
     <g id="line2d_244">
      <g>
       <use xlink:href="#m161c0f09d4" x="240.154561" y="136.849434" style="stroke: #000000; stroke-width: 0.5"/>
      </g>
     </g>
     <g id="line2d_245">
      <g>
       <use xlink:href="#mc32469108d" x="432.112039" y="136.849434" style="stroke: #000000; stroke-width: 0.5"/>
      </g>
     </g>
    </g>
    <g id="ytick_51">
     <g id="line2d_246">
      <g>
       <use xlink:href="#m161c0f09d4" x="240.154561" y="131.837597" style="stroke: #000000; stroke-width: 0.5"/>
      </g>
     </g>
     <g id="line2d_247">
      <g>
       <use xlink:href="#mc32469108d" x="432.112039" y="131.837597" style="stroke: #000000; stroke-width: 0.5"/>
      </g>
     </g>
    </g>
    <g id="ytick_52">
     <g id="line2d_248">
      <g>
       <use xlink:href="#m161c0f09d4" x="240.154561" y="126.825759" style="stroke: #000000; stroke-width: 0.5"/>
      </g>
     </g>
     <g id="line2d_249">
      <g>
       <use xlink:href="#mc32469108d" x="432.112039" y="126.825759" style="stroke: #000000; stroke-width: 0.5"/>
      </g>
     </g>
    </g>
    <g id="ytick_53">
     <g id="line2d_250">
      <g>
       <use xlink:href="#m161c0f09d4" x="240.154561" y="116.802085" style="stroke: #000000; stroke-width: 0.5"/>
      </g>
     </g>
     <g id="line2d_251">
      <g>
       <use xlink:href="#mc32469108d" x="432.112039" y="116.802085" style="stroke: #000000; stroke-width: 0.5"/>
      </g>
     </g>
    </g>
    <g id="ytick_54">
     <g id="line2d_252">
      <g>
       <use xlink:href="#m161c0f09d4" x="240.154561" y="111.790248" style="stroke: #000000; stroke-width: 0.5"/>
      </g>
     </g>
     <g id="line2d_253">
      <g>
       <use xlink:href="#mc32469108d" x="432.112039" y="111.790248" style="stroke: #000000; stroke-width: 0.5"/>
      </g>
     </g>
    </g>
    <g id="ytick_55">
     <g id="line2d_254">
      <g>
       <use xlink:href="#m161c0f09d4" x="240.154561" y="106.778411" style="stroke: #000000; stroke-width: 0.5"/>
      </g>
     </g>
     <g id="line2d_255">
      <g>
       <use xlink:href="#mc32469108d" x="432.112039" y="106.778411" style="stroke: #000000; stroke-width: 0.5"/>
      </g>
     </g>
    </g>
    <g id="ytick_56">
     <g id="line2d_256">
      <g>
       <use xlink:href="#m161c0f09d4" x="240.154561" y="101.766574" style="stroke: #000000; stroke-width: 0.5"/>
      </g>
     </g>
     <g id="line2d_257">
      <g>
       <use xlink:href="#mc32469108d" x="432.112039" y="101.766574" style="stroke: #000000; stroke-width: 0.5"/>
      </g>
     </g>
    </g>
    <g id="ytick_57">
     <g id="line2d_258">
      <g>
       <use xlink:href="#m161c0f09d4" x="240.154561" y="96.754737" style="stroke: #000000; stroke-width: 0.5"/>
      </g>
     </g>
     <g id="line2d_259">
      <g>
       <use xlink:href="#mc32469108d" x="432.112039" y="96.754737" style="stroke: #000000; stroke-width: 0.5"/>
      </g>
     </g>
    </g>
   </g>
   <g id="line2d_260">
    <path d="M 248.879901 187.468194 
L 248.879901 96.711936 
" clip-path="url(#p6161209bff)" style="fill: none; stroke-dasharray: 3.7,1.6; stroke-dashoffset: 0; stroke: #000000; stroke-opacity: 0.6"/>
   </g>
   <g id="line2d_261">
    <path d="M 423.386699 187.468194 
L 423.386699 96.711936 
" clip-path="url(#p6161209bff)" style="fill: none; stroke-dasharray: 3.7,1.6; stroke-dashoffset: 0; stroke: #000000; stroke-opacity: 0.6"/>
   </g>
   <g id="line2d_262">
    <path d="M 248.879901 107.056119 
L 250.830682 108.245387 
L 254.167724 110.522911 
L 265.847373 118.807582 
L 269.184416 120.781715 
L 272.521459 122.450144 
L 275.024241 123.482614 
L 277.527023 124.322585 
L 280.029804 124.972366 
L 282.532586 125.439491 
L 285.869629 125.799112 
L 289.206672 125.892216 
L 292.543714 125.762411 
L 296.715018 125.35831 
L 301.720581 124.639504 
L 319.240055 121.90814 
L 325.07988 121.331517 
L 330.919704 120.993993 
L 336.759529 120.873107 
L 344.267875 120.959403 
L 355.947524 121.36771 
L 371.798476 121.882558 
L 383.478126 122.026267 
L 399.329078 121.966162 
L 423.386699 121.785928 
L 423.386699 121.785928 
" clip-path="url(#p6161209bff)" style="fill: none; stroke: #0c5da5; stroke-opacity: 0.8; stroke-width: 2; stroke-linecap: square"/>
   </g>
   <g id="line2d_263">
    <path d="M 248.879901 169.710252 
L 249.996421 173.146154 
L 251.664942 177.291522 
L 252.499203 178.935401 
L 253.333464 180.304154 
L 254.167724 181.406528 
L 255.001985 182.251752 
L 255.836245 182.849484 
L 256.670506 183.209752 
L 257.504767 183.34291 
L 258.339027 183.259578 
L 259.173288 182.9706 
L 260.007549 182.486991 
L 260.841809 181.819895 
L 261.67607 180.980535 
L 263.344591 178.830094 
L 265.013113 176.125567 
L 266.681634 172.955672 
L 269.184416 167.516567 
L 271.687198 161.501726 
L 282.532586 134.461458 
L 285.035368 129.003312 
L 287.53815 124.095695 
L 290.040932 119.8051 
L 291.709454 117.30791 
L 293.377975 115.108323 
L 295.046496 113.207286 
L 296.715018 111.601688 
L 298.383539 110.284779 
L 300.05206 109.246611 
L 301.720581 108.474474 
L 303.389103 107.953327 
L 305.057624 107.66622 
L 306.726145 107.594701 
L 308.394667 107.719207 
L 310.063188 108.019425 
L 312.56597 108.753866 
L 315.068752 109.767028 
L 318.405795 111.433743 
L 322.577098 113.813382 
L 330.919704 118.628961 
L 334.256747 120.314782 
L 337.59379 121.770751 
L 340.930832 122.964978 
L 344.267875 123.884578 
L 347.604918 124.532875 
L 350.94196 124.926297 
L 354.279003 125.091169 
L 358.450306 125.026694 
L 362.621609 124.729555 
L 368.461434 124.063457 
L 385.980908 121.869938 
L 392.654993 121.362732 
L 399.329078 121.104501 
L 406.837424 121.066455 
L 416.848552 121.279324 
L 423.386699 121.483132 
L 423.386699 121.483132 
" clip-path="url(#p6161209bff)" style="fill: none; stroke: #00b945; stroke-opacity: 0.8; stroke-width: 2; stroke-linecap: square"/>
   </g>
   <g id="line2d_264">
    <path d="M 248.879901 121.813922 
L 250.830682 134.530016 
L 252.499203 144.125181 
L 254.167724 152.4561 
L 255.836245 159.478365 
L 257.504767 165.181176 
L 259.173288 169.58636 
L 260.007549 171.317461 
L 260.841809 172.745685 
L 261.67607 173.88075 
L 262.510331 174.732823 
L 263.344591 175.313305 
L 264.178852 175.634791 
L 265.013113 175.710948 
L 265.847373 175.556365 
L 266.681634 175.186388 
L 267.515895 174.617168 
L 268.350155 173.866184 
L 270.018677 171.889093 
L 271.687198 169.390932 
L 273.355719 166.497551 
L 277.527023 158.96643 
L 279.195544 156.530529 
L 280.029804 155.55829 
L 280.864065 154.80914 
L 281.698326 154.349485 
L 282.532586 154.173768 
L 283.366847 154.212846 
L 285.035368 154.439277 
L 285.869629 154.196032 
L 286.70389 153.548777 
L 287.53815 152.474123 
L 288.372411 151.064132 
L 290.040932 147.574024 
L 293.377975 139.503761 
L 297.549278 129.579624 
L 300.886321 122.29013 
L 303.389103 117.339812 
L 305.891885 112.914601 
L 308.394667 109.084087 
L 310.063188 106.895404 
L 311.731709 105.02204 
L 313.400231 103.479997 
L 315.068752 102.282287 
L 316.737273 101.438919 
L 318.405795 100.956536 
L 320.074316 100.83722 
L 321.742837 101.073242 
L 323.411359 101.647677 
L 325.07988 102.537016 
L 326.748401 103.711716 
L 328.416922 105.13641 
L 330.919704 107.644397 
L 334.256747 111.414183 
L 339.262311 117.175497 
L 341.765093 119.779619 
L 344.267875 122.052535 
L 346.770657 123.93026 
L 348.439178 124.94802 
L 350.107699 125.778952 
L 351.776221 126.429776 
L 353.444742 126.911383 
L 355.947524 127.3485 
L 358.450306 127.496587 
L 360.953088 127.417154 
L 364.290131 127.055354 
L 368.461434 126.355353 
L 390.152211 122.345563 
L 394.323514 121.982751 
L 404.334642 121.404449 
L 411.842988 121.179097 
L 419.351334 121.172298 
L 423.386699 121.241828 
L 423.386699 121.241828 
" clip-path="url(#p6161209bff)" style="fill: none; stroke: #ff9500; stroke-opacity: 0.8; stroke-width: 2; stroke-linecap: square"/>
   </g>
   <g id="patch_15">
    <path d="M 240.154561 187.468194 
L 240.154561 96.711936 
" style="fill: none; stroke: #000000; stroke-width: 0.5; stroke-linejoin: miter; stroke-linecap: square"/>
   </g>
   <g id="patch_16">
    <path d="M 432.112039 187.468194 
L 432.112039 96.711936 
" style="fill: none; stroke: #000000; stroke-width: 0.5; stroke-linejoin: miter; stroke-linecap: square"/>
   </g>
   <g id="patch_17">
    <path d="M 240.154561 187.468194 
L 432.112039 187.468194 
" style="fill: none; stroke: #000000; stroke-width: 0.5; stroke-linejoin: miter; stroke-linecap: square"/>
   </g>
   <g id="patch_18">
    <path d="M 240.154561 96.711936 
L 432.112039 96.711936 
" style="fill: none; stroke: #000000; stroke-width: 0.5; stroke-linejoin: miter; stroke-linecap: square"/>
   </g>
   <g id="legend_3">
    <g id="patch_19">
     <path d="M 347.731174 182.930381 
L 408.40844 182.930381 
Q 410.40844 182.930381 410.40844 180.930381 
L 410.40844 135.963256 
Q 410.40844 133.963256 408.40844 133.963256 
L 347.731174 133.963256 
Q 345.731174 133.963256 345.731174 135.963256 
L 345.731174 180.930381 
Q 345.731174 182.930381 347.731174 182.930381 
z
" style="fill: #ffffff; opacity: 0.8; stroke: #cccccc; stroke-linejoin: miter"/>
    </g>
    <g id="line2d_265">
     <path d="M 349.731174 141.935236 
L 359.731174 141.935236 
L 369.731174 141.935236 
" style="fill: none; stroke: #0c5da5; stroke-opacity: 0.8; stroke-width: 2; stroke-linecap: square"/>
    </g>
    <g id="text_31">
     <!-- $e_{2,1}(\tau)$ -->
     <g transform="translate(377.731174 145.435236) scale(0.1 -0.1)">
      <use xlink:href="#CMMI12-65" transform="scale(0.996264)"/>
      <use xlink:href="#CMR17-32" transform="translate(45.212001 -14.943915) scale(0.697382)"/>
      <use xlink:href="#CMMI12-3b" transform="translate(77.195183 -14.943915) scale(0.697382)"/>
      <use xlink:href="#CMR17-31" transform="translate(96.163116 -14.943915) scale(0.697382)"/>
      <use xlink:href="#CMR17-28" transform="translate(128.64443 0) scale(0.996264)"/>
      <use xlink:href="#CMMI12-1c" transform="translate(163.925198 0) scale(0.996264)"/>
      <use xlink:href="#CMR17-29" transform="translate(217.416363 0) scale(0.996264)"/>
     </g>
    </g>
    <g id="line2d_266">
     <path d="M 349.731174 157.257611 
L 359.731174 157.257611 
L 369.731174 157.257611 
" style="fill: none; stroke: #00b945; stroke-opacity: 0.8; stroke-width: 2; stroke-linecap: square"/>
    </g>
    <g id="text_32">
     <!-- $e_{2,2}(\tau)$ -->
     <g transform="translate(377.731174 160.757611) scale(0.1 -0.1)">
      <use xlink:href="#CMMI12-65" transform="scale(0.996264)"/>
      <use xlink:href="#CMR17-32" transform="translate(45.212001 -14.943915) scale(0.697382)"/>
      <use xlink:href="#CMMI12-3b" transform="translate(77.195183 -14.943915) scale(0.697382)"/>
      <use xlink:href="#CMR17-32" transform="translate(96.163116 -14.943915) scale(0.697382)"/>
      <use xlink:href="#CMR17-28" transform="translate(128.64443 0) scale(0.996264)"/>
      <use xlink:href="#CMMI12-1c" transform="translate(163.925198 0) scale(0.996264)"/>
      <use xlink:href="#CMR17-29" transform="translate(217.416363 0) scale(0.996264)"/>
     </g>
    </g>
    <g id="line2d_267">
     <path d="M 349.731174 172.579986 
L 359.731174 172.579986 
L 369.731174 172.579986 
" style="fill: none; stroke: #ff9500; stroke-opacity: 0.8; stroke-width: 2; stroke-linecap: square"/>
    </g>
    <g id="text_33">
     <!-- $e_{2,3}(\tau)$ -->
     <g transform="translate(377.731174 176.079986) scale(0.1 -0.1)">
      <use xlink:href="#CMMI12-65" transform="scale(0.996264)"/>
      <use xlink:href="#CMR17-32" transform="translate(45.212001 -14.943915) scale(0.697382)"/>
      <use xlink:href="#CMMI12-3b" transform="translate(77.195183 -14.943915) scale(0.697382)"/>
      <use xlink:href="#CMR17-33" transform="translate(96.163116 -14.943915) scale(0.697382)"/>
      <use xlink:href="#CMR17-28" transform="translate(128.64443 0) scale(0.996264)"/>
      <use xlink:href="#CMMI12-1c" transform="translate(163.925198 0) scale(0.996264)"/>
      <use xlink:href="#CMR17-29" transform="translate(217.416363 0) scale(0.996264)"/>
     </g>
    </g>
   </g>
  </g>
 </g>
 <defs>
  <clipPath id="p726ed33933">
   <rect x="22.057642" y="3.6" width="191.957479" height="183.868194"/>
  </clipPath>
  <clipPath id="pc8a1f0fc11">
   <rect x="240.154561" y="3.6" width="191.957479" height="90.756259"/>
  </clipPath>
  <clipPath id="p6161209bff">
   <rect x="240.154561" y="96.711936" width="191.957479" height="90.756259"/>
  </clipPath>
 </defs>
</svg>
